M48
; DRILL file {KiCad 8.0.5} date 2024-11-01T22:20:40+0100
; FORMAT={-:-/ absolute / metric / decimal}
; #@! TF.CreationDate,2024-11-01T22:20:40+01:00
; #@! TF.GenerationSoftware,Kicad,Pcbnew,8.0.5
; #@! TF.FileFunction,Plated,1,4,PTH
FMAT,2
METRIC
; #@! TA.AperFunction,Plated,PTH,ViaDrill
T1C0.300
; #@! TA.AperFunction,Plated,PTH,ComponentDrill
T2C0.400
; #@! TA.AperFunction,Plated,PTH,ComponentDrill
T3C1.000
%
G90
G05
T1
X139.84Y-97.21
X140.77Y-98.1
X141.83Y-94.37
X141.88Y-111.2
X142.78Y-118.28
X142.87Y-94.82
X143.14Y-98.36
X143.65Y-118.23
X143.68Y-109.17
X143.7Y-94.14
X144.085Y-95.285
X144.26Y-107.18
X144.77Y-93.72
X145.07Y-118.2
X145.13Y-105.15
X145.15Y-106.11
X145.19Y-107.47
X145.62Y-99.73
X145.63Y-95.18
X145.7Y-101.28
X145.95Y-115.162
X145.97Y-103.81
X146.08Y-92.3
X146.1Y-104.99
X146.4Y-118.39
X147.45Y-118.31
X147.47Y-111.17
X147.61Y-116.92
X147.64Y-114.82
X147.74Y-97.34
X147.93Y-94.1
X148.44Y-93.14
X148.93Y-114.91
X149.44Y-93.14
X150.385Y-95.655
X150.42Y-93.14
X150.55Y-114.79
X150.63Y-101.55
X150.74Y-116.17
X150.8Y-119.04
X151.53Y-100.55
X151.84Y-96.16
X151.86Y-94.17
X152.79Y-98.04
X153.61Y-110.23
X153.73Y-93.46
X154.28Y-96.13
X154.76Y-111.85
X155.26Y-100.17
X156.24Y-111.81
T2
X137.94Y-79.97
X139.94Y-79.97
X139.94Y-84.97
X141.94Y-79.97
X141.94Y-84.97
X143.94Y-79.97
X143.94Y-84.97
X145.94Y-79.97
X145.94Y-84.97
X147.94Y-79.97
X147.94Y-84.97
X149.94Y-79.97
X149.94Y-84.97
X151.94Y-79.97
X151.94Y-84.97
X153.94Y-79.97
X153.94Y-84.97
X155.94Y-79.97
X155.94Y-84.97
T3
X140.53Y-125.0
X143.07Y-125.0
X145.61Y-125.0
X148.15Y-125.0
X150.69Y-125.0
X153.23Y-125.0
X155.77Y-125.0
M30
