%TF.GenerationSoftware,KiCad,Pcbnew,8.0.5*%
%TF.CreationDate,2024-11-01T22:20:15+01:00*%
%TF.ProjectId,C8W1B1V1.0,43385731-4231-4563-912e-302e6b696361,rev?*%
%TF.SameCoordinates,Original*%
%TF.FileFunction,Legend,Top*%
%TF.FilePolarity,Positive*%
%FSLAX46Y46*%
G04 Gerber Fmt 4.6, Leading zero omitted, Abs format (unit mm)*
G04 Created by KiCad (PCBNEW 8.0.5) date 2024-11-01 22:20:15*
%MOMM*%
%LPD*%
G01*
G04 APERTURE LIST*
G04 Aperture macros list*
%AMRoundRect*
0 Rectangle with rounded corners*
0 $1 Rounding radius*
0 $2 $3 $4 $5 $6 $7 $8 $9 X,Y pos of 4 corners*
0 Add a 4 corners polygon primitive as box body*
4,1,4,$2,$3,$4,$5,$6,$7,$8,$9,$2,$3,0*
0 Add four circle primitives for the rounded corners*
1,1,$1+$1,$2,$3*
1,1,$1+$1,$4,$5*
1,1,$1+$1,$6,$7*
1,1,$1+$1,$8,$9*
0 Add four rect primitives between the rounded corners*
20,1,$1+$1,$2,$3,$4,$5,0*
20,1,$1+$1,$4,$5,$6,$7,0*
20,1,$1+$1,$6,$7,$8,$9,0*
20,1,$1+$1,$8,$9,$2,$3,0*%
G04 Aperture macros list end*
%ADD10C,0.100000*%
%ADD11C,0.150000*%
%ADD12C,0.254000*%
%ADD13C,0.120000*%
%ADD14C,0.200000*%
%ADD15C,0.250000*%
%ADD16RoundRect,0.140000X0.170000X-0.140000X0.170000X0.140000X-0.170000X0.140000X-0.170000X-0.140000X0*%
%ADD17RoundRect,0.135000X0.135000X0.185000X-0.135000X0.185000X-0.135000X-0.185000X0.135000X-0.185000X0*%
%ADD18R,0.500000X0.600000*%
%ADD19RoundRect,0.135000X-0.135000X-0.185000X0.135000X-0.185000X0.135000X0.185000X-0.135000X0.185000X0*%
%ADD20R,1.100000X1.500000*%
%ADD21RoundRect,0.135000X0.185000X-0.135000X0.185000X0.135000X-0.185000X0.135000X-0.185000X-0.135000X0*%
%ADD22RoundRect,0.140000X-0.140000X-0.170000X0.140000X-0.170000X0.140000X0.170000X-0.140000X0.170000X0*%
%ADD23RoundRect,0.135000X-0.185000X0.135000X-0.185000X-0.135000X0.185000X-0.135000X0.185000X0.135000X0*%
%ADD24R,1.700000X1.700000*%
%ADD25O,1.700000X1.700000*%
%ADD26RoundRect,0.140000X-0.170000X0.140000X-0.170000X-0.140000X0.170000X-0.140000X0.170000X0.140000X0*%
%ADD27RoundRect,0.140000X0.140000X0.170000X-0.140000X0.170000X-0.140000X-0.170000X0.140000X-0.170000X0*%
%ADD28C,0.220000*%
%ADD29RoundRect,0.147500X0.172500X-0.147500X0.172500X0.147500X-0.172500X0.147500X-0.172500X-0.147500X0*%
%ADD30R,0.950000X0.300000*%
%ADD31R,0.250000X1.650000*%
%ADD32R,0.850000X0.300000*%
%ADD33R,1.500000X1.700000*%
%ADD34RoundRect,0.147500X-0.147500X-0.172500X0.147500X-0.172500X0.147500X0.172500X-0.147500X0.172500X0*%
%ADD35RoundRect,0.062500X-0.375000X-0.062500X0.375000X-0.062500X0.375000X0.062500X-0.375000X0.062500X0*%
%ADD36RoundRect,0.062500X-0.062500X-0.375000X0.062500X-0.375000X0.062500X0.375000X-0.062500X0.375000X0*%
%ADD37R,3.450000X3.450000*%
%ADD38RoundRect,0.218750X-0.218750X-0.381250X0.218750X-0.381250X0.218750X0.381250X-0.218750X0.381250X0*%
%ADD39R,0.800000X0.300000*%
%ADD40R,0.300000X0.800000*%
%ADD41R,2.800000X2.800000*%
G04 APERTURE END LIST*
D10*
X143482419Y-122494687D02*
X143006228Y-122828020D01*
X143482419Y-123066115D02*
X142482419Y-123066115D01*
X142482419Y-123066115D02*
X142482419Y-122685163D01*
X142482419Y-122685163D02*
X142530038Y-122589925D01*
X142530038Y-122589925D02*
X142577657Y-122542306D01*
X142577657Y-122542306D02*
X142672895Y-122494687D01*
X142672895Y-122494687D02*
X142815752Y-122494687D01*
X142815752Y-122494687D02*
X142910990Y-122542306D01*
X142910990Y-122542306D02*
X142958609Y-122589925D01*
X142958609Y-122589925D02*
X143006228Y-122685163D01*
X143006228Y-122685163D02*
X143006228Y-123066115D01*
X143434800Y-122113734D02*
X143482419Y-121970877D01*
X143482419Y-121970877D02*
X143482419Y-121732782D01*
X143482419Y-121732782D02*
X143434800Y-121637544D01*
X143434800Y-121637544D02*
X143387180Y-121589925D01*
X143387180Y-121589925D02*
X143291942Y-121542306D01*
X143291942Y-121542306D02*
X143196704Y-121542306D01*
X143196704Y-121542306D02*
X143101466Y-121589925D01*
X143101466Y-121589925D02*
X143053847Y-121637544D01*
X143053847Y-121637544D02*
X143006228Y-121732782D01*
X143006228Y-121732782D02*
X142958609Y-121923258D01*
X142958609Y-121923258D02*
X142910990Y-122018496D01*
X142910990Y-122018496D02*
X142863371Y-122066115D01*
X142863371Y-122066115D02*
X142768133Y-122113734D01*
X142768133Y-122113734D02*
X142672895Y-122113734D01*
X142672895Y-122113734D02*
X142577657Y-122066115D01*
X142577657Y-122066115D02*
X142530038Y-122018496D01*
X142530038Y-122018496D02*
X142482419Y-121923258D01*
X142482419Y-121923258D02*
X142482419Y-121685163D01*
X142482419Y-121685163D02*
X142530038Y-121542306D01*
X142482419Y-121256591D02*
X142482419Y-120685163D01*
X143482419Y-120970877D02*
X142482419Y-120970877D01*
X140042419Y-123026115D02*
X140851942Y-123026115D01*
X140851942Y-123026115D02*
X140947180Y-122978496D01*
X140947180Y-122978496D02*
X140994800Y-122930877D01*
X140994800Y-122930877D02*
X141042419Y-122835639D01*
X141042419Y-122835639D02*
X141042419Y-122645163D01*
X141042419Y-122645163D02*
X140994800Y-122549925D01*
X140994800Y-122549925D02*
X140947180Y-122502306D01*
X140947180Y-122502306D02*
X140851942Y-122454687D01*
X140851942Y-122454687D02*
X140042419Y-122454687D01*
X141137657Y-122216592D02*
X141137657Y-121454687D01*
X140042419Y-121359448D02*
X140042419Y-120788020D01*
X141042419Y-121073734D02*
X140042419Y-121073734D01*
X140042419Y-120549924D02*
X141042419Y-119883258D01*
X140042419Y-119883258D02*
X141042419Y-120549924D01*
X153924800Y-123073734D02*
X153972419Y-122930877D01*
X153972419Y-122930877D02*
X153972419Y-122692782D01*
X153972419Y-122692782D02*
X153924800Y-122597544D01*
X153924800Y-122597544D02*
X153877180Y-122549925D01*
X153877180Y-122549925D02*
X153781942Y-122502306D01*
X153781942Y-122502306D02*
X153686704Y-122502306D01*
X153686704Y-122502306D02*
X153591466Y-122549925D01*
X153591466Y-122549925D02*
X153543847Y-122597544D01*
X153543847Y-122597544D02*
X153496228Y-122692782D01*
X153496228Y-122692782D02*
X153448609Y-122883258D01*
X153448609Y-122883258D02*
X153400990Y-122978496D01*
X153400990Y-122978496D02*
X153353371Y-123026115D01*
X153353371Y-123026115D02*
X153258133Y-123073734D01*
X153258133Y-123073734D02*
X153162895Y-123073734D01*
X153162895Y-123073734D02*
X153067657Y-123026115D01*
X153067657Y-123026115D02*
X153020038Y-122978496D01*
X153020038Y-122978496D02*
X152972419Y-122883258D01*
X152972419Y-122883258D02*
X152972419Y-122645163D01*
X152972419Y-122645163D02*
X153020038Y-122502306D01*
X152972419Y-122168972D02*
X153972419Y-121930877D01*
X153972419Y-121930877D02*
X153258133Y-121740401D01*
X153258133Y-121740401D02*
X153972419Y-121549925D01*
X153972419Y-121549925D02*
X152972419Y-121311830D01*
X153972419Y-120930877D02*
X152972419Y-120930877D01*
X152972419Y-120930877D02*
X152972419Y-120692782D01*
X152972419Y-120692782D02*
X153020038Y-120549925D01*
X153020038Y-120549925D02*
X153115276Y-120454687D01*
X153115276Y-120454687D02*
X153210514Y-120407068D01*
X153210514Y-120407068D02*
X153400990Y-120359449D01*
X153400990Y-120359449D02*
X153543847Y-120359449D01*
X153543847Y-120359449D02*
X153734323Y-120407068D01*
X153734323Y-120407068D02*
X153829561Y-120454687D01*
X153829561Y-120454687D02*
X153924800Y-120549925D01*
X153924800Y-120549925D02*
X153972419Y-120692782D01*
X153972419Y-120692782D02*
X153972419Y-120930877D01*
X153972419Y-119930877D02*
X152972419Y-119930877D01*
X152972419Y-119264211D02*
X152972419Y-119073735D01*
X152972419Y-119073735D02*
X153020038Y-118978497D01*
X153020038Y-118978497D02*
X153115276Y-118883259D01*
X153115276Y-118883259D02*
X153305752Y-118835640D01*
X153305752Y-118835640D02*
X153639085Y-118835640D01*
X153639085Y-118835640D02*
X153829561Y-118883259D01*
X153829561Y-118883259D02*
X153924800Y-118978497D01*
X153924800Y-118978497D02*
X153972419Y-119073735D01*
X153972419Y-119073735D02*
X153972419Y-119264211D01*
X153972419Y-119264211D02*
X153924800Y-119359449D01*
X153924800Y-119359449D02*
X153829561Y-119454687D01*
X153829561Y-119454687D02*
X153639085Y-119502306D01*
X153639085Y-119502306D02*
X153305752Y-119502306D01*
X153305752Y-119502306D02*
X153115276Y-119454687D01*
X153115276Y-119454687D02*
X153020038Y-119359449D01*
X153020038Y-119359449D02*
X152972419Y-119264211D01*
X150242419Y-123646115D02*
X151051942Y-123646115D01*
X151051942Y-123646115D02*
X151147180Y-123598496D01*
X151147180Y-123598496D02*
X151194800Y-123550877D01*
X151194800Y-123550877D02*
X151242419Y-123455639D01*
X151242419Y-123455639D02*
X151242419Y-123265163D01*
X151242419Y-123265163D02*
X151194800Y-123169925D01*
X151194800Y-123169925D02*
X151147180Y-123122306D01*
X151147180Y-123122306D02*
X151051942Y-123074687D01*
X151051942Y-123074687D02*
X150242419Y-123074687D01*
X151337657Y-122836592D02*
X151337657Y-122074687D01*
X150242419Y-121979448D02*
X150242419Y-121408020D01*
X151242419Y-121693734D02*
X150242419Y-121693734D01*
X150242419Y-121169924D02*
X151242419Y-120503258D01*
X150242419Y-120503258D02*
X151242419Y-121169924D01*
X144450038Y-122552306D02*
X144402419Y-122647544D01*
X144402419Y-122647544D02*
X144402419Y-122790401D01*
X144402419Y-122790401D02*
X144450038Y-122933258D01*
X144450038Y-122933258D02*
X144545276Y-123028496D01*
X144545276Y-123028496D02*
X144640514Y-123076115D01*
X144640514Y-123076115D02*
X144830990Y-123123734D01*
X144830990Y-123123734D02*
X144973847Y-123123734D01*
X144973847Y-123123734D02*
X145164323Y-123076115D01*
X145164323Y-123076115D02*
X145259561Y-123028496D01*
X145259561Y-123028496D02*
X145354800Y-122933258D01*
X145354800Y-122933258D02*
X145402419Y-122790401D01*
X145402419Y-122790401D02*
X145402419Y-122695163D01*
X145402419Y-122695163D02*
X145354800Y-122552306D01*
X145354800Y-122552306D02*
X145307180Y-122504687D01*
X145307180Y-122504687D02*
X144973847Y-122504687D01*
X144973847Y-122504687D02*
X144973847Y-122695163D01*
X145402419Y-122076115D02*
X144402419Y-122076115D01*
X144402419Y-122076115D02*
X145402419Y-121504687D01*
X145402419Y-121504687D02*
X144402419Y-121504687D01*
X145402419Y-121028496D02*
X144402419Y-121028496D01*
X144402419Y-121028496D02*
X144402419Y-120790401D01*
X144402419Y-120790401D02*
X144450038Y-120647544D01*
X144450038Y-120647544D02*
X144545276Y-120552306D01*
X144545276Y-120552306D02*
X144640514Y-120504687D01*
X144640514Y-120504687D02*
X144830990Y-120457068D01*
X144830990Y-120457068D02*
X144973847Y-120457068D01*
X144973847Y-120457068D02*
X145164323Y-120504687D01*
X145164323Y-120504687D02*
X145259561Y-120552306D01*
X145259561Y-120552306D02*
X145354800Y-120647544D01*
X145354800Y-120647544D02*
X145402419Y-120790401D01*
X145402419Y-120790401D02*
X145402419Y-121028496D01*
X156894800Y-122963734D02*
X156942419Y-122820877D01*
X156942419Y-122820877D02*
X156942419Y-122582782D01*
X156942419Y-122582782D02*
X156894800Y-122487544D01*
X156894800Y-122487544D02*
X156847180Y-122439925D01*
X156847180Y-122439925D02*
X156751942Y-122392306D01*
X156751942Y-122392306D02*
X156656704Y-122392306D01*
X156656704Y-122392306D02*
X156561466Y-122439925D01*
X156561466Y-122439925D02*
X156513847Y-122487544D01*
X156513847Y-122487544D02*
X156466228Y-122582782D01*
X156466228Y-122582782D02*
X156418609Y-122773258D01*
X156418609Y-122773258D02*
X156370990Y-122868496D01*
X156370990Y-122868496D02*
X156323371Y-122916115D01*
X156323371Y-122916115D02*
X156228133Y-122963734D01*
X156228133Y-122963734D02*
X156132895Y-122963734D01*
X156132895Y-122963734D02*
X156037657Y-122916115D01*
X156037657Y-122916115D02*
X155990038Y-122868496D01*
X155990038Y-122868496D02*
X155942419Y-122773258D01*
X155942419Y-122773258D02*
X155942419Y-122535163D01*
X155942419Y-122535163D02*
X155990038Y-122392306D01*
X155942419Y-122058972D02*
X156942419Y-121820877D01*
X156942419Y-121820877D02*
X156228133Y-121630401D01*
X156228133Y-121630401D02*
X156942419Y-121439925D01*
X156942419Y-121439925D02*
X155942419Y-121201830D01*
X156847180Y-120249449D02*
X156894800Y-120297068D01*
X156894800Y-120297068D02*
X156942419Y-120439925D01*
X156942419Y-120439925D02*
X156942419Y-120535163D01*
X156942419Y-120535163D02*
X156894800Y-120678020D01*
X156894800Y-120678020D02*
X156799561Y-120773258D01*
X156799561Y-120773258D02*
X156704323Y-120820877D01*
X156704323Y-120820877D02*
X156513847Y-120868496D01*
X156513847Y-120868496D02*
X156370990Y-120868496D01*
X156370990Y-120868496D02*
X156180514Y-120820877D01*
X156180514Y-120820877D02*
X156085276Y-120773258D01*
X156085276Y-120773258D02*
X155990038Y-120678020D01*
X155990038Y-120678020D02*
X155942419Y-120535163D01*
X155942419Y-120535163D02*
X155942419Y-120439925D01*
X155942419Y-120439925D02*
X155990038Y-120297068D01*
X155990038Y-120297068D02*
X156037657Y-120249449D01*
X156942419Y-119344687D02*
X156942419Y-119820877D01*
X156942419Y-119820877D02*
X155942419Y-119820877D01*
X156942419Y-119011353D02*
X155942419Y-119011353D01*
X156942419Y-118439925D02*
X156370990Y-118868496D01*
X155942419Y-118439925D02*
X156513847Y-119011353D01*
X147592419Y-123131353D02*
X147592419Y-122512306D01*
X147592419Y-122512306D02*
X147973371Y-122845639D01*
X147973371Y-122845639D02*
X147973371Y-122702782D01*
X147973371Y-122702782D02*
X148020990Y-122607544D01*
X148020990Y-122607544D02*
X148068609Y-122559925D01*
X148068609Y-122559925D02*
X148163847Y-122512306D01*
X148163847Y-122512306D02*
X148401942Y-122512306D01*
X148401942Y-122512306D02*
X148497180Y-122559925D01*
X148497180Y-122559925D02*
X148544800Y-122607544D01*
X148544800Y-122607544D02*
X148592419Y-122702782D01*
X148592419Y-122702782D02*
X148592419Y-122988496D01*
X148592419Y-122988496D02*
X148544800Y-123083734D01*
X148544800Y-123083734D02*
X148497180Y-123131353D01*
X147592419Y-122226591D02*
X148592419Y-121893258D01*
X148592419Y-121893258D02*
X147592419Y-121559925D01*
X147592419Y-121321829D02*
X147592419Y-120702782D01*
X147592419Y-120702782D02*
X147973371Y-121036115D01*
X147973371Y-121036115D02*
X147973371Y-120893258D01*
X147973371Y-120893258D02*
X148020990Y-120798020D01*
X148020990Y-120798020D02*
X148068609Y-120750401D01*
X148068609Y-120750401D02*
X148163847Y-120702782D01*
X148163847Y-120702782D02*
X148401942Y-120702782D01*
X148401942Y-120702782D02*
X148497180Y-120750401D01*
X148497180Y-120750401D02*
X148544800Y-120798020D01*
X148544800Y-120798020D02*
X148592419Y-120893258D01*
X148592419Y-120893258D02*
X148592419Y-121178972D01*
X148592419Y-121178972D02*
X148544800Y-121274210D01*
X148544800Y-121274210D02*
X148497180Y-121321829D01*
D11*
X157879580Y-95852857D02*
X157927200Y-95900476D01*
X157927200Y-95900476D02*
X157974819Y-96043333D01*
X157974819Y-96043333D02*
X157974819Y-96138571D01*
X157974819Y-96138571D02*
X157927200Y-96281428D01*
X157927200Y-96281428D02*
X157831961Y-96376666D01*
X157831961Y-96376666D02*
X157736723Y-96424285D01*
X157736723Y-96424285D02*
X157546247Y-96471904D01*
X157546247Y-96471904D02*
X157403390Y-96471904D01*
X157403390Y-96471904D02*
X157212914Y-96424285D01*
X157212914Y-96424285D02*
X157117676Y-96376666D01*
X157117676Y-96376666D02*
X157022438Y-96281428D01*
X157022438Y-96281428D02*
X156974819Y-96138571D01*
X156974819Y-96138571D02*
X156974819Y-96043333D01*
X156974819Y-96043333D02*
X157022438Y-95900476D01*
X157022438Y-95900476D02*
X157070057Y-95852857D01*
X157974819Y-94900476D02*
X157974819Y-95471904D01*
X157974819Y-95186190D02*
X156974819Y-95186190D01*
X156974819Y-95186190D02*
X157117676Y-95281428D01*
X157117676Y-95281428D02*
X157212914Y-95376666D01*
X157212914Y-95376666D02*
X157260533Y-95471904D01*
X157070057Y-94519523D02*
X157022438Y-94471904D01*
X157022438Y-94471904D02*
X156974819Y-94376666D01*
X156974819Y-94376666D02*
X156974819Y-94138571D01*
X156974819Y-94138571D02*
X157022438Y-94043333D01*
X157022438Y-94043333D02*
X157070057Y-93995714D01*
X157070057Y-93995714D02*
X157165295Y-93948095D01*
X157165295Y-93948095D02*
X157260533Y-93948095D01*
X157260533Y-93948095D02*
X157403390Y-93995714D01*
X157403390Y-93995714D02*
X157974819Y-94567142D01*
X157974819Y-94567142D02*
X157974819Y-93948095D01*
X140909580Y-111646666D02*
X140957200Y-111694285D01*
X140957200Y-111694285D02*
X141004819Y-111837142D01*
X141004819Y-111837142D02*
X141004819Y-111932380D01*
X141004819Y-111932380D02*
X140957200Y-112075237D01*
X140957200Y-112075237D02*
X140861961Y-112170475D01*
X140861961Y-112170475D02*
X140766723Y-112218094D01*
X140766723Y-112218094D02*
X140576247Y-112265713D01*
X140576247Y-112265713D02*
X140433390Y-112265713D01*
X140433390Y-112265713D02*
X140242914Y-112218094D01*
X140242914Y-112218094D02*
X140147676Y-112170475D01*
X140147676Y-112170475D02*
X140052438Y-112075237D01*
X140052438Y-112075237D02*
X140004819Y-111932380D01*
X140004819Y-111932380D02*
X140004819Y-111837142D01*
X140004819Y-111837142D02*
X140052438Y-111694285D01*
X140052438Y-111694285D02*
X140100057Y-111646666D01*
X140004819Y-111313332D02*
X140004819Y-110694285D01*
X140004819Y-110694285D02*
X140385771Y-111027618D01*
X140385771Y-111027618D02*
X140385771Y-110884761D01*
X140385771Y-110884761D02*
X140433390Y-110789523D01*
X140433390Y-110789523D02*
X140481009Y-110741904D01*
X140481009Y-110741904D02*
X140576247Y-110694285D01*
X140576247Y-110694285D02*
X140814342Y-110694285D01*
X140814342Y-110694285D02*
X140909580Y-110741904D01*
X140909580Y-110741904D02*
X140957200Y-110789523D01*
X140957200Y-110789523D02*
X141004819Y-110884761D01*
X141004819Y-110884761D02*
X141004819Y-111170475D01*
X141004819Y-111170475D02*
X140957200Y-111265713D01*
X140957200Y-111265713D02*
X140909580Y-111313332D01*
X151363333Y-114234819D02*
X151030000Y-113758628D01*
X150791905Y-114234819D02*
X150791905Y-113234819D01*
X150791905Y-113234819D02*
X151172857Y-113234819D01*
X151172857Y-113234819D02*
X151268095Y-113282438D01*
X151268095Y-113282438D02*
X151315714Y-113330057D01*
X151315714Y-113330057D02*
X151363333Y-113425295D01*
X151363333Y-113425295D02*
X151363333Y-113568152D01*
X151363333Y-113568152D02*
X151315714Y-113663390D01*
X151315714Y-113663390D02*
X151268095Y-113711009D01*
X151268095Y-113711009D02*
X151172857Y-113758628D01*
X151172857Y-113758628D02*
X150791905Y-113758628D01*
X151839524Y-114234819D02*
X152030000Y-114234819D01*
X152030000Y-114234819D02*
X152125238Y-114187200D01*
X152125238Y-114187200D02*
X152172857Y-114139580D01*
X152172857Y-114139580D02*
X152268095Y-113996723D01*
X152268095Y-113996723D02*
X152315714Y-113806247D01*
X152315714Y-113806247D02*
X152315714Y-113425295D01*
X152315714Y-113425295D02*
X152268095Y-113330057D01*
X152268095Y-113330057D02*
X152220476Y-113282438D01*
X152220476Y-113282438D02*
X152125238Y-113234819D01*
X152125238Y-113234819D02*
X151934762Y-113234819D01*
X151934762Y-113234819D02*
X151839524Y-113282438D01*
X151839524Y-113282438D02*
X151791905Y-113330057D01*
X151791905Y-113330057D02*
X151744286Y-113425295D01*
X151744286Y-113425295D02*
X151744286Y-113663390D01*
X151744286Y-113663390D02*
X151791905Y-113758628D01*
X151791905Y-113758628D02*
X151839524Y-113806247D01*
X151839524Y-113806247D02*
X151934762Y-113853866D01*
X151934762Y-113853866D02*
X152125238Y-113853866D01*
X152125238Y-113853866D02*
X152220476Y-113806247D01*
X152220476Y-113806247D02*
X152268095Y-113758628D01*
X152268095Y-113758628D02*
X152315714Y-113663390D01*
X152213809Y-101618628D02*
X152213809Y-102094819D01*
X151880476Y-101094819D02*
X152213809Y-101618628D01*
X152213809Y-101618628D02*
X152547142Y-101094819D01*
X153404285Y-102094819D02*
X152832857Y-102094819D01*
X153118571Y-102094819D02*
X153118571Y-101094819D01*
X153118571Y-101094819D02*
X153023333Y-101237676D01*
X153023333Y-101237676D02*
X152928095Y-101332914D01*
X152928095Y-101332914D02*
X152832857Y-101380533D01*
X142213333Y-97704819D02*
X141880000Y-97228628D01*
X141641905Y-97704819D02*
X141641905Y-96704819D01*
X141641905Y-96704819D02*
X142022857Y-96704819D01*
X142022857Y-96704819D02*
X142118095Y-96752438D01*
X142118095Y-96752438D02*
X142165714Y-96800057D01*
X142165714Y-96800057D02*
X142213333Y-96895295D01*
X142213333Y-96895295D02*
X142213333Y-97038152D01*
X142213333Y-97038152D02*
X142165714Y-97133390D01*
X142165714Y-97133390D02*
X142118095Y-97181009D01*
X142118095Y-97181009D02*
X142022857Y-97228628D01*
X142022857Y-97228628D02*
X141641905Y-97228628D01*
X143070476Y-97038152D02*
X143070476Y-97704819D01*
X142832381Y-96657200D02*
X142594286Y-97371485D01*
X142594286Y-97371485D02*
X143213333Y-97371485D01*
D12*
X154108809Y-108634318D02*
X153504047Y-108634318D01*
X153504047Y-108634318D02*
X153504047Y-107364318D01*
X154532142Y-107969080D02*
X154955476Y-107969080D01*
X155136904Y-108634318D02*
X154532142Y-108634318D01*
X154532142Y-108634318D02*
X154532142Y-107364318D01*
X154532142Y-107364318D02*
X155136904Y-107364318D01*
X155681190Y-108634318D02*
X155681190Y-107364318D01*
X155681190Y-107364318D02*
X155983571Y-107364318D01*
X155983571Y-107364318D02*
X156165000Y-107424794D01*
X156165000Y-107424794D02*
X156285952Y-107545746D01*
X156285952Y-107545746D02*
X156346429Y-107666699D01*
X156346429Y-107666699D02*
X156406905Y-107908603D01*
X156406905Y-107908603D02*
X156406905Y-108090032D01*
X156406905Y-108090032D02*
X156346429Y-108331937D01*
X156346429Y-108331937D02*
X156285952Y-108452889D01*
X156285952Y-108452889D02*
X156165000Y-108573842D01*
X156165000Y-108573842D02*
X155983571Y-108634318D01*
X155983571Y-108634318D02*
X155681190Y-108634318D01*
X157616429Y-108634318D02*
X156890714Y-108634318D01*
X157253571Y-108634318D02*
X157253571Y-107364318D01*
X157253571Y-107364318D02*
X157132619Y-107545746D01*
X157132619Y-107545746D02*
X157011667Y-107666699D01*
X157011667Y-107666699D02*
X156890714Y-107727175D01*
D11*
X144234819Y-119706666D02*
X143758628Y-120039999D01*
X144234819Y-120278094D02*
X143234819Y-120278094D01*
X143234819Y-120278094D02*
X143234819Y-119897142D01*
X143234819Y-119897142D02*
X143282438Y-119801904D01*
X143282438Y-119801904D02*
X143330057Y-119754285D01*
X143330057Y-119754285D02*
X143425295Y-119706666D01*
X143425295Y-119706666D02*
X143568152Y-119706666D01*
X143568152Y-119706666D02*
X143663390Y-119754285D01*
X143663390Y-119754285D02*
X143711009Y-119801904D01*
X143711009Y-119801904D02*
X143758628Y-119897142D01*
X143758628Y-119897142D02*
X143758628Y-120278094D01*
X143234819Y-118801904D02*
X143234819Y-119278094D01*
X143234819Y-119278094D02*
X143711009Y-119325713D01*
X143711009Y-119325713D02*
X143663390Y-119278094D01*
X143663390Y-119278094D02*
X143615771Y-119182856D01*
X143615771Y-119182856D02*
X143615771Y-118944761D01*
X143615771Y-118944761D02*
X143663390Y-118849523D01*
X143663390Y-118849523D02*
X143711009Y-118801904D01*
X143711009Y-118801904D02*
X143806247Y-118754285D01*
X143806247Y-118754285D02*
X144044342Y-118754285D01*
X144044342Y-118754285D02*
X144139580Y-118801904D01*
X144139580Y-118801904D02*
X144187200Y-118849523D01*
X144187200Y-118849523D02*
X144234819Y-118944761D01*
X144234819Y-118944761D02*
X144234819Y-119182856D01*
X144234819Y-119182856D02*
X144187200Y-119278094D01*
X144187200Y-119278094D02*
X144139580Y-119325713D01*
X145293333Y-91049580D02*
X145245714Y-91097200D01*
X145245714Y-91097200D02*
X145102857Y-91144819D01*
X145102857Y-91144819D02*
X145007619Y-91144819D01*
X145007619Y-91144819D02*
X144864762Y-91097200D01*
X144864762Y-91097200D02*
X144769524Y-91001961D01*
X144769524Y-91001961D02*
X144721905Y-90906723D01*
X144721905Y-90906723D02*
X144674286Y-90716247D01*
X144674286Y-90716247D02*
X144674286Y-90573390D01*
X144674286Y-90573390D02*
X144721905Y-90382914D01*
X144721905Y-90382914D02*
X144769524Y-90287676D01*
X144769524Y-90287676D02*
X144864762Y-90192438D01*
X144864762Y-90192438D02*
X145007619Y-90144819D01*
X145007619Y-90144819D02*
X145102857Y-90144819D01*
X145102857Y-90144819D02*
X145245714Y-90192438D01*
X145245714Y-90192438D02*
X145293333Y-90240057D01*
X146245714Y-91144819D02*
X145674286Y-91144819D01*
X145960000Y-91144819D02*
X145960000Y-90144819D01*
X145960000Y-90144819D02*
X145864762Y-90287676D01*
X145864762Y-90287676D02*
X145769524Y-90382914D01*
X145769524Y-90382914D02*
X145674286Y-90430533D01*
X142204819Y-111556666D02*
X141728628Y-111889999D01*
X142204819Y-112128094D02*
X141204819Y-112128094D01*
X141204819Y-112128094D02*
X141204819Y-111747142D01*
X141204819Y-111747142D02*
X141252438Y-111651904D01*
X141252438Y-111651904D02*
X141300057Y-111604285D01*
X141300057Y-111604285D02*
X141395295Y-111556666D01*
X141395295Y-111556666D02*
X141538152Y-111556666D01*
X141538152Y-111556666D02*
X141633390Y-111604285D01*
X141633390Y-111604285D02*
X141681009Y-111651904D01*
X141681009Y-111651904D02*
X141728628Y-111747142D01*
X141728628Y-111747142D02*
X141728628Y-112128094D01*
X142204819Y-110604285D02*
X142204819Y-111175713D01*
X142204819Y-110889999D02*
X141204819Y-110889999D01*
X141204819Y-110889999D02*
X141347676Y-110985237D01*
X141347676Y-110985237D02*
X141442914Y-111080475D01*
X141442914Y-111080475D02*
X141490533Y-111175713D01*
X150839580Y-91316666D02*
X150887200Y-91364285D01*
X150887200Y-91364285D02*
X150934819Y-91507142D01*
X150934819Y-91507142D02*
X150934819Y-91602380D01*
X150934819Y-91602380D02*
X150887200Y-91745237D01*
X150887200Y-91745237D02*
X150791961Y-91840475D01*
X150791961Y-91840475D02*
X150696723Y-91888094D01*
X150696723Y-91888094D02*
X150506247Y-91935713D01*
X150506247Y-91935713D02*
X150363390Y-91935713D01*
X150363390Y-91935713D02*
X150172914Y-91888094D01*
X150172914Y-91888094D02*
X150077676Y-91840475D01*
X150077676Y-91840475D02*
X149982438Y-91745237D01*
X149982438Y-91745237D02*
X149934819Y-91602380D01*
X149934819Y-91602380D02*
X149934819Y-91507142D01*
X149934819Y-91507142D02*
X149982438Y-91364285D01*
X149982438Y-91364285D02*
X150030057Y-91316666D01*
X149934819Y-90983332D02*
X149934819Y-90316666D01*
X149934819Y-90316666D02*
X150934819Y-90745237D01*
X149459580Y-91326666D02*
X149507200Y-91374285D01*
X149507200Y-91374285D02*
X149554819Y-91517142D01*
X149554819Y-91517142D02*
X149554819Y-91612380D01*
X149554819Y-91612380D02*
X149507200Y-91755237D01*
X149507200Y-91755237D02*
X149411961Y-91850475D01*
X149411961Y-91850475D02*
X149316723Y-91898094D01*
X149316723Y-91898094D02*
X149126247Y-91945713D01*
X149126247Y-91945713D02*
X148983390Y-91945713D01*
X148983390Y-91945713D02*
X148792914Y-91898094D01*
X148792914Y-91898094D02*
X148697676Y-91850475D01*
X148697676Y-91850475D02*
X148602438Y-91755237D01*
X148602438Y-91755237D02*
X148554819Y-91612380D01*
X148554819Y-91612380D02*
X148554819Y-91517142D01*
X148554819Y-91517142D02*
X148602438Y-91374285D01*
X148602438Y-91374285D02*
X148650057Y-91326666D01*
X148554819Y-90469523D02*
X148554819Y-90659999D01*
X148554819Y-90659999D02*
X148602438Y-90755237D01*
X148602438Y-90755237D02*
X148650057Y-90802856D01*
X148650057Y-90802856D02*
X148792914Y-90898094D01*
X148792914Y-90898094D02*
X148983390Y-90945713D01*
X148983390Y-90945713D02*
X149364342Y-90945713D01*
X149364342Y-90945713D02*
X149459580Y-90898094D01*
X149459580Y-90898094D02*
X149507200Y-90850475D01*
X149507200Y-90850475D02*
X149554819Y-90755237D01*
X149554819Y-90755237D02*
X149554819Y-90564761D01*
X149554819Y-90564761D02*
X149507200Y-90469523D01*
X149507200Y-90469523D02*
X149459580Y-90421904D01*
X149459580Y-90421904D02*
X149364342Y-90374285D01*
X149364342Y-90374285D02*
X149126247Y-90374285D01*
X149126247Y-90374285D02*
X149031009Y-90421904D01*
X149031009Y-90421904D02*
X148983390Y-90469523D01*
X148983390Y-90469523D02*
X148935771Y-90564761D01*
X148935771Y-90564761D02*
X148935771Y-90755237D01*
X148935771Y-90755237D02*
X148983390Y-90850475D01*
X148983390Y-90850475D02*
X149031009Y-90898094D01*
X149031009Y-90898094D02*
X149126247Y-90945713D01*
X137654819Y-125333333D02*
X138369104Y-125333333D01*
X138369104Y-125333333D02*
X138511961Y-125380952D01*
X138511961Y-125380952D02*
X138607200Y-125476190D01*
X138607200Y-125476190D02*
X138654819Y-125619047D01*
X138654819Y-125619047D02*
X138654819Y-125714285D01*
X138654819Y-124333333D02*
X138654819Y-124904761D01*
X138654819Y-124619047D02*
X137654819Y-124619047D01*
X137654819Y-124619047D02*
X137797676Y-124714285D01*
X137797676Y-124714285D02*
X137892914Y-124809523D01*
X137892914Y-124809523D02*
X137940533Y-124904761D01*
X154089580Y-117312857D02*
X154137200Y-117360476D01*
X154137200Y-117360476D02*
X154184819Y-117503333D01*
X154184819Y-117503333D02*
X154184819Y-117598571D01*
X154184819Y-117598571D02*
X154137200Y-117741428D01*
X154137200Y-117741428D02*
X154041961Y-117836666D01*
X154041961Y-117836666D02*
X153946723Y-117884285D01*
X153946723Y-117884285D02*
X153756247Y-117931904D01*
X153756247Y-117931904D02*
X153613390Y-117931904D01*
X153613390Y-117931904D02*
X153422914Y-117884285D01*
X153422914Y-117884285D02*
X153327676Y-117836666D01*
X153327676Y-117836666D02*
X153232438Y-117741428D01*
X153232438Y-117741428D02*
X153184819Y-117598571D01*
X153184819Y-117598571D02*
X153184819Y-117503333D01*
X153184819Y-117503333D02*
X153232438Y-117360476D01*
X153232438Y-117360476D02*
X153280057Y-117312857D01*
X153280057Y-116931904D02*
X153232438Y-116884285D01*
X153232438Y-116884285D02*
X153184819Y-116789047D01*
X153184819Y-116789047D02*
X153184819Y-116550952D01*
X153184819Y-116550952D02*
X153232438Y-116455714D01*
X153232438Y-116455714D02*
X153280057Y-116408095D01*
X153280057Y-116408095D02*
X153375295Y-116360476D01*
X153375295Y-116360476D02*
X153470533Y-116360476D01*
X153470533Y-116360476D02*
X153613390Y-116408095D01*
X153613390Y-116408095D02*
X154184819Y-116979523D01*
X154184819Y-116979523D02*
X154184819Y-116360476D01*
X153184819Y-115741428D02*
X153184819Y-115646190D01*
X153184819Y-115646190D02*
X153232438Y-115550952D01*
X153232438Y-115550952D02*
X153280057Y-115503333D01*
X153280057Y-115503333D02*
X153375295Y-115455714D01*
X153375295Y-115455714D02*
X153565771Y-115408095D01*
X153565771Y-115408095D02*
X153803866Y-115408095D01*
X153803866Y-115408095D02*
X153994342Y-115455714D01*
X153994342Y-115455714D02*
X154089580Y-115503333D01*
X154089580Y-115503333D02*
X154137200Y-115550952D01*
X154137200Y-115550952D02*
X154184819Y-115646190D01*
X154184819Y-115646190D02*
X154184819Y-115741428D01*
X154184819Y-115741428D02*
X154137200Y-115836666D01*
X154137200Y-115836666D02*
X154089580Y-115884285D01*
X154089580Y-115884285D02*
X153994342Y-115931904D01*
X153994342Y-115931904D02*
X153803866Y-115979523D01*
X153803866Y-115979523D02*
X153565771Y-115979523D01*
X153565771Y-115979523D02*
X153375295Y-115931904D01*
X153375295Y-115931904D02*
X153280057Y-115884285D01*
X153280057Y-115884285D02*
X153232438Y-115836666D01*
X153232438Y-115836666D02*
X153184819Y-115741428D01*
X141253333Y-110329580D02*
X141205714Y-110377200D01*
X141205714Y-110377200D02*
X141062857Y-110424819D01*
X141062857Y-110424819D02*
X140967619Y-110424819D01*
X140967619Y-110424819D02*
X140824762Y-110377200D01*
X140824762Y-110377200D02*
X140729524Y-110281961D01*
X140729524Y-110281961D02*
X140681905Y-110186723D01*
X140681905Y-110186723D02*
X140634286Y-109996247D01*
X140634286Y-109996247D02*
X140634286Y-109853390D01*
X140634286Y-109853390D02*
X140681905Y-109662914D01*
X140681905Y-109662914D02*
X140729524Y-109567676D01*
X140729524Y-109567676D02*
X140824762Y-109472438D01*
X140824762Y-109472438D02*
X140967619Y-109424819D01*
X140967619Y-109424819D02*
X141062857Y-109424819D01*
X141062857Y-109424819D02*
X141205714Y-109472438D01*
X141205714Y-109472438D02*
X141253333Y-109520057D01*
X141634286Y-109520057D02*
X141681905Y-109472438D01*
X141681905Y-109472438D02*
X141777143Y-109424819D01*
X141777143Y-109424819D02*
X142015238Y-109424819D01*
X142015238Y-109424819D02*
X142110476Y-109472438D01*
X142110476Y-109472438D02*
X142158095Y-109520057D01*
X142158095Y-109520057D02*
X142205714Y-109615295D01*
X142205714Y-109615295D02*
X142205714Y-109710533D01*
X142205714Y-109710533D02*
X142158095Y-109853390D01*
X142158095Y-109853390D02*
X141586667Y-110424819D01*
X141586667Y-110424819D02*
X142205714Y-110424819D01*
X151283333Y-109794819D02*
X150950000Y-109318628D01*
X150711905Y-109794819D02*
X150711905Y-108794819D01*
X150711905Y-108794819D02*
X151092857Y-108794819D01*
X151092857Y-108794819D02*
X151188095Y-108842438D01*
X151188095Y-108842438D02*
X151235714Y-108890057D01*
X151235714Y-108890057D02*
X151283333Y-108985295D01*
X151283333Y-108985295D02*
X151283333Y-109128152D01*
X151283333Y-109128152D02*
X151235714Y-109223390D01*
X151235714Y-109223390D02*
X151188095Y-109271009D01*
X151188095Y-109271009D02*
X151092857Y-109318628D01*
X151092857Y-109318628D02*
X150711905Y-109318628D01*
X151616667Y-108794819D02*
X152235714Y-108794819D01*
X152235714Y-108794819D02*
X151902381Y-109175771D01*
X151902381Y-109175771D02*
X152045238Y-109175771D01*
X152045238Y-109175771D02*
X152140476Y-109223390D01*
X152140476Y-109223390D02*
X152188095Y-109271009D01*
X152188095Y-109271009D02*
X152235714Y-109366247D01*
X152235714Y-109366247D02*
X152235714Y-109604342D01*
X152235714Y-109604342D02*
X152188095Y-109699580D01*
X152188095Y-109699580D02*
X152140476Y-109747200D01*
X152140476Y-109747200D02*
X152045238Y-109794819D01*
X152045238Y-109794819D02*
X151759524Y-109794819D01*
X151759524Y-109794819D02*
X151664286Y-109747200D01*
X151664286Y-109747200D02*
X151616667Y-109699580D01*
D12*
X144494318Y-93929762D02*
X143224318Y-93929762D01*
X144373365Y-92599285D02*
X144433842Y-92659761D01*
X144433842Y-92659761D02*
X144494318Y-92841190D01*
X144494318Y-92841190D02*
X144494318Y-92962142D01*
X144494318Y-92962142D02*
X144433842Y-93143571D01*
X144433842Y-93143571D02*
X144312889Y-93264523D01*
X144312889Y-93264523D02*
X144191937Y-93325000D01*
X144191937Y-93325000D02*
X143950032Y-93385476D01*
X143950032Y-93385476D02*
X143768603Y-93385476D01*
X143768603Y-93385476D02*
X143526699Y-93325000D01*
X143526699Y-93325000D02*
X143405746Y-93264523D01*
X143405746Y-93264523D02*
X143284794Y-93143571D01*
X143284794Y-93143571D02*
X143224318Y-92962142D01*
X143224318Y-92962142D02*
X143224318Y-92841190D01*
X143224318Y-92841190D02*
X143284794Y-92659761D01*
X143284794Y-92659761D02*
X143345270Y-92599285D01*
X143224318Y-92175952D02*
X143224318Y-91389761D01*
X143224318Y-91389761D02*
X143708127Y-91813095D01*
X143708127Y-91813095D02*
X143708127Y-91631666D01*
X143708127Y-91631666D02*
X143768603Y-91510714D01*
X143768603Y-91510714D02*
X143829080Y-91450238D01*
X143829080Y-91450238D02*
X143950032Y-91389761D01*
X143950032Y-91389761D02*
X144252413Y-91389761D01*
X144252413Y-91389761D02*
X144373365Y-91450238D01*
X144373365Y-91450238D02*
X144433842Y-91510714D01*
X144433842Y-91510714D02*
X144494318Y-91631666D01*
X144494318Y-91631666D02*
X144494318Y-91994523D01*
X144494318Y-91994523D02*
X144433842Y-92115476D01*
X144433842Y-92115476D02*
X144373365Y-92175952D01*
D11*
X154977142Y-96149580D02*
X154929523Y-96197200D01*
X154929523Y-96197200D02*
X154786666Y-96244819D01*
X154786666Y-96244819D02*
X154691428Y-96244819D01*
X154691428Y-96244819D02*
X154548571Y-96197200D01*
X154548571Y-96197200D02*
X154453333Y-96101961D01*
X154453333Y-96101961D02*
X154405714Y-96006723D01*
X154405714Y-96006723D02*
X154358095Y-95816247D01*
X154358095Y-95816247D02*
X154358095Y-95673390D01*
X154358095Y-95673390D02*
X154405714Y-95482914D01*
X154405714Y-95482914D02*
X154453333Y-95387676D01*
X154453333Y-95387676D02*
X154548571Y-95292438D01*
X154548571Y-95292438D02*
X154691428Y-95244819D01*
X154691428Y-95244819D02*
X154786666Y-95244819D01*
X154786666Y-95244819D02*
X154929523Y-95292438D01*
X154929523Y-95292438D02*
X154977142Y-95340057D01*
X155929523Y-96244819D02*
X155358095Y-96244819D01*
X155643809Y-96244819D02*
X155643809Y-95244819D01*
X155643809Y-95244819D02*
X155548571Y-95387676D01*
X155548571Y-95387676D02*
X155453333Y-95482914D01*
X155453333Y-95482914D02*
X155358095Y-95530533D01*
X156262857Y-95244819D02*
X156881904Y-95244819D01*
X156881904Y-95244819D02*
X156548571Y-95625771D01*
X156548571Y-95625771D02*
X156691428Y-95625771D01*
X156691428Y-95625771D02*
X156786666Y-95673390D01*
X156786666Y-95673390D02*
X156834285Y-95721009D01*
X156834285Y-95721009D02*
X156881904Y-95816247D01*
X156881904Y-95816247D02*
X156881904Y-96054342D01*
X156881904Y-96054342D02*
X156834285Y-96149580D01*
X156834285Y-96149580D02*
X156786666Y-96197200D01*
X156786666Y-96197200D02*
X156691428Y-96244819D01*
X156691428Y-96244819D02*
X156405714Y-96244819D01*
X156405714Y-96244819D02*
X156310476Y-96197200D01*
X156310476Y-96197200D02*
X156262857Y-96149580D01*
X152824819Y-119636666D02*
X152348628Y-119969999D01*
X152824819Y-120208094D02*
X151824819Y-120208094D01*
X151824819Y-120208094D02*
X151824819Y-119827142D01*
X151824819Y-119827142D02*
X151872438Y-119731904D01*
X151872438Y-119731904D02*
X151920057Y-119684285D01*
X151920057Y-119684285D02*
X152015295Y-119636666D01*
X152015295Y-119636666D02*
X152158152Y-119636666D01*
X152158152Y-119636666D02*
X152253390Y-119684285D01*
X152253390Y-119684285D02*
X152301009Y-119731904D01*
X152301009Y-119731904D02*
X152348628Y-119827142D01*
X152348628Y-119827142D02*
X152348628Y-120208094D01*
X151824819Y-118779523D02*
X151824819Y-118969999D01*
X151824819Y-118969999D02*
X151872438Y-119065237D01*
X151872438Y-119065237D02*
X151920057Y-119112856D01*
X151920057Y-119112856D02*
X152062914Y-119208094D01*
X152062914Y-119208094D02*
X152253390Y-119255713D01*
X152253390Y-119255713D02*
X152634342Y-119255713D01*
X152634342Y-119255713D02*
X152729580Y-119208094D01*
X152729580Y-119208094D02*
X152777200Y-119160475D01*
X152777200Y-119160475D02*
X152824819Y-119065237D01*
X152824819Y-119065237D02*
X152824819Y-118874761D01*
X152824819Y-118874761D02*
X152777200Y-118779523D01*
X152777200Y-118779523D02*
X152729580Y-118731904D01*
X152729580Y-118731904D02*
X152634342Y-118684285D01*
X152634342Y-118684285D02*
X152396247Y-118684285D01*
X152396247Y-118684285D02*
X152301009Y-118731904D01*
X152301009Y-118731904D02*
X152253390Y-118779523D01*
X152253390Y-118779523D02*
X152205771Y-118874761D01*
X152205771Y-118874761D02*
X152205771Y-119065237D01*
X152205771Y-119065237D02*
X152253390Y-119160475D01*
X152253390Y-119160475D02*
X152301009Y-119208094D01*
X152301009Y-119208094D02*
X152396247Y-119255713D01*
X152139580Y-91246666D02*
X152187200Y-91294285D01*
X152187200Y-91294285D02*
X152234819Y-91437142D01*
X152234819Y-91437142D02*
X152234819Y-91532380D01*
X152234819Y-91532380D02*
X152187200Y-91675237D01*
X152187200Y-91675237D02*
X152091961Y-91770475D01*
X152091961Y-91770475D02*
X151996723Y-91818094D01*
X151996723Y-91818094D02*
X151806247Y-91865713D01*
X151806247Y-91865713D02*
X151663390Y-91865713D01*
X151663390Y-91865713D02*
X151472914Y-91818094D01*
X151472914Y-91818094D02*
X151377676Y-91770475D01*
X151377676Y-91770475D02*
X151282438Y-91675237D01*
X151282438Y-91675237D02*
X151234819Y-91532380D01*
X151234819Y-91532380D02*
X151234819Y-91437142D01*
X151234819Y-91437142D02*
X151282438Y-91294285D01*
X151282438Y-91294285D02*
X151330057Y-91246666D01*
X151663390Y-90675237D02*
X151615771Y-90770475D01*
X151615771Y-90770475D02*
X151568152Y-90818094D01*
X151568152Y-90818094D02*
X151472914Y-90865713D01*
X151472914Y-90865713D02*
X151425295Y-90865713D01*
X151425295Y-90865713D02*
X151330057Y-90818094D01*
X151330057Y-90818094D02*
X151282438Y-90770475D01*
X151282438Y-90770475D02*
X151234819Y-90675237D01*
X151234819Y-90675237D02*
X151234819Y-90484761D01*
X151234819Y-90484761D02*
X151282438Y-90389523D01*
X151282438Y-90389523D02*
X151330057Y-90341904D01*
X151330057Y-90341904D02*
X151425295Y-90294285D01*
X151425295Y-90294285D02*
X151472914Y-90294285D01*
X151472914Y-90294285D02*
X151568152Y-90341904D01*
X151568152Y-90341904D02*
X151615771Y-90389523D01*
X151615771Y-90389523D02*
X151663390Y-90484761D01*
X151663390Y-90484761D02*
X151663390Y-90675237D01*
X151663390Y-90675237D02*
X151711009Y-90770475D01*
X151711009Y-90770475D02*
X151758628Y-90818094D01*
X151758628Y-90818094D02*
X151853866Y-90865713D01*
X151853866Y-90865713D02*
X152044342Y-90865713D01*
X152044342Y-90865713D02*
X152139580Y-90818094D01*
X152139580Y-90818094D02*
X152187200Y-90770475D01*
X152187200Y-90770475D02*
X152234819Y-90675237D01*
X152234819Y-90675237D02*
X152234819Y-90484761D01*
X152234819Y-90484761D02*
X152187200Y-90389523D01*
X152187200Y-90389523D02*
X152139580Y-90341904D01*
X152139580Y-90341904D02*
X152044342Y-90294285D01*
X152044342Y-90294285D02*
X151853866Y-90294285D01*
X151853866Y-90294285D02*
X151758628Y-90341904D01*
X151758628Y-90341904D02*
X151711009Y-90389523D01*
X151711009Y-90389523D02*
X151663390Y-90484761D01*
X139194819Y-95741666D02*
X139194819Y-96217856D01*
X139194819Y-96217856D02*
X138194819Y-96217856D01*
X138194819Y-95503570D02*
X138194819Y-94884523D01*
X138194819Y-94884523D02*
X138575771Y-95217856D01*
X138575771Y-95217856D02*
X138575771Y-95074999D01*
X138575771Y-95074999D02*
X138623390Y-94979761D01*
X138623390Y-94979761D02*
X138671009Y-94932142D01*
X138671009Y-94932142D02*
X138766247Y-94884523D01*
X138766247Y-94884523D02*
X139004342Y-94884523D01*
X139004342Y-94884523D02*
X139099580Y-94932142D01*
X139099580Y-94932142D02*
X139147200Y-94979761D01*
X139147200Y-94979761D02*
X139194819Y-95074999D01*
X139194819Y-95074999D02*
X139194819Y-95360713D01*
X139194819Y-95360713D02*
X139147200Y-95455951D01*
X139147200Y-95455951D02*
X139099580Y-95503570D01*
X155847142Y-98069580D02*
X155799523Y-98117200D01*
X155799523Y-98117200D02*
X155656666Y-98164819D01*
X155656666Y-98164819D02*
X155561428Y-98164819D01*
X155561428Y-98164819D02*
X155418571Y-98117200D01*
X155418571Y-98117200D02*
X155323333Y-98021961D01*
X155323333Y-98021961D02*
X155275714Y-97926723D01*
X155275714Y-97926723D02*
X155228095Y-97736247D01*
X155228095Y-97736247D02*
X155228095Y-97593390D01*
X155228095Y-97593390D02*
X155275714Y-97402914D01*
X155275714Y-97402914D02*
X155323333Y-97307676D01*
X155323333Y-97307676D02*
X155418571Y-97212438D01*
X155418571Y-97212438D02*
X155561428Y-97164819D01*
X155561428Y-97164819D02*
X155656666Y-97164819D01*
X155656666Y-97164819D02*
X155799523Y-97212438D01*
X155799523Y-97212438D02*
X155847142Y-97260057D01*
X156799523Y-98164819D02*
X156228095Y-98164819D01*
X156513809Y-98164819D02*
X156513809Y-97164819D01*
X156513809Y-97164819D02*
X156418571Y-97307676D01*
X156418571Y-97307676D02*
X156323333Y-97402914D01*
X156323333Y-97402914D02*
X156228095Y-97450533D01*
X157656666Y-97498152D02*
X157656666Y-98164819D01*
X157418571Y-97117200D02*
X157180476Y-97831485D01*
X157180476Y-97831485D02*
X157799523Y-97831485D01*
X152954819Y-116726666D02*
X152478628Y-117059999D01*
X152954819Y-117298094D02*
X151954819Y-117298094D01*
X151954819Y-117298094D02*
X151954819Y-116917142D01*
X151954819Y-116917142D02*
X152002438Y-116821904D01*
X152002438Y-116821904D02*
X152050057Y-116774285D01*
X152050057Y-116774285D02*
X152145295Y-116726666D01*
X152145295Y-116726666D02*
X152288152Y-116726666D01*
X152288152Y-116726666D02*
X152383390Y-116774285D01*
X152383390Y-116774285D02*
X152431009Y-116821904D01*
X152431009Y-116821904D02*
X152478628Y-116917142D01*
X152478628Y-116917142D02*
X152478628Y-117298094D01*
X152383390Y-116155237D02*
X152335771Y-116250475D01*
X152335771Y-116250475D02*
X152288152Y-116298094D01*
X152288152Y-116298094D02*
X152192914Y-116345713D01*
X152192914Y-116345713D02*
X152145295Y-116345713D01*
X152145295Y-116345713D02*
X152050057Y-116298094D01*
X152050057Y-116298094D02*
X152002438Y-116250475D01*
X152002438Y-116250475D02*
X151954819Y-116155237D01*
X151954819Y-116155237D02*
X151954819Y-115964761D01*
X151954819Y-115964761D02*
X152002438Y-115869523D01*
X152002438Y-115869523D02*
X152050057Y-115821904D01*
X152050057Y-115821904D02*
X152145295Y-115774285D01*
X152145295Y-115774285D02*
X152192914Y-115774285D01*
X152192914Y-115774285D02*
X152288152Y-115821904D01*
X152288152Y-115821904D02*
X152335771Y-115869523D01*
X152335771Y-115869523D02*
X152383390Y-115964761D01*
X152383390Y-115964761D02*
X152383390Y-116155237D01*
X152383390Y-116155237D02*
X152431009Y-116250475D01*
X152431009Y-116250475D02*
X152478628Y-116298094D01*
X152478628Y-116298094D02*
X152573866Y-116345713D01*
X152573866Y-116345713D02*
X152764342Y-116345713D01*
X152764342Y-116345713D02*
X152859580Y-116298094D01*
X152859580Y-116298094D02*
X152907200Y-116250475D01*
X152907200Y-116250475D02*
X152954819Y-116155237D01*
X152954819Y-116155237D02*
X152954819Y-115964761D01*
X152954819Y-115964761D02*
X152907200Y-115869523D01*
X152907200Y-115869523D02*
X152859580Y-115821904D01*
X152859580Y-115821904D02*
X152764342Y-115774285D01*
X152764342Y-115774285D02*
X152573866Y-115774285D01*
X152573866Y-115774285D02*
X152478628Y-115821904D01*
X152478628Y-115821904D02*
X152431009Y-115869523D01*
X152431009Y-115869523D02*
X152383390Y-115964761D01*
D12*
X140470237Y-120174318D02*
X140470237Y-118904318D01*
X141800714Y-120053365D02*
X141740238Y-120113842D01*
X141740238Y-120113842D02*
X141558809Y-120174318D01*
X141558809Y-120174318D02*
X141437857Y-120174318D01*
X141437857Y-120174318D02*
X141256428Y-120113842D01*
X141256428Y-120113842D02*
X141135476Y-119992889D01*
X141135476Y-119992889D02*
X141074999Y-119871937D01*
X141074999Y-119871937D02*
X141014523Y-119630032D01*
X141014523Y-119630032D02*
X141014523Y-119448603D01*
X141014523Y-119448603D02*
X141074999Y-119206699D01*
X141074999Y-119206699D02*
X141135476Y-119085746D01*
X141135476Y-119085746D02*
X141256428Y-118964794D01*
X141256428Y-118964794D02*
X141437857Y-118904318D01*
X141437857Y-118904318D02*
X141558809Y-118904318D01*
X141558809Y-118904318D02*
X141740238Y-118964794D01*
X141740238Y-118964794D02*
X141800714Y-119025270D01*
X143010238Y-120174318D02*
X142284523Y-120174318D01*
X142647380Y-120174318D02*
X142647380Y-118904318D01*
X142647380Y-118904318D02*
X142526428Y-119085746D01*
X142526428Y-119085746D02*
X142405476Y-119206699D01*
X142405476Y-119206699D02*
X142284523Y-119267175D01*
X142740237Y-116404318D02*
X142740237Y-115134318D01*
X144070714Y-116283365D02*
X144010238Y-116343842D01*
X144010238Y-116343842D02*
X143828809Y-116404318D01*
X143828809Y-116404318D02*
X143707857Y-116404318D01*
X143707857Y-116404318D02*
X143526428Y-116343842D01*
X143526428Y-116343842D02*
X143405476Y-116222889D01*
X143405476Y-116222889D02*
X143344999Y-116101937D01*
X143344999Y-116101937D02*
X143284523Y-115860032D01*
X143284523Y-115860032D02*
X143284523Y-115678603D01*
X143284523Y-115678603D02*
X143344999Y-115436699D01*
X143344999Y-115436699D02*
X143405476Y-115315746D01*
X143405476Y-115315746D02*
X143526428Y-115194794D01*
X143526428Y-115194794D02*
X143707857Y-115134318D01*
X143707857Y-115134318D02*
X143828809Y-115134318D01*
X143828809Y-115134318D02*
X144010238Y-115194794D01*
X144010238Y-115194794D02*
X144070714Y-115255270D01*
X145159285Y-115557651D02*
X145159285Y-116404318D01*
X144856904Y-115073842D02*
X144554523Y-115980984D01*
X144554523Y-115980984D02*
X145340714Y-115980984D01*
D11*
X153539580Y-91346666D02*
X153587200Y-91394285D01*
X153587200Y-91394285D02*
X153634819Y-91537142D01*
X153634819Y-91537142D02*
X153634819Y-91632380D01*
X153634819Y-91632380D02*
X153587200Y-91775237D01*
X153587200Y-91775237D02*
X153491961Y-91870475D01*
X153491961Y-91870475D02*
X153396723Y-91918094D01*
X153396723Y-91918094D02*
X153206247Y-91965713D01*
X153206247Y-91965713D02*
X153063390Y-91965713D01*
X153063390Y-91965713D02*
X152872914Y-91918094D01*
X152872914Y-91918094D02*
X152777676Y-91870475D01*
X152777676Y-91870475D02*
X152682438Y-91775237D01*
X152682438Y-91775237D02*
X152634819Y-91632380D01*
X152634819Y-91632380D02*
X152634819Y-91537142D01*
X152634819Y-91537142D02*
X152682438Y-91394285D01*
X152682438Y-91394285D02*
X152730057Y-91346666D01*
X153634819Y-90870475D02*
X153634819Y-90679999D01*
X153634819Y-90679999D02*
X153587200Y-90584761D01*
X153587200Y-90584761D02*
X153539580Y-90537142D01*
X153539580Y-90537142D02*
X153396723Y-90441904D01*
X153396723Y-90441904D02*
X153206247Y-90394285D01*
X153206247Y-90394285D02*
X152825295Y-90394285D01*
X152825295Y-90394285D02*
X152730057Y-90441904D01*
X152730057Y-90441904D02*
X152682438Y-90489523D01*
X152682438Y-90489523D02*
X152634819Y-90584761D01*
X152634819Y-90584761D02*
X152634819Y-90775237D01*
X152634819Y-90775237D02*
X152682438Y-90870475D01*
X152682438Y-90870475D02*
X152730057Y-90918094D01*
X152730057Y-90918094D02*
X152825295Y-90965713D01*
X152825295Y-90965713D02*
X153063390Y-90965713D01*
X153063390Y-90965713D02*
X153158628Y-90918094D01*
X153158628Y-90918094D02*
X153206247Y-90870475D01*
X153206247Y-90870475D02*
X153253866Y-90775237D01*
X153253866Y-90775237D02*
X153253866Y-90584761D01*
X153253866Y-90584761D02*
X153206247Y-90489523D01*
X153206247Y-90489523D02*
X153158628Y-90441904D01*
X153158628Y-90441904D02*
X153063390Y-90394285D01*
X155179580Y-120312857D02*
X155227200Y-120360476D01*
X155227200Y-120360476D02*
X155274819Y-120503333D01*
X155274819Y-120503333D02*
X155274819Y-120598571D01*
X155274819Y-120598571D02*
X155227200Y-120741428D01*
X155227200Y-120741428D02*
X155131961Y-120836666D01*
X155131961Y-120836666D02*
X155036723Y-120884285D01*
X155036723Y-120884285D02*
X154846247Y-120931904D01*
X154846247Y-120931904D02*
X154703390Y-120931904D01*
X154703390Y-120931904D02*
X154512914Y-120884285D01*
X154512914Y-120884285D02*
X154417676Y-120836666D01*
X154417676Y-120836666D02*
X154322438Y-120741428D01*
X154322438Y-120741428D02*
X154274819Y-120598571D01*
X154274819Y-120598571D02*
X154274819Y-120503333D01*
X154274819Y-120503333D02*
X154322438Y-120360476D01*
X154322438Y-120360476D02*
X154370057Y-120312857D01*
X155274819Y-119360476D02*
X155274819Y-119931904D01*
X155274819Y-119646190D02*
X154274819Y-119646190D01*
X154274819Y-119646190D02*
X154417676Y-119741428D01*
X154417676Y-119741428D02*
X154512914Y-119836666D01*
X154512914Y-119836666D02*
X154560533Y-119931904D01*
X155274819Y-118884285D02*
X155274819Y-118693809D01*
X155274819Y-118693809D02*
X155227200Y-118598571D01*
X155227200Y-118598571D02*
X155179580Y-118550952D01*
X155179580Y-118550952D02*
X155036723Y-118455714D01*
X155036723Y-118455714D02*
X154846247Y-118408095D01*
X154846247Y-118408095D02*
X154465295Y-118408095D01*
X154465295Y-118408095D02*
X154370057Y-118455714D01*
X154370057Y-118455714D02*
X154322438Y-118503333D01*
X154322438Y-118503333D02*
X154274819Y-118598571D01*
X154274819Y-118598571D02*
X154274819Y-118789047D01*
X154274819Y-118789047D02*
X154322438Y-118884285D01*
X154322438Y-118884285D02*
X154370057Y-118931904D01*
X154370057Y-118931904D02*
X154465295Y-118979523D01*
X154465295Y-118979523D02*
X154703390Y-118979523D01*
X154703390Y-118979523D02*
X154798628Y-118931904D01*
X154798628Y-118931904D02*
X154846247Y-118884285D01*
X154846247Y-118884285D02*
X154893866Y-118789047D01*
X154893866Y-118789047D02*
X154893866Y-118598571D01*
X154893866Y-118598571D02*
X154846247Y-118503333D01*
X154846247Y-118503333D02*
X154798628Y-118455714D01*
X154798628Y-118455714D02*
X154703390Y-118408095D01*
X142213333Y-94049580D02*
X142165714Y-94097200D01*
X142165714Y-94097200D02*
X142022857Y-94144819D01*
X142022857Y-94144819D02*
X141927619Y-94144819D01*
X141927619Y-94144819D02*
X141784762Y-94097200D01*
X141784762Y-94097200D02*
X141689524Y-94001961D01*
X141689524Y-94001961D02*
X141641905Y-93906723D01*
X141641905Y-93906723D02*
X141594286Y-93716247D01*
X141594286Y-93716247D02*
X141594286Y-93573390D01*
X141594286Y-93573390D02*
X141641905Y-93382914D01*
X141641905Y-93382914D02*
X141689524Y-93287676D01*
X141689524Y-93287676D02*
X141784762Y-93192438D01*
X141784762Y-93192438D02*
X141927619Y-93144819D01*
X141927619Y-93144819D02*
X142022857Y-93144819D01*
X142022857Y-93144819D02*
X142165714Y-93192438D01*
X142165714Y-93192438D02*
X142213333Y-93240057D01*
X143070476Y-93478152D02*
X143070476Y-94144819D01*
X142832381Y-93097200D02*
X142594286Y-93811485D01*
X142594286Y-93811485D02*
X143213333Y-93811485D01*
X139657142Y-94019580D02*
X139609523Y-94067200D01*
X139609523Y-94067200D02*
X139466666Y-94114819D01*
X139466666Y-94114819D02*
X139371428Y-94114819D01*
X139371428Y-94114819D02*
X139228571Y-94067200D01*
X139228571Y-94067200D02*
X139133333Y-93971961D01*
X139133333Y-93971961D02*
X139085714Y-93876723D01*
X139085714Y-93876723D02*
X139038095Y-93686247D01*
X139038095Y-93686247D02*
X139038095Y-93543390D01*
X139038095Y-93543390D02*
X139085714Y-93352914D01*
X139085714Y-93352914D02*
X139133333Y-93257676D01*
X139133333Y-93257676D02*
X139228571Y-93162438D01*
X139228571Y-93162438D02*
X139371428Y-93114819D01*
X139371428Y-93114819D02*
X139466666Y-93114819D01*
X139466666Y-93114819D02*
X139609523Y-93162438D01*
X139609523Y-93162438D02*
X139657142Y-93210057D01*
X140609523Y-94114819D02*
X140038095Y-94114819D01*
X140323809Y-94114819D02*
X140323809Y-93114819D01*
X140323809Y-93114819D02*
X140228571Y-93257676D01*
X140228571Y-93257676D02*
X140133333Y-93352914D01*
X140133333Y-93352914D02*
X140038095Y-93400533D01*
X141180952Y-93543390D02*
X141085714Y-93495771D01*
X141085714Y-93495771D02*
X141038095Y-93448152D01*
X141038095Y-93448152D02*
X140990476Y-93352914D01*
X140990476Y-93352914D02*
X140990476Y-93305295D01*
X140990476Y-93305295D02*
X141038095Y-93210057D01*
X141038095Y-93210057D02*
X141085714Y-93162438D01*
X141085714Y-93162438D02*
X141180952Y-93114819D01*
X141180952Y-93114819D02*
X141371428Y-93114819D01*
X141371428Y-93114819D02*
X141466666Y-93162438D01*
X141466666Y-93162438D02*
X141514285Y-93210057D01*
X141514285Y-93210057D02*
X141561904Y-93305295D01*
X141561904Y-93305295D02*
X141561904Y-93352914D01*
X141561904Y-93352914D02*
X141514285Y-93448152D01*
X141514285Y-93448152D02*
X141466666Y-93495771D01*
X141466666Y-93495771D02*
X141371428Y-93543390D01*
X141371428Y-93543390D02*
X141180952Y-93543390D01*
X141180952Y-93543390D02*
X141085714Y-93591009D01*
X141085714Y-93591009D02*
X141038095Y-93638628D01*
X141038095Y-93638628D02*
X140990476Y-93733866D01*
X140990476Y-93733866D02*
X140990476Y-93924342D01*
X140990476Y-93924342D02*
X141038095Y-94019580D01*
X141038095Y-94019580D02*
X141085714Y-94067200D01*
X141085714Y-94067200D02*
X141180952Y-94114819D01*
X141180952Y-94114819D02*
X141371428Y-94114819D01*
X141371428Y-94114819D02*
X141466666Y-94067200D01*
X141466666Y-94067200D02*
X141514285Y-94019580D01*
X141514285Y-94019580D02*
X141561904Y-93924342D01*
X141561904Y-93924342D02*
X141561904Y-93733866D01*
X141561904Y-93733866D02*
X141514285Y-93638628D01*
X141514285Y-93638628D02*
X141466666Y-93591009D01*
X141466666Y-93591009D02*
X141371428Y-93543390D01*
X141199580Y-100422857D02*
X141247200Y-100470476D01*
X141247200Y-100470476D02*
X141294819Y-100613333D01*
X141294819Y-100613333D02*
X141294819Y-100708571D01*
X141294819Y-100708571D02*
X141247200Y-100851428D01*
X141247200Y-100851428D02*
X141151961Y-100946666D01*
X141151961Y-100946666D02*
X141056723Y-100994285D01*
X141056723Y-100994285D02*
X140866247Y-101041904D01*
X140866247Y-101041904D02*
X140723390Y-101041904D01*
X140723390Y-101041904D02*
X140532914Y-100994285D01*
X140532914Y-100994285D02*
X140437676Y-100946666D01*
X140437676Y-100946666D02*
X140342438Y-100851428D01*
X140342438Y-100851428D02*
X140294819Y-100708571D01*
X140294819Y-100708571D02*
X140294819Y-100613333D01*
X140294819Y-100613333D02*
X140342438Y-100470476D01*
X140342438Y-100470476D02*
X140390057Y-100422857D01*
X141294819Y-99470476D02*
X141294819Y-100041904D01*
X141294819Y-99756190D02*
X140294819Y-99756190D01*
X140294819Y-99756190D02*
X140437676Y-99851428D01*
X140437676Y-99851428D02*
X140532914Y-99946666D01*
X140532914Y-99946666D02*
X140580533Y-100041904D01*
X141294819Y-98518095D02*
X141294819Y-99089523D01*
X141294819Y-98803809D02*
X140294819Y-98803809D01*
X140294819Y-98803809D02*
X140437676Y-98899047D01*
X140437676Y-98899047D02*
X140532914Y-98994285D01*
X140532914Y-98994285D02*
X140580533Y-99089523D01*
X153103333Y-94914819D02*
X152770000Y-94438628D01*
X152531905Y-94914819D02*
X152531905Y-93914819D01*
X152531905Y-93914819D02*
X152912857Y-93914819D01*
X152912857Y-93914819D02*
X153008095Y-93962438D01*
X153008095Y-93962438D02*
X153055714Y-94010057D01*
X153055714Y-94010057D02*
X153103333Y-94105295D01*
X153103333Y-94105295D02*
X153103333Y-94248152D01*
X153103333Y-94248152D02*
X153055714Y-94343390D01*
X153055714Y-94343390D02*
X153008095Y-94391009D01*
X153008095Y-94391009D02*
X152912857Y-94438628D01*
X152912857Y-94438628D02*
X152531905Y-94438628D01*
X153484286Y-94010057D02*
X153531905Y-93962438D01*
X153531905Y-93962438D02*
X153627143Y-93914819D01*
X153627143Y-93914819D02*
X153865238Y-93914819D01*
X153865238Y-93914819D02*
X153960476Y-93962438D01*
X153960476Y-93962438D02*
X154008095Y-94010057D01*
X154008095Y-94010057D02*
X154055714Y-94105295D01*
X154055714Y-94105295D02*
X154055714Y-94200533D01*
X154055714Y-94200533D02*
X154008095Y-94343390D01*
X154008095Y-94343390D02*
X153436667Y-94914819D01*
X153436667Y-94914819D02*
X154055714Y-94914819D01*
X144043333Y-87299104D02*
X144519523Y-87299104D01*
X143948095Y-87584819D02*
X144281428Y-86584819D01*
X144281428Y-86584819D02*
X144614761Y-87584819D01*
X144948095Y-87061009D02*
X145281428Y-87061009D01*
X145424285Y-87584819D02*
X144948095Y-87584819D01*
X144948095Y-87584819D02*
X144948095Y-86584819D01*
X144948095Y-86584819D02*
X145424285Y-86584819D01*
X146376666Y-87584819D02*
X145805238Y-87584819D01*
X146090952Y-87584819D02*
X146090952Y-86584819D01*
X146090952Y-86584819D02*
X145995714Y-86727676D01*
X145995714Y-86727676D02*
X145900476Y-86822914D01*
X145900476Y-86822914D02*
X145805238Y-86870533D01*
X150039580Y-104082857D02*
X150087200Y-104130476D01*
X150087200Y-104130476D02*
X150134819Y-104273333D01*
X150134819Y-104273333D02*
X150134819Y-104368571D01*
X150134819Y-104368571D02*
X150087200Y-104511428D01*
X150087200Y-104511428D02*
X149991961Y-104606666D01*
X149991961Y-104606666D02*
X149896723Y-104654285D01*
X149896723Y-104654285D02*
X149706247Y-104701904D01*
X149706247Y-104701904D02*
X149563390Y-104701904D01*
X149563390Y-104701904D02*
X149372914Y-104654285D01*
X149372914Y-104654285D02*
X149277676Y-104606666D01*
X149277676Y-104606666D02*
X149182438Y-104511428D01*
X149182438Y-104511428D02*
X149134819Y-104368571D01*
X149134819Y-104368571D02*
X149134819Y-104273333D01*
X149134819Y-104273333D02*
X149182438Y-104130476D01*
X149182438Y-104130476D02*
X149230057Y-104082857D01*
X150134819Y-103130476D02*
X150134819Y-103701904D01*
X150134819Y-103416190D02*
X149134819Y-103416190D01*
X149134819Y-103416190D02*
X149277676Y-103511428D01*
X149277676Y-103511428D02*
X149372914Y-103606666D01*
X149372914Y-103606666D02*
X149420533Y-103701904D01*
X149134819Y-102273333D02*
X149134819Y-102463809D01*
X149134819Y-102463809D02*
X149182438Y-102559047D01*
X149182438Y-102559047D02*
X149230057Y-102606666D01*
X149230057Y-102606666D02*
X149372914Y-102701904D01*
X149372914Y-102701904D02*
X149563390Y-102749523D01*
X149563390Y-102749523D02*
X149944342Y-102749523D01*
X149944342Y-102749523D02*
X150039580Y-102701904D01*
X150039580Y-102701904D02*
X150087200Y-102654285D01*
X150087200Y-102654285D02*
X150134819Y-102559047D01*
X150134819Y-102559047D02*
X150134819Y-102368571D01*
X150134819Y-102368571D02*
X150087200Y-102273333D01*
X150087200Y-102273333D02*
X150039580Y-102225714D01*
X150039580Y-102225714D02*
X149944342Y-102178095D01*
X149944342Y-102178095D02*
X149706247Y-102178095D01*
X149706247Y-102178095D02*
X149611009Y-102225714D01*
X149611009Y-102225714D02*
X149563390Y-102273333D01*
X149563390Y-102273333D02*
X149515771Y-102368571D01*
X149515771Y-102368571D02*
X149515771Y-102559047D01*
X149515771Y-102559047D02*
X149563390Y-102654285D01*
X149563390Y-102654285D02*
X149611009Y-102701904D01*
X149611009Y-102701904D02*
X149706247Y-102749523D01*
X151347142Y-110964819D02*
X151013809Y-110488628D01*
X150775714Y-110964819D02*
X150775714Y-109964819D01*
X150775714Y-109964819D02*
X151156666Y-109964819D01*
X151156666Y-109964819D02*
X151251904Y-110012438D01*
X151251904Y-110012438D02*
X151299523Y-110060057D01*
X151299523Y-110060057D02*
X151347142Y-110155295D01*
X151347142Y-110155295D02*
X151347142Y-110298152D01*
X151347142Y-110298152D02*
X151299523Y-110393390D01*
X151299523Y-110393390D02*
X151251904Y-110441009D01*
X151251904Y-110441009D02*
X151156666Y-110488628D01*
X151156666Y-110488628D02*
X150775714Y-110488628D01*
X152299523Y-110964819D02*
X151728095Y-110964819D01*
X152013809Y-110964819D02*
X152013809Y-109964819D01*
X152013809Y-109964819D02*
X151918571Y-110107676D01*
X151918571Y-110107676D02*
X151823333Y-110202914D01*
X151823333Y-110202914D02*
X151728095Y-110250533D01*
X152918571Y-109964819D02*
X153013809Y-109964819D01*
X153013809Y-109964819D02*
X153109047Y-110012438D01*
X153109047Y-110012438D02*
X153156666Y-110060057D01*
X153156666Y-110060057D02*
X153204285Y-110155295D01*
X153204285Y-110155295D02*
X153251904Y-110345771D01*
X153251904Y-110345771D02*
X153251904Y-110583866D01*
X153251904Y-110583866D02*
X153204285Y-110774342D01*
X153204285Y-110774342D02*
X153156666Y-110869580D01*
X153156666Y-110869580D02*
X153109047Y-110917200D01*
X153109047Y-110917200D02*
X153013809Y-110964819D01*
X153013809Y-110964819D02*
X152918571Y-110964819D01*
X152918571Y-110964819D02*
X152823333Y-110917200D01*
X152823333Y-110917200D02*
X152775714Y-110869580D01*
X152775714Y-110869580D02*
X152728095Y-110774342D01*
X152728095Y-110774342D02*
X152680476Y-110583866D01*
X152680476Y-110583866D02*
X152680476Y-110345771D01*
X152680476Y-110345771D02*
X152728095Y-110155295D01*
X152728095Y-110155295D02*
X152775714Y-110060057D01*
X152775714Y-110060057D02*
X152823333Y-110012438D01*
X152823333Y-110012438D02*
X152918571Y-109964819D01*
X147233333Y-91474819D02*
X146757143Y-91474819D01*
X146757143Y-91474819D02*
X146757143Y-90474819D01*
X148090476Y-91474819D02*
X147519048Y-91474819D01*
X147804762Y-91474819D02*
X147804762Y-90474819D01*
X147804762Y-90474819D02*
X147709524Y-90617676D01*
X147709524Y-90617676D02*
X147614286Y-90712914D01*
X147614286Y-90712914D02*
X147519048Y-90760533D01*
X151409580Y-102742857D02*
X151457200Y-102790476D01*
X151457200Y-102790476D02*
X151504819Y-102933333D01*
X151504819Y-102933333D02*
X151504819Y-103028571D01*
X151504819Y-103028571D02*
X151457200Y-103171428D01*
X151457200Y-103171428D02*
X151361961Y-103266666D01*
X151361961Y-103266666D02*
X151266723Y-103314285D01*
X151266723Y-103314285D02*
X151076247Y-103361904D01*
X151076247Y-103361904D02*
X150933390Y-103361904D01*
X150933390Y-103361904D02*
X150742914Y-103314285D01*
X150742914Y-103314285D02*
X150647676Y-103266666D01*
X150647676Y-103266666D02*
X150552438Y-103171428D01*
X150552438Y-103171428D02*
X150504819Y-103028571D01*
X150504819Y-103028571D02*
X150504819Y-102933333D01*
X150504819Y-102933333D02*
X150552438Y-102790476D01*
X150552438Y-102790476D02*
X150600057Y-102742857D01*
X151504819Y-101790476D02*
X151504819Y-102361904D01*
X151504819Y-102076190D02*
X150504819Y-102076190D01*
X150504819Y-102076190D02*
X150647676Y-102171428D01*
X150647676Y-102171428D02*
X150742914Y-102266666D01*
X150742914Y-102266666D02*
X150790533Y-102361904D01*
X150504819Y-100885714D02*
X150504819Y-101361904D01*
X150504819Y-101361904D02*
X150981009Y-101409523D01*
X150981009Y-101409523D02*
X150933390Y-101361904D01*
X150933390Y-101361904D02*
X150885771Y-101266666D01*
X150885771Y-101266666D02*
X150885771Y-101028571D01*
X150885771Y-101028571D02*
X150933390Y-100933333D01*
X150933390Y-100933333D02*
X150981009Y-100885714D01*
X150981009Y-100885714D02*
X151076247Y-100838095D01*
X151076247Y-100838095D02*
X151314342Y-100838095D01*
X151314342Y-100838095D02*
X151409580Y-100885714D01*
X151409580Y-100885714D02*
X151457200Y-100933333D01*
X151457200Y-100933333D02*
X151504819Y-101028571D01*
X151504819Y-101028571D02*
X151504819Y-101266666D01*
X151504819Y-101266666D02*
X151457200Y-101361904D01*
X151457200Y-101361904D02*
X151409580Y-101409523D01*
X143017142Y-99049580D02*
X142969523Y-99097200D01*
X142969523Y-99097200D02*
X142826666Y-99144819D01*
X142826666Y-99144819D02*
X142731428Y-99144819D01*
X142731428Y-99144819D02*
X142588571Y-99097200D01*
X142588571Y-99097200D02*
X142493333Y-99001961D01*
X142493333Y-99001961D02*
X142445714Y-98906723D01*
X142445714Y-98906723D02*
X142398095Y-98716247D01*
X142398095Y-98716247D02*
X142398095Y-98573390D01*
X142398095Y-98573390D02*
X142445714Y-98382914D01*
X142445714Y-98382914D02*
X142493333Y-98287676D01*
X142493333Y-98287676D02*
X142588571Y-98192438D01*
X142588571Y-98192438D02*
X142731428Y-98144819D01*
X142731428Y-98144819D02*
X142826666Y-98144819D01*
X142826666Y-98144819D02*
X142969523Y-98192438D01*
X142969523Y-98192438D02*
X143017142Y-98240057D01*
X143969523Y-99144819D02*
X143398095Y-99144819D01*
X143683809Y-99144819D02*
X143683809Y-98144819D01*
X143683809Y-98144819D02*
X143588571Y-98287676D01*
X143588571Y-98287676D02*
X143493333Y-98382914D01*
X143493333Y-98382914D02*
X143398095Y-98430533D01*
X144302857Y-98144819D02*
X144969523Y-98144819D01*
X144969523Y-98144819D02*
X144540952Y-99144819D01*
X157059580Y-99276666D02*
X157107200Y-99324285D01*
X157107200Y-99324285D02*
X157154819Y-99467142D01*
X157154819Y-99467142D02*
X157154819Y-99562380D01*
X157154819Y-99562380D02*
X157107200Y-99705237D01*
X157107200Y-99705237D02*
X157011961Y-99800475D01*
X157011961Y-99800475D02*
X156916723Y-99848094D01*
X156916723Y-99848094D02*
X156726247Y-99895713D01*
X156726247Y-99895713D02*
X156583390Y-99895713D01*
X156583390Y-99895713D02*
X156392914Y-99848094D01*
X156392914Y-99848094D02*
X156297676Y-99800475D01*
X156297676Y-99800475D02*
X156202438Y-99705237D01*
X156202438Y-99705237D02*
X156154819Y-99562380D01*
X156154819Y-99562380D02*
X156154819Y-99467142D01*
X156154819Y-99467142D02*
X156202438Y-99324285D01*
X156202438Y-99324285D02*
X156250057Y-99276666D01*
X156154819Y-98371904D02*
X156154819Y-98848094D01*
X156154819Y-98848094D02*
X156631009Y-98895713D01*
X156631009Y-98895713D02*
X156583390Y-98848094D01*
X156583390Y-98848094D02*
X156535771Y-98752856D01*
X156535771Y-98752856D02*
X156535771Y-98514761D01*
X156535771Y-98514761D02*
X156583390Y-98419523D01*
X156583390Y-98419523D02*
X156631009Y-98371904D01*
X156631009Y-98371904D02*
X156726247Y-98324285D01*
X156726247Y-98324285D02*
X156964342Y-98324285D01*
X156964342Y-98324285D02*
X157059580Y-98371904D01*
X157059580Y-98371904D02*
X157107200Y-98419523D01*
X157107200Y-98419523D02*
X157154819Y-98514761D01*
X157154819Y-98514761D02*
X157154819Y-98752856D01*
X157154819Y-98752856D02*
X157107200Y-98848094D01*
X157107200Y-98848094D02*
X157059580Y-98895713D01*
X146708095Y-106794819D02*
X146708095Y-107604342D01*
X146708095Y-107604342D02*
X146755714Y-107699580D01*
X146755714Y-107699580D02*
X146803333Y-107747200D01*
X146803333Y-107747200D02*
X146898571Y-107794819D01*
X146898571Y-107794819D02*
X147089047Y-107794819D01*
X147089047Y-107794819D02*
X147184285Y-107747200D01*
X147184285Y-107747200D02*
X147231904Y-107699580D01*
X147231904Y-107699580D02*
X147279523Y-107604342D01*
X147279523Y-107604342D02*
X147279523Y-106794819D01*
X148279523Y-107794819D02*
X147708095Y-107794819D01*
X147993809Y-107794819D02*
X147993809Y-106794819D01*
X147993809Y-106794819D02*
X147898571Y-106937676D01*
X147898571Y-106937676D02*
X147803333Y-107032914D01*
X147803333Y-107032914D02*
X147708095Y-107080533D01*
X154867142Y-94939580D02*
X154819523Y-94987200D01*
X154819523Y-94987200D02*
X154676666Y-95034819D01*
X154676666Y-95034819D02*
X154581428Y-95034819D01*
X154581428Y-95034819D02*
X154438571Y-94987200D01*
X154438571Y-94987200D02*
X154343333Y-94891961D01*
X154343333Y-94891961D02*
X154295714Y-94796723D01*
X154295714Y-94796723D02*
X154248095Y-94606247D01*
X154248095Y-94606247D02*
X154248095Y-94463390D01*
X154248095Y-94463390D02*
X154295714Y-94272914D01*
X154295714Y-94272914D02*
X154343333Y-94177676D01*
X154343333Y-94177676D02*
X154438571Y-94082438D01*
X154438571Y-94082438D02*
X154581428Y-94034819D01*
X154581428Y-94034819D02*
X154676666Y-94034819D01*
X154676666Y-94034819D02*
X154819523Y-94082438D01*
X154819523Y-94082438D02*
X154867142Y-94130057D01*
X155819523Y-95034819D02*
X155248095Y-95034819D01*
X155533809Y-95034819D02*
X155533809Y-94034819D01*
X155533809Y-94034819D02*
X155438571Y-94177676D01*
X155438571Y-94177676D02*
X155343333Y-94272914D01*
X155343333Y-94272914D02*
X155248095Y-94320533D01*
X156438571Y-94034819D02*
X156533809Y-94034819D01*
X156533809Y-94034819D02*
X156629047Y-94082438D01*
X156629047Y-94082438D02*
X156676666Y-94130057D01*
X156676666Y-94130057D02*
X156724285Y-94225295D01*
X156724285Y-94225295D02*
X156771904Y-94415771D01*
X156771904Y-94415771D02*
X156771904Y-94653866D01*
X156771904Y-94653866D02*
X156724285Y-94844342D01*
X156724285Y-94844342D02*
X156676666Y-94939580D01*
X156676666Y-94939580D02*
X156629047Y-94987200D01*
X156629047Y-94987200D02*
X156533809Y-95034819D01*
X156533809Y-95034819D02*
X156438571Y-95034819D01*
X156438571Y-95034819D02*
X156343333Y-94987200D01*
X156343333Y-94987200D02*
X156295714Y-94939580D01*
X156295714Y-94939580D02*
X156248095Y-94844342D01*
X156248095Y-94844342D02*
X156200476Y-94653866D01*
X156200476Y-94653866D02*
X156200476Y-94415771D01*
X156200476Y-94415771D02*
X156248095Y-94225295D01*
X156248095Y-94225295D02*
X156295714Y-94130057D01*
X156295714Y-94130057D02*
X156343333Y-94082438D01*
X156343333Y-94082438D02*
X156438571Y-94034819D01*
X153373333Y-100784819D02*
X152897143Y-100784819D01*
X152897143Y-100784819D02*
X152897143Y-99784819D01*
X153659048Y-99880057D02*
X153706667Y-99832438D01*
X153706667Y-99832438D02*
X153801905Y-99784819D01*
X153801905Y-99784819D02*
X154040000Y-99784819D01*
X154040000Y-99784819D02*
X154135238Y-99832438D01*
X154135238Y-99832438D02*
X154182857Y-99880057D01*
X154182857Y-99880057D02*
X154230476Y-99975295D01*
X154230476Y-99975295D02*
X154230476Y-100070533D01*
X154230476Y-100070533D02*
X154182857Y-100213390D01*
X154182857Y-100213390D02*
X153611429Y-100784819D01*
X153611429Y-100784819D02*
X154230476Y-100784819D01*
X142383333Y-117704819D02*
X142050000Y-117228628D01*
X141811905Y-117704819D02*
X141811905Y-116704819D01*
X141811905Y-116704819D02*
X142192857Y-116704819D01*
X142192857Y-116704819D02*
X142288095Y-116752438D01*
X142288095Y-116752438D02*
X142335714Y-116800057D01*
X142335714Y-116800057D02*
X142383333Y-116895295D01*
X142383333Y-116895295D02*
X142383333Y-117038152D01*
X142383333Y-117038152D02*
X142335714Y-117133390D01*
X142335714Y-117133390D02*
X142288095Y-117181009D01*
X142288095Y-117181009D02*
X142192857Y-117228628D01*
X142192857Y-117228628D02*
X141811905Y-117228628D01*
X142716667Y-116704819D02*
X143383333Y-116704819D01*
X143383333Y-116704819D02*
X142954762Y-117704819D01*
D12*
X146240237Y-101664318D02*
X146240237Y-100394318D01*
X147570714Y-101543365D02*
X147510238Y-101603842D01*
X147510238Y-101603842D02*
X147328809Y-101664318D01*
X147328809Y-101664318D02*
X147207857Y-101664318D01*
X147207857Y-101664318D02*
X147026428Y-101603842D01*
X147026428Y-101603842D02*
X146905476Y-101482889D01*
X146905476Y-101482889D02*
X146844999Y-101361937D01*
X146844999Y-101361937D02*
X146784523Y-101120032D01*
X146784523Y-101120032D02*
X146784523Y-100938603D01*
X146784523Y-100938603D02*
X146844999Y-100696699D01*
X146844999Y-100696699D02*
X146905476Y-100575746D01*
X146905476Y-100575746D02*
X147026428Y-100454794D01*
X147026428Y-100454794D02*
X147207857Y-100394318D01*
X147207857Y-100394318D02*
X147328809Y-100394318D01*
X147328809Y-100394318D02*
X147510238Y-100454794D01*
X147510238Y-100454794D02*
X147570714Y-100515270D01*
X148054523Y-100515270D02*
X148114999Y-100454794D01*
X148114999Y-100454794D02*
X148235952Y-100394318D01*
X148235952Y-100394318D02*
X148538333Y-100394318D01*
X148538333Y-100394318D02*
X148659285Y-100454794D01*
X148659285Y-100454794D02*
X148719761Y-100515270D01*
X148719761Y-100515270D02*
X148780238Y-100636222D01*
X148780238Y-100636222D02*
X148780238Y-100757175D01*
X148780238Y-100757175D02*
X148719761Y-100938603D01*
X148719761Y-100938603D02*
X147994047Y-101664318D01*
X147994047Y-101664318D02*
X148780238Y-101664318D01*
D13*
%TO.C,C12*%
X154290000Y-97337836D02*
X154290000Y-97122164D01*
X155010000Y-97337836D02*
X155010000Y-97122164D01*
%TO.C,C3*%
X142460000Y-111527836D02*
X142460000Y-111312164D01*
X143180000Y-111527836D02*
X143180000Y-111312164D01*
%TO.C,R9*%
X151743641Y-112197500D02*
X151436359Y-112197500D01*
X151743641Y-112957500D02*
X151436359Y-112957500D01*
%TO.C,Y1*%
X152590000Y-98070000D02*
X154040000Y-98070000D01*
X154040000Y-98070000D02*
X154040000Y-96220000D01*
%TO.C,R4*%
X142216359Y-95710000D02*
X142523641Y-95710000D01*
X142216359Y-96470000D02*
X142523641Y-96470000D01*
D14*
%TO.C,LED1*%
X156280000Y-109280000D02*
X156280000Y-109280000D01*
X156480000Y-109280000D02*
X156480000Y-109280000D01*
X156280000Y-109280000D02*
G75*
G02*
X156480000Y-109280000I100000J0D01*
G01*
X156480000Y-109280000D02*
G75*
G02*
X156280000Y-109280000I-100000J0D01*
G01*
D13*
%TO.C,R5*%
X144570000Y-119693641D02*
X144570000Y-119386359D01*
X145330000Y-119693641D02*
X145330000Y-119386359D01*
%TO.C,C1*%
X146182164Y-92830000D02*
X146397836Y-92830000D01*
X146182164Y-93550000D02*
X146397836Y-93550000D01*
%TO.C,R1*%
X143430000Y-111276359D02*
X143430000Y-111583641D01*
X144190000Y-111276359D02*
X144190000Y-111583641D01*
%TO.C,C7*%
X148540000Y-93727836D02*
X148540000Y-93512164D01*
X149260000Y-93727836D02*
X149260000Y-93512164D01*
%TO.C,C6*%
X147570000Y-93727836D02*
X147570000Y-93512164D01*
X148290000Y-93727836D02*
X148290000Y-93512164D01*
%TO.C,J1*%
X139200000Y-126330000D02*
X139200000Y-125000000D01*
X140530000Y-126330000D02*
X139200000Y-126330000D01*
X141800000Y-123670000D02*
X157100000Y-123670000D01*
X141800000Y-126330000D02*
X141800000Y-123670000D01*
X141800000Y-126330000D02*
X157100000Y-126330000D01*
X157100000Y-126330000D02*
X157100000Y-123670000D01*
%TO.C,C20*%
X150880000Y-116442164D02*
X150880000Y-116657836D01*
X151600000Y-116442164D02*
X151600000Y-116657836D01*
%TO.C,C2*%
X143467836Y-109610000D02*
X143252164Y-109610000D01*
X143467836Y-110330000D02*
X143252164Y-110330000D01*
%TO.C,R3*%
X150313641Y-107130000D02*
X150006359Y-107130000D01*
X150313641Y-107890000D02*
X150006359Y-107890000D01*
D10*
%TO.C,IC3*%
X143385000Y-94685000D02*
X143535000Y-94685000D01*
X143385000Y-96785000D02*
X143385000Y-94685000D01*
X143535000Y-96785000D02*
X143385000Y-96785000D01*
X144540000Y-94685000D02*
X143880000Y-94685000D01*
X144540000Y-96785000D02*
X143880000Y-96785000D01*
X144940000Y-95190000D02*
X144935000Y-95790000D01*
X145240000Y-96540000D02*
X145240000Y-96540000D01*
X145240000Y-96640000D02*
X145240000Y-96640000D01*
X145240000Y-96540000D02*
G75*
G02*
X145240000Y-96640000I0J-50000D01*
G01*
X145240000Y-96640000D02*
G75*
G02*
X145240000Y-96540000I0J50000D01*
G01*
D13*
%TO.C,C13*%
X153427836Y-95060000D02*
X153212164Y-95060000D01*
X153427836Y-95780000D02*
X153212164Y-95780000D01*
%TO.C,R6*%
X149830000Y-119366359D02*
X149830000Y-119673641D01*
X150590000Y-119366359D02*
X150590000Y-119673641D01*
%TO.C,C8*%
X149510000Y-93727836D02*
X149510000Y-93512164D01*
X150230000Y-93727836D02*
X150230000Y-93512164D01*
%TO.C,C14*%
X151262164Y-97260000D02*
X151477836Y-97260000D01*
X151262164Y-97980000D02*
X151477836Y-97980000D01*
%TO.C,R8*%
X149890000Y-116426359D02*
X149890000Y-116733641D01*
X150650000Y-116426359D02*
X150650000Y-116733641D01*
D15*
%TO.C,IC1*%
X145850000Y-118390000D02*
G75*
G02*
X145600000Y-118390000I-125000J0D01*
G01*
X145600000Y-118390000D02*
G75*
G02*
X145850000Y-118390000I125000J0D01*
G01*
%TO.C,IC4*%
X145860000Y-115520000D02*
G75*
G02*
X145610000Y-115520000I-125000J0D01*
G01*
X145610000Y-115520000D02*
G75*
G02*
X145860000Y-115520000I125000J0D01*
G01*
D13*
%TO.C,C9*%
X150480000Y-93727836D02*
X150480000Y-93512164D01*
X151200000Y-93727836D02*
X151200000Y-93512164D01*
%TO.C,C19*%
X150840000Y-119617836D02*
X150840000Y-119402164D01*
X151560000Y-119617836D02*
X151560000Y-119402164D01*
%TO.C,C4*%
X146597836Y-93810000D02*
X146382164Y-93810000D01*
X146597836Y-94530000D02*
X146382164Y-94530000D01*
%TO.C,C18*%
X141252164Y-94730000D02*
X141467836Y-94730000D01*
X141252164Y-95450000D02*
X141467836Y-95450000D01*
%TO.C,C11*%
X140540000Y-96432164D02*
X140540000Y-96647836D01*
X141260000Y-96432164D02*
X141260000Y-96647836D01*
%TO.C,R2*%
X151533641Y-94790000D02*
X151226359Y-94790000D01*
X151533641Y-95550000D02*
X151226359Y-95550000D01*
%TO.C,C16*%
X149280000Y-100852164D02*
X149280000Y-101067836D01*
X150000000Y-100852164D02*
X150000000Y-101067836D01*
%TO.C,R10*%
X151743641Y-111197500D02*
X151436359Y-111197500D01*
X151743641Y-111957500D02*
X151436359Y-111957500D01*
%TO.C,C15*%
X150560000Y-99582164D02*
X150560000Y-99797836D01*
X151280000Y-99582164D02*
X151280000Y-99797836D01*
%TO.C,C17*%
X144217836Y-97010000D02*
X144002164Y-97010000D01*
X144217836Y-97730000D02*
X144002164Y-97730000D01*
%TO.C,C5*%
X155180000Y-99002164D02*
X155180000Y-99217836D01*
X155900000Y-99002164D02*
X155900000Y-99217836D01*
%TO.C,U1*%
X144860000Y-109035000D02*
X144860000Y-108800000D01*
X144860000Y-113780000D02*
X144860000Y-113305000D01*
X145335000Y-108560000D02*
X145160000Y-108560000D01*
X145335000Y-113780000D02*
X144860000Y-113780000D01*
X149605000Y-108560000D02*
X150080000Y-108560000D01*
X149605000Y-113780000D02*
X150080000Y-113780000D01*
X150080000Y-108560000D02*
X150080000Y-109035000D01*
X150080000Y-113780000D02*
X150080000Y-113305000D01*
X144860000Y-108560000D02*
X144620000Y-108230000D01*
X145100000Y-108230000D01*
X144860000Y-108560000D01*
G36*
X144860000Y-108560000D02*
G01*
X144620000Y-108230000D01*
X145100000Y-108230000D01*
X144860000Y-108560000D01*
G37*
%TO.C,C10*%
X151252164Y-95800000D02*
X151467836Y-95800000D01*
X151252164Y-96520000D02*
X151467836Y-96520000D01*
%TO.C,L2*%
X152880378Y-98510000D02*
X153679622Y-98510000D01*
X152880378Y-99630000D02*
X153679622Y-99630000D01*
%TO.C,R7*%
X144623641Y-116800000D02*
X144316359Y-116800000D01*
X144623641Y-117560000D02*
X144316359Y-117560000D01*
D15*
%TO.C,IC2*%
X150265000Y-99340000D02*
G75*
G02*
X150015000Y-99340000I-125000J0D01*
G01*
X150015000Y-99340000D02*
G75*
G02*
X150265000Y-99340000I125000J0D01*
G01*
%TD*%
%LPC*%
D16*
%TO.C,C12*%
X154650000Y-97710000D03*
X154650000Y-96750000D03*
%TD*%
%TO.C,C3*%
X142820000Y-111900000D03*
X142820000Y-110940000D03*
%TD*%
D17*
%TO.C,R9*%
X152100000Y-112577500D03*
X151080000Y-112577500D03*
%TD*%
D18*
%TO.C,Y1*%
X153640000Y-97620000D03*
X153640000Y-96520000D03*
X152840000Y-96520000D03*
X152840000Y-97620000D03*
%TD*%
D19*
%TO.C,R4*%
X141860000Y-96090000D03*
X142880000Y-96090000D03*
%TD*%
D20*
%TO.C,LED1*%
X156230000Y-110580000D03*
X156230000Y-113580000D03*
X154730000Y-113580000D03*
X154730000Y-110580000D03*
%TD*%
D21*
%TO.C,R5*%
X144950000Y-120050000D03*
X144950000Y-119030000D03*
%TD*%
D22*
%TO.C,C1*%
X145810000Y-93190000D03*
X146770000Y-93190000D03*
%TD*%
D23*
%TO.C,R1*%
X143810000Y-110920000D03*
X143810000Y-111940000D03*
%TD*%
D16*
%TO.C,C7*%
X148900000Y-94100000D03*
X148900000Y-93140000D03*
%TD*%
%TO.C,C6*%
X147930000Y-94100000D03*
X147930000Y-93140000D03*
%TD*%
D24*
%TO.C,J1*%
X140530000Y-125000000D03*
D25*
X143070000Y-125000000D03*
X145610000Y-125000000D03*
X148150000Y-125000000D03*
X150690000Y-125000000D03*
X153230000Y-125000000D03*
X155770000Y-125000000D03*
%TD*%
D26*
%TO.C,C20*%
X151240000Y-116070000D03*
X151240000Y-117030000D03*
%TD*%
D27*
%TO.C,C2*%
X143840000Y-109970000D03*
X142880000Y-109970000D03*
%TD*%
D17*
%TO.C,R3*%
X150670000Y-107510000D03*
X149650000Y-107510000D03*
%TD*%
D28*
%TO.C,IC3*%
X144740000Y-96590000D03*
X143680000Y-96590000D03*
X144740000Y-96090000D03*
X143680000Y-96090000D03*
X144740000Y-94880000D03*
X143680000Y-94880000D03*
%TD*%
D27*
%TO.C,C13*%
X153800000Y-95420000D03*
X152840000Y-95420000D03*
%TD*%
D23*
%TO.C,R6*%
X150210000Y-119010000D03*
X150210000Y-120030000D03*
%TD*%
D16*
%TO.C,C8*%
X149870000Y-94100000D03*
X149870000Y-93140000D03*
%TD*%
D29*
%TO.C,L3*%
X139910000Y-96060000D03*
X139910000Y-95090000D03*
%TD*%
D22*
%TO.C,C14*%
X150890000Y-97620000D03*
X151850000Y-97620000D03*
%TD*%
D23*
%TO.C,R8*%
X150270000Y-116070000D03*
X150270000Y-117090000D03*
%TD*%
D30*
%TO.C,IC1*%
X146200000Y-119040000D03*
X146200000Y-119540000D03*
X146200000Y-120040000D03*
X146200000Y-120540000D03*
X149000000Y-120540000D03*
X149000000Y-120040000D03*
X149000000Y-119540000D03*
X149000000Y-119040000D03*
D31*
X147600000Y-119790000D03*
%TD*%
D32*
%TO.C,IC4*%
X146160000Y-116170000D03*
X146160000Y-116670000D03*
X146160000Y-117170000D03*
X146160000Y-117670000D03*
X149060000Y-117670000D03*
X149060000Y-117170000D03*
X149060000Y-116670000D03*
X149060000Y-116170000D03*
D33*
X147610000Y-116920000D03*
%TD*%
D16*
%TO.C,C9*%
X150840000Y-94100000D03*
X150840000Y-93140000D03*
%TD*%
%TO.C,C19*%
X151200000Y-119990000D03*
X151200000Y-119030000D03*
%TD*%
D27*
%TO.C,C4*%
X146970000Y-94170000D03*
X146010000Y-94170000D03*
%TD*%
D22*
%TO.C,C18*%
X140880000Y-95090000D03*
X141840000Y-95090000D03*
%TD*%
D26*
%TO.C,C11*%
X140900000Y-96060000D03*
X140900000Y-97020000D03*
%TD*%
D17*
%TO.C,R2*%
X151890000Y-95170000D03*
X150870000Y-95170000D03*
%TD*%
D26*
%TO.C,C16*%
X149640000Y-100480000D03*
X149640000Y-101440000D03*
%TD*%
D17*
%TO.C,R10*%
X152100000Y-111577500D03*
X151080000Y-111577500D03*
%TD*%
D34*
%TO.C,L1*%
X146915000Y-92190000D03*
X147885000Y-92190000D03*
%TD*%
D26*
%TO.C,C15*%
X150920000Y-99210000D03*
X150920000Y-100170000D03*
%TD*%
D27*
%TO.C,C17*%
X144590000Y-97370000D03*
X143630000Y-97370000D03*
%TD*%
D26*
%TO.C,C5*%
X155540000Y-98630000D03*
X155540000Y-99590000D03*
%TD*%
D35*
%TO.C,U1*%
X145032500Y-109420000D03*
X145032500Y-109920000D03*
X145032500Y-110420000D03*
X145032500Y-110920000D03*
X145032500Y-111420000D03*
X145032500Y-111920000D03*
X145032500Y-112420000D03*
X145032500Y-112920000D03*
D36*
X145720000Y-113607500D03*
X146220000Y-113607500D03*
X146720000Y-113607500D03*
X147220000Y-113607500D03*
X147720000Y-113607500D03*
X148220000Y-113607500D03*
X148720000Y-113607500D03*
X149220000Y-113607500D03*
D35*
X149907500Y-112920000D03*
X149907500Y-112420000D03*
X149907500Y-111920000D03*
X149907500Y-111420000D03*
X149907500Y-110920000D03*
X149907500Y-110420000D03*
X149907500Y-109920000D03*
X149907500Y-109420000D03*
D36*
X149220000Y-108732500D03*
X148720000Y-108732500D03*
X148220000Y-108732500D03*
X147720000Y-108732500D03*
X147220000Y-108732500D03*
X146720000Y-108732500D03*
X146220000Y-108732500D03*
X145720000Y-108732500D03*
D37*
X147470000Y-111170000D03*
%TD*%
D22*
%TO.C,C10*%
X150880000Y-96160000D03*
X151840000Y-96160000D03*
%TD*%
D38*
%TO.C,L2*%
X152217500Y-99070000D03*
X154342500Y-99070000D03*
%TD*%
D17*
%TO.C,R7*%
X144980000Y-117180000D03*
X143960000Y-117180000D03*
%TD*%
D39*
%TO.C,IC2*%
X149740000Y-98590000D03*
X149740000Y-98090000D03*
X149740000Y-97590000D03*
X149740000Y-97090000D03*
X149740000Y-96590000D03*
X149740000Y-96090000D03*
D40*
X148990000Y-95340000D03*
X148490000Y-95340000D03*
X147990000Y-95340000D03*
X147490000Y-95340000D03*
X146990000Y-95340000D03*
X146490000Y-95340000D03*
D39*
X145740000Y-96090000D03*
X145740000Y-96590000D03*
X145740000Y-97090000D03*
X145740000Y-97590000D03*
X145740000Y-98090000D03*
X145740000Y-98590000D03*
D40*
X146490000Y-99340000D03*
X146990000Y-99340000D03*
X147490000Y-99340000D03*
X147990000Y-99340000D03*
X148490000Y-99340000D03*
X148990000Y-99340000D03*
D41*
X147740000Y-97340000D03*
%TD*%
%LPD*%
M02*
