%TF.GenerationSoftware,KiCad,Pcbnew,8.0.5*%
%TF.CreationDate,2024-11-16T16:31:19+01:00*%
%TF.ProjectId,C8W1B1V1.0,43385731-4231-4563-912e-302e6b696361,rev?*%
%TF.SameCoordinates,Original*%
%TF.FileFunction,Copper,L2,Inr*%
%TF.FilePolarity,Positive*%
%FSLAX46Y46*%
G04 Gerber Fmt 4.6, Leading zero omitted, Abs format (unit mm)*
G04 Created by KiCad (PCBNEW 8.0.5) date 2024-11-16 16:31:19*
%MOMM*%
%LPD*%
G01*
G04 APERTURE LIST*
%TA.AperFunction,ComponentPad*%
%ADD10R,1.700000X1.700000*%
%TD*%
%TA.AperFunction,ComponentPad*%
%ADD11O,1.700000X1.700000*%
%TD*%
%TA.AperFunction,ComponentPad*%
%ADD12C,1.000000*%
%TD*%
%TA.AperFunction,ViaPad*%
%ADD13C,0.700000*%
%TD*%
G04 APERTURE END LIST*
D10*
%TO.N,U_RX*%
%TO.C,J1*%
X140530000Y-125000000D03*
D11*
%TO.N,STM_NRST*%
X143070000Y-125000000D03*
%TO.N,GND*%
X145610000Y-125000000D03*
%TO.N,+3V3*%
X148150000Y-125000000D03*
%TO.N,U_TX*%
X150690000Y-125000000D03*
%TO.N,STM_SWDIO*%
X153230000Y-125000000D03*
%TO.N,STM_SWCLK*%
X155770000Y-125000000D03*
%TD*%
D12*
%TO.N,*%
%TO.C,AE1*%
X137940000Y-79970000D03*
X139940000Y-79970000D03*
X139940000Y-84970000D03*
X141940000Y-79970000D03*
X141940000Y-84970000D03*
X143940000Y-79970000D03*
X143940000Y-84970000D03*
X145940000Y-79970000D03*
X145940000Y-84970000D03*
X147940000Y-79970000D03*
X147940000Y-84970000D03*
X149940000Y-79970000D03*
X149940000Y-84970000D03*
X151940000Y-79970000D03*
X151940000Y-84970000D03*
X153940000Y-79970000D03*
X153940000Y-84970000D03*
X155940000Y-79970000D03*
X155940000Y-84970000D03*
%TD*%
D13*
%TO.N,GND*%
X147610000Y-116920000D03*
X145700000Y-101280000D03*
X146100000Y-104990000D03*
X154280000Y-96130000D03*
X153610000Y-110230000D03*
X155260000Y-100170000D03*
X152790000Y-98040000D03*
X145970000Y-103810000D03*
X142870000Y-94820000D03*
X141880000Y-111200000D03*
X151840000Y-96160000D03*
X141830000Y-94370000D03*
X140770000Y-98100000D03*
X151530000Y-100550000D03*
X150420000Y-93140000D03*
X146080000Y-92300000D03*
X147740000Y-97340000D03*
X145620000Y-99730000D03*
X154760000Y-111850000D03*
X139840000Y-97210000D03*
X148440000Y-93140000D03*
X147470000Y-111170000D03*
X156240000Y-111810000D03*
X149440000Y-93140000D03*
X143700000Y-94140000D03*
X144085000Y-95285000D03*
X150550000Y-114790000D03*
%TO.N,Net-(IC2-VR_RF)*%
X144770000Y-93720000D03*
X145630000Y-95180000D03*
%TO.N,+3V3*%
X143650000Y-118230000D03*
X143680000Y-109170000D03*
X143140000Y-98360000D03*
X151860000Y-94170000D03*
X145070000Y-118200000D03*
X150740000Y-116170000D03*
X150800000Y-119040000D03*
X150630000Y-101550000D03*
X147930000Y-94100000D03*
%TO.N,S2LP_SDN*%
X153730000Y-93460000D03*
X150385000Y-95655000D03*
%TO.N,MEM_MOSI*%
X148930000Y-114910000D03*
X147450000Y-118310000D03*
%TO.N,FLASH_CS*%
X142780000Y-118280000D03*
X146400000Y-118390000D03*
%TO.N,MEM_MISO*%
X145950000Y-115162194D03*
X147640000Y-114820000D03*
%TO.N,S2LP_CLK*%
X145130000Y-105150000D03*
X144260000Y-107180000D03*
%TO.N,S2LP_MOSI*%
X145190000Y-107470000D03*
X145150000Y-106110000D03*
%TD*%
%TA.AperFunction,Conductor*%
%TO.N,+3V3*%
G36*
X157471280Y-91018482D02*
G01*
X157498300Y-91065282D01*
X157499500Y-91079000D01*
X157499500Y-124420500D01*
X157481018Y-124471280D01*
X157434218Y-124498300D01*
X157420500Y-124499500D01*
X156695622Y-124499500D01*
X156644842Y-124481018D01*
X156625951Y-124457742D01*
X156620701Y-124447921D01*
X156614265Y-124435880D01*
X156488279Y-124282366D01*
X156487988Y-124282011D01*
X156334121Y-124155735D01*
X156158569Y-124061901D01*
X155968099Y-124004122D01*
X155968095Y-124004121D01*
X155770000Y-123984611D01*
X155571904Y-124004121D01*
X155571900Y-124004122D01*
X155381430Y-124061901D01*
X155381429Y-124061901D01*
X155205878Y-124155735D01*
X155052011Y-124282011D01*
X154925735Y-124435879D01*
X154914049Y-124457742D01*
X154873810Y-124493813D01*
X154844378Y-124499500D01*
X154155622Y-124499500D01*
X154104842Y-124481018D01*
X154085951Y-124457742D01*
X154080701Y-124447921D01*
X154074265Y-124435880D01*
X153948279Y-124282366D01*
X153947988Y-124282011D01*
X153794121Y-124155735D01*
X153618569Y-124061901D01*
X153428099Y-124004122D01*
X153428095Y-124004121D01*
X153230000Y-123984611D01*
X153031904Y-124004121D01*
X153031900Y-124004122D01*
X152841430Y-124061901D01*
X152841429Y-124061901D01*
X152665878Y-124155735D01*
X152512011Y-124282011D01*
X152385735Y-124435879D01*
X152374049Y-124457742D01*
X152333810Y-124493813D01*
X152304378Y-124499500D01*
X151615622Y-124499500D01*
X151564842Y-124481018D01*
X151545951Y-124457742D01*
X151540701Y-124447921D01*
X151534265Y-124435880D01*
X151408279Y-124282366D01*
X151407988Y-124282011D01*
X151254121Y-124155735D01*
X151078569Y-124061901D01*
X150888099Y-124004122D01*
X150888095Y-124004121D01*
X150690000Y-123984611D01*
X150491904Y-124004121D01*
X150491900Y-124004122D01*
X150301430Y-124061901D01*
X150301429Y-124061901D01*
X150125878Y-124155735D01*
X149972011Y-124282011D01*
X149845735Y-124435879D01*
X149834049Y-124457742D01*
X149793810Y-124493813D01*
X149764378Y-124499500D01*
X149075055Y-124499500D01*
X149024275Y-124481018D01*
X149005383Y-124457741D01*
X148993845Y-124436156D01*
X148867633Y-124282366D01*
X148713842Y-124156153D01*
X148538375Y-124062365D01*
X148348001Y-124004615D01*
X148347998Y-124004614D01*
X148230000Y-123992992D01*
X148230000Y-124420500D01*
X148211518Y-124471280D01*
X148164718Y-124498300D01*
X148151000Y-124499500D01*
X148149000Y-124499500D01*
X148098220Y-124481018D01*
X148071200Y-124434218D01*
X148070000Y-124420500D01*
X148070000Y-123992992D01*
X147952001Y-124004614D01*
X147951998Y-124004615D01*
X147761624Y-124062365D01*
X147761623Y-124062365D01*
X147586157Y-124156153D01*
X147432366Y-124282366D01*
X147306154Y-124436156D01*
X147294617Y-124457741D01*
X147254379Y-124493812D01*
X147224945Y-124499500D01*
X146535622Y-124499500D01*
X146484842Y-124481018D01*
X146465951Y-124457742D01*
X146460701Y-124447921D01*
X146454265Y-124435880D01*
X146328279Y-124282366D01*
X146327988Y-124282011D01*
X146174121Y-124155735D01*
X145998569Y-124061901D01*
X145808099Y-124004122D01*
X145808095Y-124004121D01*
X145610000Y-123984611D01*
X145411904Y-124004121D01*
X145411900Y-124004122D01*
X145221430Y-124061901D01*
X145221429Y-124061901D01*
X145045878Y-124155735D01*
X144892011Y-124282011D01*
X144765735Y-124435879D01*
X144754049Y-124457742D01*
X144713810Y-124493813D01*
X144684378Y-124499500D01*
X143995622Y-124499500D01*
X143944842Y-124481018D01*
X143925951Y-124457742D01*
X143920701Y-124447921D01*
X143914265Y-124435880D01*
X143788279Y-124282366D01*
X143787988Y-124282011D01*
X143634121Y-124155735D01*
X143458569Y-124061901D01*
X143268099Y-124004122D01*
X143268095Y-124004121D01*
X143070000Y-123984611D01*
X142871904Y-124004121D01*
X142871900Y-124004122D01*
X142681430Y-124061901D01*
X142681429Y-124061901D01*
X142505878Y-124155735D01*
X142352011Y-124282011D01*
X142225735Y-124435879D01*
X142214049Y-124457742D01*
X142173810Y-124493813D01*
X142144378Y-124499500D01*
X141619500Y-124499500D01*
X141568720Y-124481018D01*
X141541700Y-124434218D01*
X141540500Y-124420500D01*
X141540500Y-124134194D01*
X141531187Y-124087376D01*
X141495714Y-124034285D01*
X141451306Y-124004614D01*
X141442624Y-123998813D01*
X141442623Y-123998812D01*
X141395806Y-123989500D01*
X139664194Y-123989500D01*
X139617376Y-123998812D01*
X139564285Y-124034285D01*
X139528812Y-124087376D01*
X139519500Y-124134194D01*
X139519500Y-124420500D01*
X139501018Y-124471280D01*
X139454218Y-124498300D01*
X139440500Y-124499500D01*
X136579500Y-124499500D01*
X136528720Y-124481018D01*
X136501700Y-124434218D01*
X136500500Y-124420500D01*
X136500500Y-118280000D01*
X142264250Y-118280000D01*
X142285140Y-118425301D01*
X142285141Y-118425304D01*
X142346123Y-118558836D01*
X142442256Y-118669778D01*
X142565750Y-118749143D01*
X142706601Y-118790500D01*
X142853398Y-118790500D01*
X142853399Y-118790500D01*
X142994250Y-118749143D01*
X143117744Y-118669778D01*
X143213877Y-118558836D01*
X143274859Y-118425304D01*
X143279935Y-118390000D01*
X145884250Y-118390000D01*
X145905140Y-118535301D01*
X145905141Y-118535304D01*
X145966123Y-118668836D01*
X146062256Y-118779778D01*
X146185750Y-118859143D01*
X146326601Y-118900500D01*
X146473398Y-118900500D01*
X146473399Y-118900500D01*
X146614250Y-118859143D01*
X146737744Y-118779778D01*
X146833877Y-118668836D01*
X146871406Y-118586657D01*
X146909313Y-118548144D01*
X146963107Y-118543007D01*
X147007618Y-118573650D01*
X147015128Y-118586657D01*
X147016123Y-118588836D01*
X147086260Y-118669778D01*
X147112256Y-118699778D01*
X147235750Y-118779143D01*
X147376601Y-118820500D01*
X147523398Y-118820500D01*
X147523399Y-118820500D01*
X147664250Y-118779143D01*
X147787744Y-118699778D01*
X147883877Y-118588836D01*
X147944859Y-118455304D01*
X147965750Y-118310000D01*
X147944859Y-118164696D01*
X147883877Y-118031164D01*
X147787744Y-117920222D01*
X147664250Y-117840857D01*
X147523399Y-117799500D01*
X147376601Y-117799500D01*
X147235750Y-117840857D01*
X147235749Y-117840857D01*
X147112255Y-117920222D01*
X147016123Y-118031163D01*
X146978593Y-118113342D01*
X146940685Y-118151855D01*
X146886891Y-118156992D01*
X146842380Y-118126348D01*
X146834869Y-118113337D01*
X146833877Y-118111164D01*
X146737744Y-118000222D01*
X146614250Y-117920857D01*
X146473399Y-117879500D01*
X146326601Y-117879500D01*
X146185750Y-117920857D01*
X146185749Y-117920857D01*
X146062255Y-118000222D01*
X145966123Y-118111163D01*
X145905141Y-118244695D01*
X145905140Y-118244698D01*
X145884250Y-118390000D01*
X143279935Y-118390000D01*
X143295750Y-118280000D01*
X143274859Y-118134696D01*
X143213877Y-118001164D01*
X143117744Y-117890222D01*
X142994250Y-117810857D01*
X142853399Y-117769500D01*
X142706601Y-117769500D01*
X142565750Y-117810857D01*
X142565749Y-117810857D01*
X142442255Y-117890222D01*
X142346123Y-118001163D01*
X142285141Y-118134695D01*
X142285140Y-118134698D01*
X142264250Y-118280000D01*
X136500500Y-118280000D01*
X136500500Y-116920000D01*
X147094250Y-116920000D01*
X147115140Y-117065301D01*
X147115141Y-117065304D01*
X147176123Y-117198836D01*
X147272256Y-117309778D01*
X147395750Y-117389143D01*
X147536601Y-117430500D01*
X147683398Y-117430500D01*
X147683399Y-117430500D01*
X147824250Y-117389143D01*
X147947744Y-117309778D01*
X148043877Y-117198836D01*
X148104859Y-117065304D01*
X148125750Y-116920000D01*
X148104859Y-116774696D01*
X148043877Y-116641164D01*
X147947744Y-116530222D01*
X147824250Y-116450857D01*
X147683399Y-116409500D01*
X147536601Y-116409500D01*
X147395750Y-116450857D01*
X147395749Y-116450857D01*
X147272255Y-116530222D01*
X147176123Y-116641163D01*
X147115141Y-116774695D01*
X147115140Y-116774698D01*
X147094250Y-116920000D01*
X136500500Y-116920000D01*
X136500500Y-115162194D01*
X145434250Y-115162194D01*
X145455140Y-115307495D01*
X145455141Y-115307498D01*
X145516123Y-115441030D01*
X145612256Y-115551972D01*
X145735750Y-115631337D01*
X145876601Y-115672694D01*
X146023398Y-115672694D01*
X146023399Y-115672694D01*
X146164250Y-115631337D01*
X146287744Y-115551972D01*
X146383877Y-115441030D01*
X146444859Y-115307498D01*
X146465750Y-115162194D01*
X146444859Y-115016890D01*
X146383877Y-114883358D01*
X146328976Y-114820000D01*
X147124250Y-114820000D01*
X147145140Y-114965301D01*
X147145141Y-114965304D01*
X147206123Y-115098836D01*
X147276260Y-115179778D01*
X147302256Y-115209778D01*
X147425750Y-115289143D01*
X147566601Y-115330500D01*
X147713398Y-115330500D01*
X147713399Y-115330500D01*
X147854250Y-115289143D01*
X147977744Y-115209778D01*
X148073877Y-115098836D01*
X148134859Y-114965304D01*
X148142810Y-114910000D01*
X148414250Y-114910000D01*
X148435140Y-115055301D01*
X148435141Y-115055304D01*
X148496123Y-115188836D01*
X148583040Y-115289143D01*
X148592256Y-115299778D01*
X148715750Y-115379143D01*
X148856601Y-115420500D01*
X149003398Y-115420500D01*
X149003399Y-115420500D01*
X149144250Y-115379143D01*
X149267744Y-115299778D01*
X149363877Y-115188836D01*
X149424859Y-115055304D01*
X149445750Y-114910000D01*
X149428497Y-114790000D01*
X150034250Y-114790000D01*
X150055140Y-114935301D01*
X150055141Y-114935304D01*
X150116123Y-115068836D01*
X150212256Y-115179778D01*
X150335750Y-115259143D01*
X150476601Y-115300500D01*
X150623398Y-115300500D01*
X150623399Y-115300500D01*
X150764250Y-115259143D01*
X150887744Y-115179778D01*
X150983877Y-115068836D01*
X151044859Y-114935304D01*
X151065750Y-114790000D01*
X151044859Y-114644696D01*
X150983877Y-114511164D01*
X150887744Y-114400222D01*
X150764250Y-114320857D01*
X150623399Y-114279500D01*
X150476601Y-114279500D01*
X150335750Y-114320857D01*
X150335749Y-114320857D01*
X150212255Y-114400222D01*
X150116123Y-114511163D01*
X150055141Y-114644695D01*
X150055140Y-114644698D01*
X150034250Y-114790000D01*
X149428497Y-114790000D01*
X149424859Y-114764696D01*
X149363877Y-114631164D01*
X149267744Y-114520222D01*
X149144250Y-114440857D01*
X149003399Y-114399500D01*
X148856601Y-114399500D01*
X148715750Y-114440857D01*
X148715749Y-114440857D01*
X148592255Y-114520222D01*
X148496123Y-114631163D01*
X148435141Y-114764695D01*
X148435140Y-114764698D01*
X148414250Y-114910000D01*
X148142810Y-114910000D01*
X148155750Y-114820000D01*
X148134859Y-114674696D01*
X148073877Y-114541164D01*
X147977744Y-114430222D01*
X147854250Y-114350857D01*
X147713399Y-114309500D01*
X147566601Y-114309500D01*
X147425750Y-114350857D01*
X147425749Y-114350857D01*
X147302255Y-114430222D01*
X147206123Y-114541163D01*
X147145141Y-114674695D01*
X147145140Y-114674698D01*
X147124250Y-114820000D01*
X146328976Y-114820000D01*
X146287744Y-114772416D01*
X146164250Y-114693051D01*
X146023399Y-114651694D01*
X145876601Y-114651694D01*
X145735750Y-114693051D01*
X145735749Y-114693051D01*
X145612255Y-114772416D01*
X145516123Y-114883357D01*
X145455141Y-115016889D01*
X145455140Y-115016892D01*
X145434250Y-115162194D01*
X136500500Y-115162194D01*
X136500500Y-111850000D01*
X154244250Y-111850000D01*
X154265140Y-111995301D01*
X154265141Y-111995304D01*
X154326123Y-112128836D01*
X154422256Y-112239778D01*
X154545750Y-112319143D01*
X154686601Y-112360500D01*
X154833398Y-112360500D01*
X154833399Y-112360500D01*
X154974250Y-112319143D01*
X155097744Y-112239778D01*
X155193877Y-112128836D01*
X155254859Y-111995304D01*
X155275750Y-111850000D01*
X155269999Y-111810000D01*
X155724250Y-111810000D01*
X155745140Y-111955301D01*
X155745141Y-111955304D01*
X155806123Y-112088836D01*
X155902256Y-112199778D01*
X156025750Y-112279143D01*
X156166601Y-112320500D01*
X156313398Y-112320500D01*
X156313399Y-112320500D01*
X156454250Y-112279143D01*
X156577744Y-112199778D01*
X156673877Y-112088836D01*
X156734859Y-111955304D01*
X156755750Y-111810000D01*
X156734859Y-111664696D01*
X156673877Y-111531164D01*
X156577744Y-111420222D01*
X156454250Y-111340857D01*
X156313399Y-111299500D01*
X156166601Y-111299500D01*
X156025750Y-111340857D01*
X156025749Y-111340857D01*
X155902255Y-111420222D01*
X155806123Y-111531163D01*
X155745141Y-111664695D01*
X155745140Y-111664698D01*
X155724250Y-111810000D01*
X155269999Y-111810000D01*
X155254859Y-111704696D01*
X155193877Y-111571164D01*
X155097744Y-111460222D01*
X154974250Y-111380857D01*
X154833399Y-111339500D01*
X154686601Y-111339500D01*
X154545750Y-111380857D01*
X154545749Y-111380857D01*
X154422255Y-111460222D01*
X154326123Y-111571163D01*
X154265141Y-111704695D01*
X154265140Y-111704698D01*
X154244250Y-111850000D01*
X136500500Y-111850000D01*
X136500500Y-111200000D01*
X141364250Y-111200000D01*
X141385140Y-111345301D01*
X141385141Y-111345304D01*
X141446123Y-111478836D01*
X141516260Y-111559778D01*
X141542256Y-111589778D01*
X141665750Y-111669143D01*
X141806601Y-111710500D01*
X141953398Y-111710500D01*
X141953399Y-111710500D01*
X142094250Y-111669143D01*
X142217744Y-111589778D01*
X142313877Y-111478836D01*
X142374859Y-111345304D01*
X142395750Y-111200000D01*
X142391437Y-111170000D01*
X146954250Y-111170000D01*
X146975140Y-111315301D01*
X146975141Y-111315304D01*
X147036123Y-111448836D01*
X147107461Y-111531164D01*
X147132256Y-111559778D01*
X147255750Y-111639143D01*
X147396601Y-111680500D01*
X147543398Y-111680500D01*
X147543399Y-111680500D01*
X147684250Y-111639143D01*
X147807744Y-111559778D01*
X147903877Y-111448836D01*
X147964859Y-111315304D01*
X147985750Y-111170000D01*
X147964859Y-111024696D01*
X147903877Y-110891164D01*
X147807744Y-110780222D01*
X147684250Y-110700857D01*
X147543399Y-110659500D01*
X147396601Y-110659500D01*
X147255750Y-110700857D01*
X147255749Y-110700857D01*
X147132255Y-110780222D01*
X147036123Y-110891163D01*
X146975141Y-111024695D01*
X146975140Y-111024698D01*
X146954250Y-111170000D01*
X142391437Y-111170000D01*
X142374859Y-111054696D01*
X142313877Y-110921164D01*
X142217744Y-110810222D01*
X142094250Y-110730857D01*
X141953399Y-110689500D01*
X141806601Y-110689500D01*
X141665750Y-110730857D01*
X141665749Y-110730857D01*
X141542255Y-110810222D01*
X141446123Y-110921163D01*
X141385141Y-111054695D01*
X141385140Y-111054698D01*
X141364250Y-111200000D01*
X136500500Y-111200000D01*
X136500500Y-110230000D01*
X153094250Y-110230000D01*
X153115140Y-110375301D01*
X153115141Y-110375304D01*
X153176123Y-110508836D01*
X153272256Y-110619778D01*
X153395750Y-110699143D01*
X153536601Y-110740500D01*
X153683398Y-110740500D01*
X153683399Y-110740500D01*
X153824250Y-110699143D01*
X153947744Y-110619778D01*
X154043877Y-110508836D01*
X154104859Y-110375304D01*
X154125750Y-110230000D01*
X154104859Y-110084696D01*
X154043877Y-109951164D01*
X153947744Y-109840222D01*
X153824250Y-109760857D01*
X153683399Y-109719500D01*
X153536601Y-109719500D01*
X153395750Y-109760857D01*
X153395749Y-109760857D01*
X153272255Y-109840222D01*
X153176123Y-109951163D01*
X153115141Y-110084695D01*
X153115140Y-110084698D01*
X153094250Y-110230000D01*
X136500500Y-110230000D01*
X136500500Y-107180000D01*
X143744250Y-107180000D01*
X143765140Y-107325301D01*
X143765141Y-107325304D01*
X143826123Y-107458836D01*
X143922256Y-107569778D01*
X144045750Y-107649143D01*
X144186601Y-107690500D01*
X144333398Y-107690500D01*
X144333399Y-107690500D01*
X144474250Y-107649143D01*
X144580272Y-107581006D01*
X144632980Y-107569101D01*
X144681012Y-107593863D01*
X144694841Y-107614648D01*
X144729482Y-107690500D01*
X144756123Y-107748836D01*
X144852256Y-107859778D01*
X144975750Y-107939143D01*
X145116601Y-107980500D01*
X145263398Y-107980500D01*
X145263399Y-107980500D01*
X145404250Y-107939143D01*
X145527744Y-107859778D01*
X145623877Y-107748836D01*
X145684859Y-107615304D01*
X145705750Y-107470000D01*
X145684859Y-107324696D01*
X145623877Y-107191164D01*
X145527744Y-107080222D01*
X145404250Y-107000857D01*
X145263399Y-106959500D01*
X145116601Y-106959500D01*
X144975750Y-107000857D01*
X144975749Y-107000857D01*
X144869730Y-107068992D01*
X144817018Y-107080897D01*
X144768986Y-107056135D01*
X144755158Y-107035351D01*
X144754859Y-107034696D01*
X144693877Y-106901164D01*
X144597744Y-106790222D01*
X144474250Y-106710857D01*
X144333399Y-106669500D01*
X144186601Y-106669500D01*
X144045750Y-106710857D01*
X144045749Y-106710857D01*
X143922255Y-106790222D01*
X143826123Y-106901163D01*
X143765141Y-107034695D01*
X143765140Y-107034698D01*
X143744250Y-107180000D01*
X136500500Y-107180000D01*
X136500500Y-105150000D01*
X144614250Y-105150000D01*
X144635140Y-105295301D01*
X144635141Y-105295304D01*
X144696123Y-105428836D01*
X144792255Y-105539777D01*
X144792256Y-105539778D01*
X144839231Y-105569967D01*
X144871958Y-105612969D01*
X144869387Y-105666947D01*
X144839233Y-105702884D01*
X144812256Y-105720221D01*
X144812255Y-105720222D01*
X144716123Y-105831163D01*
X144655141Y-105964695D01*
X144655140Y-105964698D01*
X144634250Y-106110000D01*
X144655140Y-106255301D01*
X144655141Y-106255304D01*
X144716123Y-106388836D01*
X144812256Y-106499778D01*
X144935750Y-106579143D01*
X145076601Y-106620500D01*
X145223398Y-106620500D01*
X145223399Y-106620500D01*
X145364250Y-106579143D01*
X145487744Y-106499778D01*
X145583877Y-106388836D01*
X145644859Y-106255304D01*
X145665750Y-106110000D01*
X145644859Y-105964696D01*
X145583877Y-105831164D01*
X145487744Y-105720222D01*
X145440766Y-105690031D01*
X145408041Y-105647030D01*
X145410612Y-105593052D01*
X145440765Y-105557116D01*
X145467744Y-105539778D01*
X145563877Y-105428836D01*
X145595951Y-105358602D01*
X145633858Y-105320089D01*
X145687652Y-105314952D01*
X145727515Y-105339685D01*
X145762256Y-105379778D01*
X145885750Y-105459143D01*
X146026601Y-105500500D01*
X146173398Y-105500500D01*
X146173399Y-105500500D01*
X146314250Y-105459143D01*
X146437744Y-105379778D01*
X146533877Y-105268836D01*
X146594859Y-105135304D01*
X146615750Y-104990000D01*
X146594859Y-104844696D01*
X146533877Y-104711164D01*
X146437744Y-104600222D01*
X146314250Y-104520857D01*
X146173399Y-104479500D01*
X146026601Y-104479500D01*
X145885750Y-104520857D01*
X145885749Y-104520857D01*
X145762255Y-104600222D01*
X145666123Y-104711163D01*
X145634048Y-104781397D01*
X145596140Y-104819910D01*
X145542346Y-104825047D01*
X145502483Y-104800313D01*
X145467744Y-104760222D01*
X145344250Y-104680857D01*
X145203399Y-104639500D01*
X145056601Y-104639500D01*
X144915750Y-104680857D01*
X144915749Y-104680857D01*
X144792255Y-104760222D01*
X144696123Y-104871163D01*
X144635141Y-105004695D01*
X144635140Y-105004698D01*
X144614250Y-105150000D01*
X136500500Y-105150000D01*
X136500500Y-103810000D01*
X145454250Y-103810000D01*
X145475140Y-103955301D01*
X145475141Y-103955304D01*
X145536123Y-104088836D01*
X145632256Y-104199778D01*
X145755750Y-104279143D01*
X145896601Y-104320500D01*
X146043398Y-104320500D01*
X146043399Y-104320500D01*
X146184250Y-104279143D01*
X146307744Y-104199778D01*
X146403877Y-104088836D01*
X146464859Y-103955304D01*
X146485750Y-103810000D01*
X146464859Y-103664696D01*
X146403877Y-103531164D01*
X146307744Y-103420222D01*
X146184250Y-103340857D01*
X146043399Y-103299500D01*
X145896601Y-103299500D01*
X145755750Y-103340857D01*
X145755749Y-103340857D01*
X145632255Y-103420222D01*
X145536123Y-103531163D01*
X145475141Y-103664695D01*
X145475140Y-103664698D01*
X145454250Y-103810000D01*
X136500500Y-103810000D01*
X136500500Y-101280000D01*
X145184250Y-101280000D01*
X145205140Y-101425301D01*
X145205141Y-101425304D01*
X145266123Y-101558836D01*
X145362256Y-101669778D01*
X145485750Y-101749143D01*
X145626601Y-101790500D01*
X145773398Y-101790500D01*
X145773399Y-101790500D01*
X145914250Y-101749143D01*
X146037744Y-101669778D01*
X146133877Y-101558836D01*
X146194859Y-101425304D01*
X146215750Y-101280000D01*
X146194859Y-101134696D01*
X146133877Y-101001164D01*
X146037744Y-100890222D01*
X145914250Y-100810857D01*
X145773399Y-100769500D01*
X145626601Y-100769500D01*
X145485750Y-100810857D01*
X145485749Y-100810857D01*
X145362255Y-100890222D01*
X145266123Y-101001163D01*
X145205141Y-101134695D01*
X145205140Y-101134698D01*
X145184250Y-101280000D01*
X136500500Y-101280000D01*
X136500500Y-100550000D01*
X151014250Y-100550000D01*
X151035140Y-100695301D01*
X151035141Y-100695304D01*
X151096123Y-100828836D01*
X151192256Y-100939778D01*
X151315750Y-101019143D01*
X151456601Y-101060500D01*
X151603398Y-101060500D01*
X151603399Y-101060500D01*
X151744250Y-101019143D01*
X151867744Y-100939778D01*
X151963877Y-100828836D01*
X152024859Y-100695304D01*
X152045750Y-100550000D01*
X152024859Y-100404696D01*
X151963877Y-100271164D01*
X151876217Y-100170000D01*
X154744250Y-100170000D01*
X154765140Y-100315301D01*
X154765141Y-100315304D01*
X154826123Y-100448836D01*
X154922256Y-100559778D01*
X155045750Y-100639143D01*
X155186601Y-100680500D01*
X155333398Y-100680500D01*
X155333399Y-100680500D01*
X155474250Y-100639143D01*
X155597744Y-100559778D01*
X155693877Y-100448836D01*
X155754859Y-100315304D01*
X155775750Y-100170000D01*
X155754859Y-100024696D01*
X155693877Y-99891164D01*
X155597744Y-99780222D01*
X155474250Y-99700857D01*
X155333399Y-99659500D01*
X155186601Y-99659500D01*
X155045750Y-99700857D01*
X155045749Y-99700857D01*
X154922255Y-99780222D01*
X154826123Y-99891163D01*
X154765141Y-100024695D01*
X154765140Y-100024698D01*
X154744250Y-100170000D01*
X151876217Y-100170000D01*
X151867744Y-100160222D01*
X151744250Y-100080857D01*
X151603399Y-100039500D01*
X151456601Y-100039500D01*
X151315750Y-100080857D01*
X151315749Y-100080857D01*
X151192255Y-100160222D01*
X151096123Y-100271163D01*
X151035141Y-100404695D01*
X151035140Y-100404698D01*
X151014250Y-100550000D01*
X136500500Y-100550000D01*
X136500500Y-99730000D01*
X145104250Y-99730000D01*
X145125140Y-99875301D01*
X145125141Y-99875304D01*
X145186123Y-100008836D01*
X145282256Y-100119778D01*
X145405750Y-100199143D01*
X145546601Y-100240500D01*
X145693398Y-100240500D01*
X145693399Y-100240500D01*
X145834250Y-100199143D01*
X145957744Y-100119778D01*
X146053877Y-100008836D01*
X146114859Y-99875304D01*
X146135750Y-99730000D01*
X146114859Y-99584696D01*
X146053877Y-99451164D01*
X145957744Y-99340222D01*
X145834250Y-99260857D01*
X145693399Y-99219500D01*
X145546601Y-99219500D01*
X145405750Y-99260857D01*
X145405749Y-99260857D01*
X145282255Y-99340222D01*
X145186123Y-99451163D01*
X145125141Y-99584695D01*
X145125140Y-99584698D01*
X145104250Y-99730000D01*
X136500500Y-99730000D01*
X136500500Y-98100000D01*
X140254250Y-98100000D01*
X140275140Y-98245301D01*
X140275141Y-98245304D01*
X140336123Y-98378836D01*
X140432256Y-98489778D01*
X140555750Y-98569143D01*
X140696601Y-98610500D01*
X140843398Y-98610500D01*
X140843399Y-98610500D01*
X140984250Y-98569143D01*
X141107744Y-98489778D01*
X141203877Y-98378836D01*
X141264859Y-98245304D01*
X141285750Y-98100000D01*
X141277124Y-98040000D01*
X152274250Y-98040000D01*
X152295140Y-98185301D01*
X152295141Y-98185304D01*
X152356123Y-98318836D01*
X152452256Y-98429778D01*
X152575750Y-98509143D01*
X152716601Y-98550500D01*
X152863398Y-98550500D01*
X152863399Y-98550500D01*
X153004250Y-98509143D01*
X153127744Y-98429778D01*
X153223877Y-98318836D01*
X153284859Y-98185304D01*
X153305750Y-98040000D01*
X153284859Y-97894696D01*
X153223877Y-97761164D01*
X153127744Y-97650222D01*
X153004250Y-97570857D01*
X152863399Y-97529500D01*
X152716601Y-97529500D01*
X152575750Y-97570857D01*
X152575749Y-97570857D01*
X152452255Y-97650222D01*
X152356123Y-97761163D01*
X152295141Y-97894695D01*
X152295140Y-97894698D01*
X152274250Y-98040000D01*
X141277124Y-98040000D01*
X141264859Y-97954696D01*
X141203877Y-97821164D01*
X141107744Y-97710222D01*
X140984250Y-97630857D01*
X140843399Y-97589500D01*
X140696601Y-97589500D01*
X140555750Y-97630857D01*
X140555749Y-97630857D01*
X140432255Y-97710222D01*
X140336123Y-97821163D01*
X140275141Y-97954695D01*
X140275140Y-97954698D01*
X140254250Y-98100000D01*
X136500500Y-98100000D01*
X136500500Y-97210000D01*
X139324250Y-97210000D01*
X139345140Y-97355301D01*
X139345141Y-97355304D01*
X139406123Y-97488836D01*
X139502256Y-97599778D01*
X139625750Y-97679143D01*
X139766601Y-97720500D01*
X139913398Y-97720500D01*
X139913399Y-97720500D01*
X140054250Y-97679143D01*
X140177744Y-97599778D01*
X140273877Y-97488836D01*
X140334859Y-97355304D01*
X140337059Y-97340000D01*
X147224250Y-97340000D01*
X147245140Y-97485301D01*
X147245141Y-97485304D01*
X147306123Y-97618836D01*
X147402256Y-97729778D01*
X147525750Y-97809143D01*
X147666601Y-97850500D01*
X147813398Y-97850500D01*
X147813399Y-97850500D01*
X147954250Y-97809143D01*
X148077744Y-97729778D01*
X148173877Y-97618836D01*
X148234859Y-97485304D01*
X148255750Y-97340000D01*
X148234859Y-97194696D01*
X148173877Y-97061164D01*
X148077744Y-96950222D01*
X147954250Y-96870857D01*
X147813399Y-96829500D01*
X147666601Y-96829500D01*
X147525750Y-96870857D01*
X147525749Y-96870857D01*
X147402255Y-96950222D01*
X147306123Y-97061163D01*
X147245141Y-97194695D01*
X147245140Y-97194698D01*
X147224250Y-97340000D01*
X140337059Y-97340000D01*
X140355750Y-97210000D01*
X140334859Y-97064696D01*
X140273877Y-96931164D01*
X140177744Y-96820222D01*
X140054250Y-96740857D01*
X139913399Y-96699500D01*
X139766601Y-96699500D01*
X139625750Y-96740857D01*
X139625749Y-96740857D01*
X139502255Y-96820222D01*
X139406123Y-96931163D01*
X139345141Y-97064695D01*
X139345140Y-97064698D01*
X139324250Y-97210000D01*
X136500500Y-97210000D01*
X136500500Y-94370000D01*
X141314250Y-94370000D01*
X141335140Y-94515301D01*
X141335141Y-94515304D01*
X141396123Y-94648836D01*
X141492256Y-94759778D01*
X141615750Y-94839143D01*
X141756601Y-94880500D01*
X141903398Y-94880500D01*
X141903399Y-94880500D01*
X142044250Y-94839143D01*
X142167744Y-94759778D01*
X142225545Y-94693071D01*
X142272766Y-94666799D01*
X142325828Y-94677026D01*
X142359903Y-94718969D01*
X142363444Y-94756049D01*
X142354250Y-94819999D01*
X142375140Y-94965301D01*
X142375141Y-94965304D01*
X142436123Y-95098836D01*
X142532256Y-95209778D01*
X142655750Y-95289143D01*
X142796601Y-95330500D01*
X142943398Y-95330500D01*
X142943399Y-95330500D01*
X143084250Y-95289143D01*
X143090697Y-95285000D01*
X143569250Y-95285000D01*
X143590140Y-95430301D01*
X143590141Y-95430304D01*
X143651123Y-95563836D01*
X143747256Y-95674778D01*
X143870750Y-95754143D01*
X144011601Y-95795500D01*
X144158398Y-95795500D01*
X144158399Y-95795500D01*
X144299250Y-95754143D01*
X144422744Y-95674778D01*
X144518877Y-95563836D01*
X144579859Y-95430304D01*
X144600750Y-95285000D01*
X144585654Y-95180000D01*
X145114250Y-95180000D01*
X145135140Y-95325301D01*
X145135141Y-95325304D01*
X145196123Y-95458836D01*
X145292256Y-95569778D01*
X145415750Y-95649143D01*
X145556601Y-95690500D01*
X145703398Y-95690500D01*
X145703399Y-95690500D01*
X145824303Y-95655000D01*
X149869250Y-95655000D01*
X149890140Y-95800301D01*
X149890141Y-95800304D01*
X149951123Y-95933836D01*
X150047256Y-96044778D01*
X150170750Y-96124143D01*
X150311601Y-96165500D01*
X150458398Y-96165500D01*
X150458399Y-96165500D01*
X150477131Y-96160000D01*
X151324250Y-96160000D01*
X151345140Y-96305301D01*
X151345141Y-96305304D01*
X151406123Y-96438836D01*
X151476260Y-96519778D01*
X151502256Y-96549778D01*
X151625750Y-96629143D01*
X151766601Y-96670500D01*
X151913398Y-96670500D01*
X151913399Y-96670500D01*
X152054250Y-96629143D01*
X152177744Y-96549778D01*
X152273877Y-96438836D01*
X152334859Y-96305304D01*
X152355750Y-96160000D01*
X152351437Y-96130000D01*
X153764250Y-96130000D01*
X153785140Y-96275301D01*
X153785141Y-96275304D01*
X153846123Y-96408836D01*
X153942256Y-96519778D01*
X154065750Y-96599143D01*
X154206601Y-96640500D01*
X154353398Y-96640500D01*
X154353399Y-96640500D01*
X154494250Y-96599143D01*
X154617744Y-96519778D01*
X154713877Y-96408836D01*
X154774859Y-96275304D01*
X154795750Y-96130000D01*
X154774859Y-95984696D01*
X154713877Y-95851164D01*
X154617744Y-95740222D01*
X154494250Y-95660857D01*
X154353399Y-95619500D01*
X154206601Y-95619500D01*
X154065750Y-95660857D01*
X154065749Y-95660857D01*
X153942255Y-95740222D01*
X153846123Y-95851163D01*
X153785141Y-95984695D01*
X153785140Y-95984698D01*
X153764250Y-96130000D01*
X152351437Y-96130000D01*
X152334859Y-96014696D01*
X152273877Y-95881164D01*
X152177744Y-95770222D01*
X152054250Y-95690857D01*
X151913399Y-95649500D01*
X151766601Y-95649500D01*
X151625750Y-95690857D01*
X151625749Y-95690857D01*
X151502255Y-95770222D01*
X151406123Y-95881163D01*
X151345141Y-96014695D01*
X151345140Y-96014698D01*
X151324250Y-96160000D01*
X150477131Y-96160000D01*
X150599250Y-96124143D01*
X150722744Y-96044778D01*
X150818877Y-95933836D01*
X150879859Y-95800304D01*
X150900750Y-95655000D01*
X150879859Y-95509696D01*
X150818877Y-95376164D01*
X150722744Y-95265222D01*
X150599250Y-95185857D01*
X150458399Y-95144500D01*
X150311601Y-95144500D01*
X150170750Y-95185857D01*
X150170749Y-95185857D01*
X150047255Y-95265222D01*
X149951123Y-95376163D01*
X149890141Y-95509695D01*
X149890140Y-95509698D01*
X149869250Y-95655000D01*
X145824303Y-95655000D01*
X145844250Y-95649143D01*
X145967744Y-95569778D01*
X146063877Y-95458836D01*
X146124859Y-95325304D01*
X146145750Y-95180000D01*
X146124859Y-95034696D01*
X146063877Y-94901164D01*
X145967744Y-94790222D01*
X145844250Y-94710857D01*
X145703399Y-94669500D01*
X145556601Y-94669500D01*
X145415750Y-94710857D01*
X145415749Y-94710857D01*
X145292255Y-94790222D01*
X145196123Y-94901163D01*
X145135141Y-95034695D01*
X145135140Y-95034698D01*
X145114250Y-95180000D01*
X144585654Y-95180000D01*
X144579859Y-95139696D01*
X144518877Y-95006164D01*
X144422744Y-94895222D01*
X144299250Y-94815857D01*
X144158399Y-94774500D01*
X144011601Y-94774500D01*
X143870750Y-94815857D01*
X143870749Y-94815857D01*
X143747255Y-94895222D01*
X143651123Y-95006163D01*
X143590141Y-95139695D01*
X143590140Y-95139698D01*
X143569250Y-95285000D01*
X143090697Y-95285000D01*
X143207744Y-95209778D01*
X143303877Y-95098836D01*
X143364859Y-94965304D01*
X143385750Y-94820000D01*
X143366785Y-94688091D01*
X143377853Y-94635198D01*
X143420331Y-94601793D01*
X143474343Y-94603508D01*
X143481553Y-94607226D01*
X143485744Y-94609139D01*
X143485750Y-94609143D01*
X143626601Y-94650500D01*
X143773398Y-94650500D01*
X143773399Y-94650500D01*
X143914250Y-94609143D01*
X144037744Y-94529778D01*
X144133877Y-94418836D01*
X144194859Y-94285304D01*
X144215750Y-94140000D01*
X144208729Y-94091164D01*
X144205759Y-94070508D01*
X144216827Y-94017615D01*
X144259305Y-93984210D01*
X144313317Y-93985925D01*
X144343656Y-94007530D01*
X144432256Y-94109778D01*
X144555750Y-94189143D01*
X144696601Y-94230500D01*
X144843398Y-94230500D01*
X144843399Y-94230500D01*
X144984250Y-94189143D01*
X145107744Y-94109778D01*
X145203877Y-93998836D01*
X145264859Y-93865304D01*
X145285750Y-93720000D01*
X145264859Y-93574696D01*
X145203877Y-93441164D01*
X145107744Y-93330222D01*
X144984250Y-93250857D01*
X144843399Y-93209500D01*
X144696601Y-93209500D01*
X144555750Y-93250857D01*
X144555749Y-93250857D01*
X144432255Y-93330222D01*
X144336123Y-93441163D01*
X144275141Y-93574695D01*
X144275140Y-93574698D01*
X144254250Y-93720000D01*
X144264240Y-93789491D01*
X144253172Y-93842385D01*
X144210693Y-93875789D01*
X144156681Y-93874074D01*
X144126342Y-93852468D01*
X144037744Y-93750222D01*
X143914250Y-93670857D01*
X143773399Y-93629500D01*
X143626601Y-93629500D01*
X143485750Y-93670857D01*
X143485749Y-93670857D01*
X143362255Y-93750222D01*
X143266123Y-93861163D01*
X143205141Y-93994695D01*
X143205140Y-93994698D01*
X143184250Y-94140000D01*
X143203214Y-94271908D01*
X143192146Y-94324802D01*
X143149668Y-94358206D01*
X143095656Y-94356491D01*
X143088446Y-94352773D01*
X143084252Y-94350858D01*
X143084250Y-94350857D01*
X142943399Y-94309500D01*
X142796601Y-94309500D01*
X142655750Y-94350857D01*
X142655749Y-94350857D01*
X142532256Y-94430221D01*
X142474455Y-94496927D01*
X142427232Y-94523200D01*
X142374170Y-94512972D01*
X142340096Y-94471029D01*
X142336555Y-94433952D01*
X142345750Y-94370000D01*
X142324859Y-94224696D01*
X142263877Y-94091164D01*
X142167744Y-93980222D01*
X142044250Y-93900857D01*
X141903399Y-93859500D01*
X141756601Y-93859500D01*
X141615750Y-93900857D01*
X141615749Y-93900857D01*
X141492255Y-93980222D01*
X141396123Y-94091163D01*
X141335141Y-94224695D01*
X141335140Y-94224698D01*
X141314250Y-94370000D01*
X136500500Y-94370000D01*
X136500500Y-93140000D01*
X147924250Y-93140000D01*
X147945140Y-93285301D01*
X147945141Y-93285304D01*
X148006123Y-93418836D01*
X148102256Y-93529778D01*
X148225750Y-93609143D01*
X148366601Y-93650500D01*
X148513398Y-93650500D01*
X148513399Y-93650500D01*
X148654250Y-93609143D01*
X148777744Y-93529778D01*
X148873877Y-93418836D01*
X148873877Y-93418835D01*
X148877577Y-93414566D01*
X148878634Y-93415482D01*
X148916542Y-93386632D01*
X148970520Y-93389203D01*
X149001598Y-93415280D01*
X149002423Y-93414566D01*
X149006122Y-93418835D01*
X149006123Y-93418836D01*
X149102256Y-93529778D01*
X149225750Y-93609143D01*
X149366601Y-93650500D01*
X149513398Y-93650500D01*
X149513399Y-93650500D01*
X149654250Y-93609143D01*
X149777744Y-93529778D01*
X149870297Y-93422967D01*
X149917518Y-93396694D01*
X149970581Y-93406921D01*
X149989701Y-93422966D01*
X150082256Y-93529778D01*
X150205750Y-93609143D01*
X150346601Y-93650500D01*
X150493398Y-93650500D01*
X150493399Y-93650500D01*
X150634250Y-93609143D01*
X150757744Y-93529778D01*
X150818208Y-93460000D01*
X153214250Y-93460000D01*
X153235140Y-93605301D01*
X153235141Y-93605304D01*
X153296123Y-93738836D01*
X153392256Y-93849778D01*
X153515750Y-93929143D01*
X153656601Y-93970500D01*
X153803398Y-93970500D01*
X153803399Y-93970500D01*
X153944250Y-93929143D01*
X154067744Y-93849778D01*
X154163877Y-93738836D01*
X154224859Y-93605304D01*
X154245750Y-93460000D01*
X154224859Y-93314696D01*
X154163877Y-93181164D01*
X154067744Y-93070222D01*
X153944250Y-92990857D01*
X153803399Y-92949500D01*
X153656601Y-92949500D01*
X153515750Y-92990857D01*
X153515749Y-92990857D01*
X153392255Y-93070222D01*
X153296123Y-93181163D01*
X153235141Y-93314695D01*
X153235140Y-93314698D01*
X153214250Y-93460000D01*
X150818208Y-93460000D01*
X150853877Y-93418836D01*
X150914859Y-93285304D01*
X150935750Y-93140000D01*
X150914859Y-92994696D01*
X150853877Y-92861164D01*
X150757744Y-92750222D01*
X150634250Y-92670857D01*
X150493399Y-92629500D01*
X150346601Y-92629500D01*
X150205750Y-92670857D01*
X150205749Y-92670857D01*
X150082255Y-92750222D01*
X149989704Y-92857031D01*
X149942482Y-92883305D01*
X149889419Y-92873077D01*
X149870296Y-92857031D01*
X149777744Y-92750222D01*
X149654250Y-92670857D01*
X149513399Y-92629500D01*
X149366601Y-92629500D01*
X149225750Y-92670857D01*
X149225749Y-92670857D01*
X149102255Y-92750222D01*
X149002423Y-92865434D01*
X149001366Y-92864518D01*
X148963450Y-92893369D01*
X148909472Y-92890793D01*
X148878400Y-92864720D01*
X148877577Y-92865434D01*
X148777744Y-92750222D01*
X148654250Y-92670857D01*
X148513399Y-92629500D01*
X148366601Y-92629500D01*
X148225750Y-92670857D01*
X148225749Y-92670857D01*
X148102255Y-92750222D01*
X148006123Y-92861163D01*
X147945141Y-92994695D01*
X147945140Y-92994698D01*
X147924250Y-93140000D01*
X136500500Y-93140000D01*
X136500500Y-92300000D01*
X145564250Y-92300000D01*
X145585140Y-92445301D01*
X145585141Y-92445304D01*
X145646123Y-92578836D01*
X145742256Y-92689778D01*
X145865750Y-92769143D01*
X146006601Y-92810500D01*
X146153398Y-92810500D01*
X146153399Y-92810500D01*
X146294250Y-92769143D01*
X146417744Y-92689778D01*
X146513877Y-92578836D01*
X146574859Y-92445304D01*
X146595750Y-92300000D01*
X146574859Y-92154696D01*
X146513877Y-92021164D01*
X146417744Y-91910222D01*
X146294250Y-91830857D01*
X146153399Y-91789500D01*
X146006601Y-91789500D01*
X145865750Y-91830857D01*
X145865749Y-91830857D01*
X145742255Y-91910222D01*
X145646123Y-92021163D01*
X145585141Y-92154695D01*
X145585140Y-92154698D01*
X145564250Y-92300000D01*
X136500500Y-92300000D01*
X136500500Y-91079000D01*
X136518982Y-91028220D01*
X136565782Y-91001200D01*
X136579500Y-91000000D01*
X157420500Y-91000000D01*
X157471280Y-91018482D01*
G37*
%TD.AperFunction*%
%TD*%
M02*
