%TF.GenerationSoftware,KiCad,Pcbnew,8.0.5*%
%TF.CreationDate,2024-11-16T16:31:19+01:00*%
%TF.ProjectId,C8W1B1V1.0,43385731-4231-4563-912e-302e6b696361,rev?*%
%TF.SameCoordinates,Original*%
%TF.FileFunction,Copper,L3,Inr*%
%TF.FilePolarity,Positive*%
%FSLAX46Y46*%
G04 Gerber Fmt 4.6, Leading zero omitted, Abs format (unit mm)*
G04 Created by KiCad (PCBNEW 8.0.5) date 2024-11-16 16:31:19*
%MOMM*%
%LPD*%
G01*
G04 APERTURE LIST*
%TA.AperFunction,ComponentPad*%
%ADD10R,1.700000X1.700000*%
%TD*%
%TA.AperFunction,ComponentPad*%
%ADD11O,1.700000X1.700000*%
%TD*%
%TA.AperFunction,ComponentPad*%
%ADD12C,1.000000*%
%TD*%
%TA.AperFunction,ViaPad*%
%ADD13C,0.700000*%
%TD*%
G04 APERTURE END LIST*
D10*
%TO.N,U_RX*%
%TO.C,J1*%
X140530000Y-125000000D03*
D11*
%TO.N,STM_NRST*%
X143070000Y-125000000D03*
%TO.N,GND*%
X145610000Y-125000000D03*
%TO.N,+3V3*%
X148150000Y-125000000D03*
%TO.N,U_TX*%
X150690000Y-125000000D03*
%TO.N,STM_SWDIO*%
X153230000Y-125000000D03*
%TO.N,STM_SWCLK*%
X155770000Y-125000000D03*
%TD*%
D12*
%TO.N,*%
%TO.C,AE1*%
X137940000Y-79970000D03*
X139940000Y-79970000D03*
X139940000Y-84970000D03*
X141940000Y-79970000D03*
X141940000Y-84970000D03*
X143940000Y-79970000D03*
X143940000Y-84970000D03*
X145940000Y-79970000D03*
X145940000Y-84970000D03*
X147940000Y-79970000D03*
X147940000Y-84970000D03*
X149940000Y-79970000D03*
X149940000Y-84970000D03*
X151940000Y-79970000D03*
X151940000Y-84970000D03*
X153940000Y-79970000D03*
X153940000Y-84970000D03*
X155940000Y-79970000D03*
X155940000Y-84970000D03*
%TD*%
D13*
%TO.N,GND*%
X147610000Y-116920000D03*
X145700000Y-101280000D03*
X146100000Y-104990000D03*
X154280000Y-96130000D03*
X153610000Y-110230000D03*
X155260000Y-100170000D03*
X152790000Y-98040000D03*
X145970000Y-103810000D03*
X142870000Y-94820000D03*
X141880000Y-111200000D03*
X151840000Y-96160000D03*
X141830000Y-94370000D03*
X140770000Y-98100000D03*
X151530000Y-100550000D03*
X150420000Y-93140000D03*
X146080000Y-92300000D03*
X147740000Y-97340000D03*
X145620000Y-99730000D03*
X154760000Y-111850000D03*
X139840000Y-97210000D03*
X148440000Y-93140000D03*
X147470000Y-111170000D03*
X156240000Y-111810000D03*
X149440000Y-93140000D03*
X143700000Y-94140000D03*
X144085000Y-95285000D03*
X150550000Y-114790000D03*
%TO.N,Net-(IC2-VR_RF)*%
X144770000Y-93720000D03*
X145630000Y-95180000D03*
%TO.N,+3V3*%
X143650000Y-118230000D03*
X143680000Y-109170000D03*
X143140000Y-98360000D03*
X151860000Y-94170000D03*
X145070000Y-118200000D03*
X150740000Y-116170000D03*
X150800000Y-119040000D03*
X150630000Y-101550000D03*
X147930000Y-94100000D03*
%TO.N,S2LP_SDN*%
X153730000Y-93460000D03*
X150385000Y-95655000D03*
%TO.N,MEM_MOSI*%
X148930000Y-114910000D03*
X147450000Y-118310000D03*
%TO.N,FLASH_CS*%
X142780000Y-118280000D03*
X146400000Y-118390000D03*
%TO.N,MEM_MISO*%
X145950000Y-115162194D03*
X147640000Y-114820000D03*
%TO.N,S2LP_CLK*%
X145130000Y-105150000D03*
X144260000Y-107180000D03*
%TO.N,S2LP_MOSI*%
X145190000Y-107470000D03*
X145150000Y-106110000D03*
%TD*%
%TA.AperFunction,Conductor*%
%TO.N,GND*%
G36*
X157471280Y-91018482D02*
G01*
X157498300Y-91065282D01*
X157499500Y-91079000D01*
X157499500Y-124420500D01*
X157481018Y-124471280D01*
X157434218Y-124498300D01*
X157420500Y-124499500D01*
X156695622Y-124499500D01*
X156644842Y-124481018D01*
X156625951Y-124457742D01*
X156620701Y-124447921D01*
X156614265Y-124435880D01*
X156488279Y-124282366D01*
X156487988Y-124282011D01*
X156334121Y-124155735D01*
X156158569Y-124061901D01*
X155968099Y-124004122D01*
X155968095Y-124004121D01*
X155770000Y-123984611D01*
X155571904Y-124004121D01*
X155571900Y-124004122D01*
X155381430Y-124061901D01*
X155381429Y-124061901D01*
X155205878Y-124155735D01*
X155052011Y-124282011D01*
X154925735Y-124435879D01*
X154914049Y-124457742D01*
X154873810Y-124493813D01*
X154844378Y-124499500D01*
X154155622Y-124499500D01*
X154104842Y-124481018D01*
X154085951Y-124457742D01*
X154080701Y-124447921D01*
X154074265Y-124435880D01*
X153948279Y-124282366D01*
X153947988Y-124282011D01*
X153794121Y-124155735D01*
X153618569Y-124061901D01*
X153428099Y-124004122D01*
X153428095Y-124004121D01*
X153230000Y-123984611D01*
X153031904Y-124004121D01*
X153031900Y-124004122D01*
X152841430Y-124061901D01*
X152841429Y-124061901D01*
X152665878Y-124155735D01*
X152512011Y-124282011D01*
X152385735Y-124435879D01*
X152374049Y-124457742D01*
X152333810Y-124493813D01*
X152304378Y-124499500D01*
X151615622Y-124499500D01*
X151564842Y-124481018D01*
X151545951Y-124457742D01*
X151540701Y-124447921D01*
X151534265Y-124435880D01*
X151408279Y-124282366D01*
X151407988Y-124282011D01*
X151254121Y-124155735D01*
X151078569Y-124061901D01*
X150888099Y-124004122D01*
X150888095Y-124004121D01*
X150690000Y-123984611D01*
X150491904Y-124004121D01*
X150491900Y-124004122D01*
X150301430Y-124061901D01*
X150301429Y-124061901D01*
X150125878Y-124155735D01*
X149972011Y-124282011D01*
X149845735Y-124435879D01*
X149834049Y-124457742D01*
X149793810Y-124493813D01*
X149764378Y-124499500D01*
X149075622Y-124499500D01*
X149024842Y-124481018D01*
X149005951Y-124457742D01*
X149000701Y-124447921D01*
X148994265Y-124435880D01*
X148868279Y-124282366D01*
X148867988Y-124282011D01*
X148714121Y-124155735D01*
X148538569Y-124061901D01*
X148348099Y-124004122D01*
X148348095Y-124004121D01*
X148150000Y-123984611D01*
X147951904Y-124004121D01*
X147951900Y-124004122D01*
X147761430Y-124061901D01*
X147761429Y-124061901D01*
X147585878Y-124155735D01*
X147432011Y-124282011D01*
X147305735Y-124435879D01*
X147294049Y-124457742D01*
X147253810Y-124493813D01*
X147224378Y-124499500D01*
X146535055Y-124499500D01*
X146484275Y-124481018D01*
X146465383Y-124457741D01*
X146453845Y-124436156D01*
X146327633Y-124282366D01*
X146173842Y-124156153D01*
X145998375Y-124062365D01*
X145808001Y-124004615D01*
X145807998Y-124004614D01*
X145690000Y-123992992D01*
X145690000Y-124420500D01*
X145671518Y-124471280D01*
X145624718Y-124498300D01*
X145611000Y-124499500D01*
X145609000Y-124499500D01*
X145558220Y-124481018D01*
X145531200Y-124434218D01*
X145530000Y-124420500D01*
X145530000Y-123992992D01*
X145412001Y-124004614D01*
X145411998Y-124004615D01*
X145221624Y-124062365D01*
X145221623Y-124062365D01*
X145046157Y-124156153D01*
X144892366Y-124282366D01*
X144766154Y-124436156D01*
X144754617Y-124457741D01*
X144714379Y-124493812D01*
X144684945Y-124499500D01*
X143995622Y-124499500D01*
X143944842Y-124481018D01*
X143925951Y-124457742D01*
X143920701Y-124447921D01*
X143914265Y-124435880D01*
X143788279Y-124282366D01*
X143787988Y-124282011D01*
X143634121Y-124155735D01*
X143458569Y-124061901D01*
X143268099Y-124004122D01*
X143268095Y-124004121D01*
X143070000Y-123984611D01*
X142871904Y-124004121D01*
X142871900Y-124004122D01*
X142681430Y-124061901D01*
X142681429Y-124061901D01*
X142505878Y-124155735D01*
X142352011Y-124282011D01*
X142225735Y-124435879D01*
X142214049Y-124457742D01*
X142173810Y-124493813D01*
X142144378Y-124499500D01*
X141619500Y-124499500D01*
X141568720Y-124481018D01*
X141541700Y-124434218D01*
X141540500Y-124420500D01*
X141540500Y-124134194D01*
X141531187Y-124087376D01*
X141495714Y-124034285D01*
X141451306Y-124004614D01*
X141442624Y-123998813D01*
X141442623Y-123998812D01*
X141395806Y-123989500D01*
X139664194Y-123989500D01*
X139617376Y-123998812D01*
X139564285Y-124034285D01*
X139528812Y-124087376D01*
X139519500Y-124134194D01*
X139519500Y-124420500D01*
X139501018Y-124471280D01*
X139454218Y-124498300D01*
X139440500Y-124499500D01*
X136579500Y-124499500D01*
X136528720Y-124481018D01*
X136501700Y-124434218D01*
X136500500Y-124420500D01*
X136500500Y-119040000D01*
X150284250Y-119040000D01*
X150305140Y-119185301D01*
X150305141Y-119185304D01*
X150366123Y-119318836D01*
X150462256Y-119429778D01*
X150585750Y-119509143D01*
X150726601Y-119550500D01*
X150873398Y-119550500D01*
X150873399Y-119550500D01*
X151014250Y-119509143D01*
X151137744Y-119429778D01*
X151233877Y-119318836D01*
X151294859Y-119185304D01*
X151315750Y-119040000D01*
X151294859Y-118894696D01*
X151233877Y-118761164D01*
X151137744Y-118650222D01*
X151014250Y-118570857D01*
X150873399Y-118529500D01*
X150726601Y-118529500D01*
X150585750Y-118570857D01*
X150585749Y-118570857D01*
X150462255Y-118650222D01*
X150366123Y-118761163D01*
X150305141Y-118894695D01*
X150305140Y-118894698D01*
X150284250Y-119040000D01*
X136500500Y-119040000D01*
X136500500Y-118280000D01*
X142264250Y-118280000D01*
X142285140Y-118425301D01*
X142285141Y-118425304D01*
X142346123Y-118558836D01*
X142442256Y-118669778D01*
X142565750Y-118749143D01*
X142706601Y-118790500D01*
X142853398Y-118790500D01*
X142853399Y-118790500D01*
X142994250Y-118749143D01*
X143117744Y-118669778D01*
X143176960Y-118601439D01*
X143224180Y-118575167D01*
X143277242Y-118585394D01*
X143296365Y-118601440D01*
X143312254Y-118619776D01*
X143312256Y-118619778D01*
X143435750Y-118699143D01*
X143576601Y-118740500D01*
X143723398Y-118740500D01*
X143723399Y-118740500D01*
X143864250Y-118699143D01*
X143987744Y-118619778D01*
X144083877Y-118508836D01*
X144144859Y-118375304D01*
X144165750Y-118230000D01*
X144161437Y-118200000D01*
X144554250Y-118200000D01*
X144575140Y-118345301D01*
X144575141Y-118345304D01*
X144636123Y-118478836D01*
X144729551Y-118586657D01*
X144732256Y-118589778D01*
X144855750Y-118669143D01*
X144996601Y-118710500D01*
X145143398Y-118710500D01*
X145143399Y-118710500D01*
X145284250Y-118669143D01*
X145407744Y-118589778D01*
X145503877Y-118478836D01*
X145544447Y-118390000D01*
X145884250Y-118390000D01*
X145905140Y-118535301D01*
X145905141Y-118535304D01*
X145966123Y-118668836D01*
X146002225Y-118710500D01*
X146062256Y-118779778D01*
X146185750Y-118859143D01*
X146326601Y-118900500D01*
X146473398Y-118900500D01*
X146473399Y-118900500D01*
X146614250Y-118859143D01*
X146737744Y-118779778D01*
X146833877Y-118668836D01*
X146871406Y-118586657D01*
X146909313Y-118548144D01*
X146963107Y-118543007D01*
X147007618Y-118573650D01*
X147015128Y-118586657D01*
X147016123Y-118588836D01*
X147086260Y-118669778D01*
X147112256Y-118699778D01*
X147235750Y-118779143D01*
X147376601Y-118820500D01*
X147523398Y-118820500D01*
X147523399Y-118820500D01*
X147664250Y-118779143D01*
X147787744Y-118699778D01*
X147883877Y-118588836D01*
X147944859Y-118455304D01*
X147965750Y-118310000D01*
X147944859Y-118164696D01*
X147883877Y-118031164D01*
X147787744Y-117920222D01*
X147664250Y-117840857D01*
X147523399Y-117799500D01*
X147376601Y-117799500D01*
X147235750Y-117840857D01*
X147235749Y-117840857D01*
X147112255Y-117920222D01*
X147016123Y-118031163D01*
X146978593Y-118113342D01*
X146940685Y-118151855D01*
X146886891Y-118156992D01*
X146842380Y-118126348D01*
X146834869Y-118113337D01*
X146833877Y-118111164D01*
X146737744Y-118000222D01*
X146614250Y-117920857D01*
X146473399Y-117879500D01*
X146326601Y-117879500D01*
X146185750Y-117920857D01*
X146185749Y-117920857D01*
X146062255Y-118000222D01*
X145966123Y-118111163D01*
X145905141Y-118244695D01*
X145905140Y-118244698D01*
X145884250Y-118390000D01*
X145544447Y-118390000D01*
X145564859Y-118345304D01*
X145585750Y-118200000D01*
X145564859Y-118054696D01*
X145503877Y-117921164D01*
X145407744Y-117810222D01*
X145284250Y-117730857D01*
X145143399Y-117689500D01*
X144996601Y-117689500D01*
X144855750Y-117730857D01*
X144855749Y-117730857D01*
X144732255Y-117810222D01*
X144636123Y-117921163D01*
X144575141Y-118054695D01*
X144575140Y-118054698D01*
X144554250Y-118200000D01*
X144161437Y-118200000D01*
X144144859Y-118084696D01*
X144083877Y-117951164D01*
X143987744Y-117840222D01*
X143864250Y-117760857D01*
X143723399Y-117719500D01*
X143576601Y-117719500D01*
X143435750Y-117760857D01*
X143435749Y-117760857D01*
X143312256Y-117840221D01*
X143253041Y-117908559D01*
X143205818Y-117934832D01*
X143152756Y-117924604D01*
X143133634Y-117908559D01*
X143117745Y-117890223D01*
X143117744Y-117890222D01*
X142994250Y-117810857D01*
X142853399Y-117769500D01*
X142706601Y-117769500D01*
X142565750Y-117810857D01*
X142565749Y-117810857D01*
X142442255Y-117890222D01*
X142346123Y-118001163D01*
X142285141Y-118134695D01*
X142285140Y-118134698D01*
X142264250Y-118280000D01*
X136500500Y-118280000D01*
X136500500Y-116170000D01*
X150224250Y-116170000D01*
X150245140Y-116315301D01*
X150245141Y-116315304D01*
X150306123Y-116448836D01*
X150402256Y-116559778D01*
X150525750Y-116639143D01*
X150666601Y-116680500D01*
X150813398Y-116680500D01*
X150813399Y-116680500D01*
X150954250Y-116639143D01*
X151077744Y-116559778D01*
X151173877Y-116448836D01*
X151234859Y-116315304D01*
X151255750Y-116170000D01*
X151234859Y-116024696D01*
X151173877Y-115891164D01*
X151077744Y-115780222D01*
X150954250Y-115700857D01*
X150813399Y-115659500D01*
X150666601Y-115659500D01*
X150525750Y-115700857D01*
X150525749Y-115700857D01*
X150402255Y-115780222D01*
X150306123Y-115891163D01*
X150245141Y-116024695D01*
X150245140Y-116024698D01*
X150224250Y-116170000D01*
X136500500Y-116170000D01*
X136500500Y-115162194D01*
X145434250Y-115162194D01*
X145455140Y-115307495D01*
X145455141Y-115307498D01*
X145516123Y-115441030D01*
X145612256Y-115551972D01*
X145735750Y-115631337D01*
X145876601Y-115672694D01*
X146023398Y-115672694D01*
X146023399Y-115672694D01*
X146164250Y-115631337D01*
X146287744Y-115551972D01*
X146383877Y-115441030D01*
X146444859Y-115307498D01*
X146465750Y-115162194D01*
X146444859Y-115016890D01*
X146383877Y-114883358D01*
X146328976Y-114820000D01*
X147124250Y-114820000D01*
X147145140Y-114965301D01*
X147145141Y-114965304D01*
X147206123Y-115098836D01*
X147302256Y-115209778D01*
X147425750Y-115289143D01*
X147566601Y-115330500D01*
X147713398Y-115330500D01*
X147713399Y-115330500D01*
X147854250Y-115289143D01*
X147977744Y-115209778D01*
X148073877Y-115098836D01*
X148134859Y-114965304D01*
X148142810Y-114910000D01*
X148414250Y-114910000D01*
X148435140Y-115055301D01*
X148435141Y-115055304D01*
X148496123Y-115188836D01*
X148583040Y-115289143D01*
X148592256Y-115299778D01*
X148715750Y-115379143D01*
X148856601Y-115420500D01*
X149003398Y-115420500D01*
X149003399Y-115420500D01*
X149144250Y-115379143D01*
X149267744Y-115299778D01*
X149363877Y-115188836D01*
X149424859Y-115055304D01*
X149445750Y-114910000D01*
X149424859Y-114764696D01*
X149363877Y-114631164D01*
X149267744Y-114520222D01*
X149144250Y-114440857D01*
X149003399Y-114399500D01*
X148856601Y-114399500D01*
X148715750Y-114440857D01*
X148715749Y-114440857D01*
X148592255Y-114520222D01*
X148496123Y-114631163D01*
X148435141Y-114764695D01*
X148435140Y-114764698D01*
X148414250Y-114910000D01*
X148142810Y-114910000D01*
X148155750Y-114820000D01*
X148134859Y-114674696D01*
X148073877Y-114541164D01*
X147977744Y-114430222D01*
X147854250Y-114350857D01*
X147713399Y-114309500D01*
X147566601Y-114309500D01*
X147425750Y-114350857D01*
X147425749Y-114350857D01*
X147302255Y-114430222D01*
X147206123Y-114541163D01*
X147145141Y-114674695D01*
X147145140Y-114674698D01*
X147124250Y-114820000D01*
X146328976Y-114820000D01*
X146287744Y-114772416D01*
X146164250Y-114693051D01*
X146023399Y-114651694D01*
X145876601Y-114651694D01*
X145735750Y-114693051D01*
X145735749Y-114693051D01*
X145612255Y-114772416D01*
X145516123Y-114883357D01*
X145455141Y-115016889D01*
X145455140Y-115016892D01*
X145434250Y-115162194D01*
X136500500Y-115162194D01*
X136500500Y-109170000D01*
X143164250Y-109170000D01*
X143185140Y-109315301D01*
X143185141Y-109315304D01*
X143246123Y-109448836D01*
X143342256Y-109559778D01*
X143465750Y-109639143D01*
X143606601Y-109680500D01*
X143753398Y-109680500D01*
X143753399Y-109680500D01*
X143894250Y-109639143D01*
X144017744Y-109559778D01*
X144113877Y-109448836D01*
X144174859Y-109315304D01*
X144195750Y-109170000D01*
X144174859Y-109024696D01*
X144113877Y-108891164D01*
X144017744Y-108780222D01*
X143894250Y-108700857D01*
X143753399Y-108659500D01*
X143606601Y-108659500D01*
X143465750Y-108700857D01*
X143465749Y-108700857D01*
X143342255Y-108780222D01*
X143246123Y-108891163D01*
X143185141Y-109024695D01*
X143185140Y-109024698D01*
X143164250Y-109170000D01*
X136500500Y-109170000D01*
X136500500Y-107180000D01*
X143744250Y-107180000D01*
X143765140Y-107325301D01*
X143765141Y-107325304D01*
X143826123Y-107458836D01*
X143922256Y-107569778D01*
X144045750Y-107649143D01*
X144186601Y-107690500D01*
X144333398Y-107690500D01*
X144333399Y-107690500D01*
X144474250Y-107649143D01*
X144580272Y-107581006D01*
X144632980Y-107569101D01*
X144681012Y-107593863D01*
X144694841Y-107614648D01*
X144729482Y-107690500D01*
X144756123Y-107748836D01*
X144852256Y-107859778D01*
X144975750Y-107939143D01*
X145116601Y-107980500D01*
X145263398Y-107980500D01*
X145263399Y-107980500D01*
X145404250Y-107939143D01*
X145527744Y-107859778D01*
X145623877Y-107748836D01*
X145684859Y-107615304D01*
X145705750Y-107470000D01*
X145684859Y-107324696D01*
X145623877Y-107191164D01*
X145527744Y-107080222D01*
X145404250Y-107000857D01*
X145263399Y-106959500D01*
X145116601Y-106959500D01*
X144975750Y-107000857D01*
X144975749Y-107000857D01*
X144869730Y-107068992D01*
X144817018Y-107080897D01*
X144768986Y-107056135D01*
X144755158Y-107035351D01*
X144754859Y-107034696D01*
X144693877Y-106901164D01*
X144597744Y-106790222D01*
X144474250Y-106710857D01*
X144333399Y-106669500D01*
X144186601Y-106669500D01*
X144045750Y-106710857D01*
X144045749Y-106710857D01*
X143922255Y-106790222D01*
X143826123Y-106901163D01*
X143765141Y-107034695D01*
X143765140Y-107034698D01*
X143744250Y-107180000D01*
X136500500Y-107180000D01*
X136500500Y-105150000D01*
X144614250Y-105150000D01*
X144635140Y-105295301D01*
X144635141Y-105295304D01*
X144696123Y-105428836D01*
X144792255Y-105539777D01*
X144792256Y-105539778D01*
X144839231Y-105569967D01*
X144871958Y-105612969D01*
X144869387Y-105666947D01*
X144839233Y-105702884D01*
X144812256Y-105720221D01*
X144812255Y-105720222D01*
X144716123Y-105831163D01*
X144655141Y-105964695D01*
X144655140Y-105964698D01*
X144634250Y-106110000D01*
X144655140Y-106255301D01*
X144655141Y-106255304D01*
X144716123Y-106388836D01*
X144812256Y-106499778D01*
X144935750Y-106579143D01*
X145076601Y-106620500D01*
X145223398Y-106620500D01*
X145223399Y-106620500D01*
X145364250Y-106579143D01*
X145487744Y-106499778D01*
X145583877Y-106388836D01*
X145644859Y-106255304D01*
X145665750Y-106110000D01*
X145644859Y-105964696D01*
X145583877Y-105831164D01*
X145487744Y-105720222D01*
X145440766Y-105690031D01*
X145408041Y-105647030D01*
X145410612Y-105593052D01*
X145440765Y-105557116D01*
X145467744Y-105539778D01*
X145563877Y-105428836D01*
X145624859Y-105295304D01*
X145645750Y-105150000D01*
X145624859Y-105004696D01*
X145563877Y-104871164D01*
X145467744Y-104760222D01*
X145344250Y-104680857D01*
X145203399Y-104639500D01*
X145056601Y-104639500D01*
X144915750Y-104680857D01*
X144915749Y-104680857D01*
X144792255Y-104760222D01*
X144696123Y-104871163D01*
X144635141Y-105004695D01*
X144635140Y-105004698D01*
X144614250Y-105150000D01*
X136500500Y-105150000D01*
X136500500Y-101550000D01*
X150114250Y-101550000D01*
X150135140Y-101695301D01*
X150135141Y-101695304D01*
X150196123Y-101828836D01*
X150292256Y-101939778D01*
X150415750Y-102019143D01*
X150556601Y-102060500D01*
X150703398Y-102060500D01*
X150703399Y-102060500D01*
X150844250Y-102019143D01*
X150967744Y-101939778D01*
X151063877Y-101828836D01*
X151124859Y-101695304D01*
X151145750Y-101550000D01*
X151124859Y-101404696D01*
X151063877Y-101271164D01*
X150967744Y-101160222D01*
X150844250Y-101080857D01*
X150703399Y-101039500D01*
X150556601Y-101039500D01*
X150415750Y-101080857D01*
X150415749Y-101080857D01*
X150292255Y-101160222D01*
X150196123Y-101271163D01*
X150135141Y-101404695D01*
X150135140Y-101404698D01*
X150114250Y-101550000D01*
X136500500Y-101550000D01*
X136500500Y-98360000D01*
X142624250Y-98360000D01*
X142645140Y-98505301D01*
X142645141Y-98505304D01*
X142706123Y-98638836D01*
X142802256Y-98749778D01*
X142925750Y-98829143D01*
X143066601Y-98870500D01*
X143213398Y-98870500D01*
X143213399Y-98870500D01*
X143354250Y-98829143D01*
X143477744Y-98749778D01*
X143573877Y-98638836D01*
X143634859Y-98505304D01*
X143655750Y-98360000D01*
X143634859Y-98214696D01*
X143573877Y-98081164D01*
X143477744Y-97970222D01*
X143354250Y-97890857D01*
X143213399Y-97849500D01*
X143066601Y-97849500D01*
X142925750Y-97890857D01*
X142925749Y-97890857D01*
X142802255Y-97970222D01*
X142706123Y-98081163D01*
X142645141Y-98214695D01*
X142645140Y-98214698D01*
X142624250Y-98360000D01*
X136500500Y-98360000D01*
X136500500Y-95180000D01*
X145114250Y-95180000D01*
X145135140Y-95325301D01*
X145135141Y-95325304D01*
X145196123Y-95458836D01*
X145292256Y-95569778D01*
X145415750Y-95649143D01*
X145556601Y-95690500D01*
X145703398Y-95690500D01*
X145703399Y-95690500D01*
X145824303Y-95655000D01*
X149869250Y-95655000D01*
X149890140Y-95800301D01*
X149890141Y-95800304D01*
X149951123Y-95933836D01*
X150047256Y-96044778D01*
X150170750Y-96124143D01*
X150311601Y-96165500D01*
X150458398Y-96165500D01*
X150458399Y-96165500D01*
X150599250Y-96124143D01*
X150722744Y-96044778D01*
X150818877Y-95933836D01*
X150879859Y-95800304D01*
X150900750Y-95655000D01*
X150879859Y-95509696D01*
X150818877Y-95376164D01*
X150722744Y-95265222D01*
X150599250Y-95185857D01*
X150458399Y-95144500D01*
X150311601Y-95144500D01*
X150170750Y-95185857D01*
X150170749Y-95185857D01*
X150047255Y-95265222D01*
X149951123Y-95376163D01*
X149890141Y-95509695D01*
X149890140Y-95509698D01*
X149869250Y-95655000D01*
X145824303Y-95655000D01*
X145844250Y-95649143D01*
X145967744Y-95569778D01*
X146063877Y-95458836D01*
X146124859Y-95325304D01*
X146145750Y-95180000D01*
X146124859Y-95034696D01*
X146063877Y-94901164D01*
X145967744Y-94790222D01*
X145844250Y-94710857D01*
X145703399Y-94669500D01*
X145556601Y-94669500D01*
X145415750Y-94710857D01*
X145415749Y-94710857D01*
X145292255Y-94790222D01*
X145196123Y-94901163D01*
X145135141Y-95034695D01*
X145135140Y-95034698D01*
X145114250Y-95180000D01*
X136500500Y-95180000D01*
X136500500Y-93720000D01*
X144254250Y-93720000D01*
X144275140Y-93865301D01*
X144275141Y-93865304D01*
X144336123Y-93998836D01*
X144432256Y-94109778D01*
X144555750Y-94189143D01*
X144696601Y-94230500D01*
X144843398Y-94230500D01*
X144843399Y-94230500D01*
X144984250Y-94189143D01*
X145107744Y-94109778D01*
X145116217Y-94100000D01*
X147414250Y-94100000D01*
X147435140Y-94245301D01*
X147435141Y-94245304D01*
X147496123Y-94378836D01*
X147592256Y-94489778D01*
X147715750Y-94569143D01*
X147856601Y-94610500D01*
X148003398Y-94610500D01*
X148003399Y-94610500D01*
X148144250Y-94569143D01*
X148267744Y-94489778D01*
X148363877Y-94378836D01*
X148424859Y-94245304D01*
X148435686Y-94170000D01*
X151344250Y-94170000D01*
X151365140Y-94315301D01*
X151365141Y-94315304D01*
X151426123Y-94448836D01*
X151522256Y-94559778D01*
X151645750Y-94639143D01*
X151786601Y-94680500D01*
X151933398Y-94680500D01*
X151933399Y-94680500D01*
X152074250Y-94639143D01*
X152197744Y-94559778D01*
X152293877Y-94448836D01*
X152354859Y-94315304D01*
X152375750Y-94170000D01*
X152354859Y-94024696D01*
X152293877Y-93891164D01*
X152197744Y-93780222D01*
X152074250Y-93700857D01*
X151933399Y-93659500D01*
X151786601Y-93659500D01*
X151645750Y-93700857D01*
X151645749Y-93700857D01*
X151522255Y-93780222D01*
X151426123Y-93891163D01*
X151365141Y-94024695D01*
X151365140Y-94024698D01*
X151344250Y-94170000D01*
X148435686Y-94170000D01*
X148445750Y-94100000D01*
X148424859Y-93954696D01*
X148363877Y-93821164D01*
X148267744Y-93710222D01*
X148144250Y-93630857D01*
X148003399Y-93589500D01*
X147856601Y-93589500D01*
X147715750Y-93630857D01*
X147715749Y-93630857D01*
X147592255Y-93710222D01*
X147496123Y-93821163D01*
X147435141Y-93954695D01*
X147435140Y-93954698D01*
X147414250Y-94100000D01*
X145116217Y-94100000D01*
X145203877Y-93998836D01*
X145264859Y-93865304D01*
X145285750Y-93720000D01*
X145264859Y-93574696D01*
X145212479Y-93460000D01*
X153214250Y-93460000D01*
X153235140Y-93605301D01*
X153235141Y-93605304D01*
X153296123Y-93738836D01*
X153367461Y-93821164D01*
X153392256Y-93849778D01*
X153515750Y-93929143D01*
X153656601Y-93970500D01*
X153803398Y-93970500D01*
X153803399Y-93970500D01*
X153944250Y-93929143D01*
X154067744Y-93849778D01*
X154163877Y-93738836D01*
X154224859Y-93605304D01*
X154245750Y-93460000D01*
X154224859Y-93314696D01*
X154163877Y-93181164D01*
X154067744Y-93070222D01*
X153944250Y-92990857D01*
X153803399Y-92949500D01*
X153656601Y-92949500D01*
X153515750Y-92990857D01*
X153515749Y-92990857D01*
X153392255Y-93070222D01*
X153296123Y-93181163D01*
X153235141Y-93314695D01*
X153235140Y-93314698D01*
X153214250Y-93460000D01*
X145212479Y-93460000D01*
X145203877Y-93441164D01*
X145107744Y-93330222D01*
X144984250Y-93250857D01*
X144843399Y-93209500D01*
X144696601Y-93209500D01*
X144555750Y-93250857D01*
X144555749Y-93250857D01*
X144432255Y-93330222D01*
X144336123Y-93441163D01*
X144275141Y-93574695D01*
X144275140Y-93574698D01*
X144254250Y-93720000D01*
X136500500Y-93720000D01*
X136500500Y-91079000D01*
X136518982Y-91028220D01*
X136565782Y-91001200D01*
X136579500Y-91000000D01*
X157420500Y-91000000D01*
X157471280Y-91018482D01*
G37*
%TD.AperFunction*%
%TD*%
M02*
