%TF.GenerationSoftware,KiCad,Pcbnew,8.0.5*%
%TF.CreationDate,2024-11-01T22:20:15+01:00*%
%TF.ProjectId,C8W1B1V1.0,43385731-4231-4563-912e-302e6b696361,rev?*%
%TF.SameCoordinates,Original*%
%TF.FileFunction,Copper,L1,Top*%
%TF.FilePolarity,Positive*%
%FSLAX46Y46*%
G04 Gerber Fmt 4.6, Leading zero omitted, Abs format (unit mm)*
G04 Created by KiCad (PCBNEW 8.0.5) date 2024-11-01 22:20:15*
%MOMM*%
%LPD*%
G01*
G04 APERTURE LIST*
G04 Aperture macros list*
%AMRoundRect*
0 Rectangle with rounded corners*
0 $1 Rounding radius*
0 $2 $3 $4 $5 $6 $7 $8 $9 X,Y pos of 4 corners*
0 Add a 4 corners polygon primitive as box body*
4,1,4,$2,$3,$4,$5,$6,$7,$8,$9,$2,$3,0*
0 Add four circle primitives for the rounded corners*
1,1,$1+$1,$2,$3*
1,1,$1+$1,$4,$5*
1,1,$1+$1,$6,$7*
1,1,$1+$1,$8,$9*
0 Add four rect primitives between the rounded corners*
20,1,$1+$1,$2,$3,$4,$5,0*
20,1,$1+$1,$4,$5,$6,$7,0*
20,1,$1+$1,$6,$7,$8,$9,0*
20,1,$1+$1,$8,$9,$2,$3,0*%
%AMOutline4P*
0 Free polygon, 4 corners , with rotation*
0 The origin of the aperture is its center*
0 number of corners: always 4*
0 $1 to $8 corner X, Y*
0 $9 Rotation angle, in degrees counterclockwise*
0 create outline with 4 corners*
4,1,4,$1,$2,$3,$4,$5,$6,$7,$8,$1,$2,$9*%
G04 Aperture macros list end*
%TA.AperFunction,EtchedComponent*%
%ADD10C,1.000000*%
%TD*%
%TA.AperFunction,SMDPad,CuDef*%
%ADD11RoundRect,0.140000X0.170000X-0.140000X0.170000X0.140000X-0.170000X0.140000X-0.170000X-0.140000X0*%
%TD*%
%TA.AperFunction,SMDPad,CuDef*%
%ADD12RoundRect,0.135000X0.135000X0.185000X-0.135000X0.185000X-0.135000X-0.185000X0.135000X-0.185000X0*%
%TD*%
%TA.AperFunction,SMDPad,CuDef*%
%ADD13R,0.500000X0.600000*%
%TD*%
%TA.AperFunction,SMDPad,CuDef*%
%ADD14RoundRect,0.135000X-0.135000X-0.185000X0.135000X-0.185000X0.135000X0.185000X-0.135000X0.185000X0*%
%TD*%
%TA.AperFunction,SMDPad,CuDef*%
%ADD15R,1.100000X1.500000*%
%TD*%
%TA.AperFunction,SMDPad,CuDef*%
%ADD16RoundRect,0.135000X0.185000X-0.135000X0.185000X0.135000X-0.185000X0.135000X-0.185000X-0.135000X0*%
%TD*%
%TA.AperFunction,SMDPad,CuDef*%
%ADD17RoundRect,0.140000X-0.140000X-0.170000X0.140000X-0.170000X0.140000X0.170000X-0.140000X0.170000X0*%
%TD*%
%TA.AperFunction,SMDPad,CuDef*%
%ADD18RoundRect,0.135000X-0.185000X0.135000X-0.185000X-0.135000X0.185000X-0.135000X0.185000X0.135000X0*%
%TD*%
%TA.AperFunction,ComponentPad*%
%ADD19R,1.700000X1.700000*%
%TD*%
%TA.AperFunction,ComponentPad*%
%ADD20O,1.700000X1.700000*%
%TD*%
%TA.AperFunction,SMDPad,CuDef*%
%ADD21RoundRect,0.140000X-0.170000X0.140000X-0.170000X-0.140000X0.170000X-0.140000X0.170000X0.140000X0*%
%TD*%
%TA.AperFunction,SMDPad,CuDef*%
%ADD22RoundRect,0.140000X0.140000X0.170000X-0.140000X0.170000X-0.140000X-0.170000X0.140000X-0.170000X0*%
%TD*%
%TA.AperFunction,SMDPad,CuDef*%
%ADD23C,0.220000*%
%TD*%
%TA.AperFunction,SMDPad,CuDef*%
%ADD24RoundRect,0.147500X0.172500X-0.147500X0.172500X0.147500X-0.172500X0.147500X-0.172500X-0.147500X0*%
%TD*%
%TA.AperFunction,SMDPad,CuDef*%
%ADD25R,0.950000X0.300000*%
%TD*%
%TA.AperFunction,SMDPad,CuDef*%
%ADD26R,0.250000X1.650000*%
%TD*%
%TA.AperFunction,SMDPad,CuDef*%
%ADD27R,0.850000X0.300000*%
%TD*%
%TA.AperFunction,SMDPad,CuDef*%
%ADD28R,1.500000X1.700000*%
%TD*%
%TA.AperFunction,ComponentPad*%
%ADD29C,1.000000*%
%TD*%
%TA.AperFunction,SMDPad,CuDef*%
%ADD30Outline4P,-0.350000X-0.400000X0.350000X-0.400000X0.050000X0.400000X-0.050000X0.400000X180.000000*%
%TD*%
%TA.AperFunction,SMDPad,CuDef*%
%ADD31RoundRect,0.147500X-0.147500X-0.172500X0.147500X-0.172500X0.147500X0.172500X-0.147500X0.172500X0*%
%TD*%
%TA.AperFunction,SMDPad,CuDef*%
%ADD32RoundRect,0.062500X-0.375000X-0.062500X0.375000X-0.062500X0.375000X0.062500X-0.375000X0.062500X0*%
%TD*%
%TA.AperFunction,SMDPad,CuDef*%
%ADD33RoundRect,0.062500X-0.062500X-0.375000X0.062500X-0.375000X0.062500X0.375000X-0.062500X0.375000X0*%
%TD*%
%TA.AperFunction,HeatsinkPad*%
%ADD34R,3.450000X3.450000*%
%TD*%
%TA.AperFunction,SMDPad,CuDef*%
%ADD35RoundRect,0.218750X-0.218750X-0.381250X0.218750X-0.381250X0.218750X0.381250X-0.218750X0.381250X0*%
%TD*%
%TA.AperFunction,SMDPad,CuDef*%
%ADD36R,0.800000X0.300000*%
%TD*%
%TA.AperFunction,SMDPad,CuDef*%
%ADD37R,0.300000X0.800000*%
%TD*%
%TA.AperFunction,SMDPad,CuDef*%
%ADD38R,2.800000X2.800000*%
%TD*%
%TA.AperFunction,ViaPad*%
%ADD39C,0.700000*%
%TD*%
%TA.AperFunction,Conductor*%
%ADD40C,0.160000*%
%TD*%
%TA.AperFunction,Conductor*%
%ADD41C,0.500000*%
%TD*%
%TA.AperFunction,Conductor*%
%ADD42C,0.200000*%
%TD*%
G04 APERTURE END LIST*
D10*
%TO.C,AE1*%
X137940000Y-90970000D02*
X137940000Y-79970000D01*
X139940000Y-79970000D02*
X139940000Y-84970000D01*
X141940000Y-79970000D02*
X141940000Y-84970000D01*
X143940000Y-79970000D02*
X143940000Y-84970000D01*
X145940000Y-79970000D02*
X145940000Y-84970000D01*
X147940000Y-79970000D02*
X147940000Y-84970000D01*
X149940000Y-79970000D02*
X149940000Y-84970000D01*
X151940000Y-79970000D02*
X151940000Y-84970000D01*
X153940000Y-79970000D02*
X153940000Y-84970000D01*
X155940000Y-79970000D02*
X155940000Y-84970000D01*
%TD*%
D11*
%TO.P,C12,1*%
%TO.N,Net-(IC2-XOUT)*%
X154650000Y-97710000D03*
%TO.P,C12,2*%
%TO.N,GND*%
X154650000Y-96750000D03*
%TD*%
%TO.P,C3,1*%
%TO.N,STM_NRST*%
X142820000Y-111900000D03*
%TO.P,C3,2*%
%TO.N,GND*%
X142820000Y-110940000D03*
%TD*%
D12*
%TO.P,R9,1*%
%TO.N,Net-(LED1-A_1)*%
X152100000Y-112577500D03*
%TO.P,R9,2*%
%TO.N,LED_G*%
X151080000Y-112577500D03*
%TD*%
D13*
%TO.P,Y1,1,1*%
%TO.N,Net-(IC2-XOUT)*%
X153640000Y-97620000D03*
%TO.P,Y1,2,2*%
%TO.N,GND*%
X153640000Y-96520000D03*
%TO.P,Y1,3,3*%
%TO.N,Net-(IC2-XIN)*%
X152840000Y-96520000D03*
%TO.P,Y1,4,4*%
%TO.N,GND*%
X152840000Y-97620000D03*
%TD*%
D14*
%TO.P,R4,1*%
%TO.N,Net-(C11-Pad1)*%
X141860000Y-96090000D03*
%TO.P,R4,2*%
%TO.N,Net-(IC3-ANT)*%
X142880000Y-96090000D03*
%TD*%
D15*
%TO.P,LED1,1,K_1*%
%TO.N,GND*%
X156230000Y-110580000D03*
%TO.P,LED1,2,A_1*%
%TO.N,Net-(LED1-A_1)*%
X156230000Y-113580000D03*
%TO.P,LED1,3,K_2*%
%TO.N,GND*%
X154730000Y-113580000D03*
%TO.P,LED1,4,A_2*%
%TO.N,Net-(LED1-A_2)*%
X154730000Y-110580000D03*
%TD*%
D16*
%TO.P,R5,1*%
%TO.N,Net-(IC1-~{WP})*%
X144950000Y-120050000D03*
%TO.P,R5,2*%
%TO.N,+3V3*%
X144950000Y-119030000D03*
%TD*%
D17*
%TO.P,C1,1*%
%TO.N,Net-(IC2-VR_RF)*%
X145810000Y-93190000D03*
%TO.P,C1,2*%
%TO.N,GND*%
X146770000Y-93190000D03*
%TD*%
D18*
%TO.P,R1,1*%
%TO.N,+3V3*%
X143810000Y-110920000D03*
%TO.P,R1,2*%
%TO.N,STM_NRST*%
X143810000Y-111940000D03*
%TD*%
D11*
%TO.P,C7,1*%
%TO.N,Net-(IC2-VREF_VCO)*%
X148900000Y-94100000D03*
%TO.P,C7,2*%
%TO.N,GND*%
X148900000Y-93140000D03*
%TD*%
%TO.P,C6,1*%
%TO.N,+3V3*%
X147930000Y-94100000D03*
%TO.P,C6,2*%
%TO.N,GND*%
X147930000Y-93140000D03*
%TD*%
D19*
%TO.P,J1,1,Pin_1*%
%TO.N,U_RX*%
X140530000Y-125000000D03*
D20*
%TO.P,J1,2,Pin_2*%
%TO.N,STM_NRST*%
X143070000Y-125000000D03*
%TO.P,J1,3,Pin_3*%
%TO.N,GND*%
X145610000Y-125000000D03*
%TO.P,J1,4,Pin_4*%
%TO.N,+3V3*%
X148150000Y-125000000D03*
%TO.P,J1,5,Pin_5*%
%TO.N,U_TX*%
X150690000Y-125000000D03*
%TO.P,J1,6,Pin_6*%
%TO.N,STM_SWDIO*%
X153230000Y-125000000D03*
%TO.P,J1,7,Pin_7*%
%TO.N,STM_SWCLK*%
X155770000Y-125000000D03*
%TD*%
D21*
%TO.P,C20,1*%
%TO.N,+3V3*%
X151240000Y-116070000D03*
%TO.P,C20,2*%
%TO.N,unconnected-(C20-Pad2)*%
X151240000Y-117030000D03*
%TD*%
D22*
%TO.P,C2,1*%
%TO.N,+3V3*%
X143840000Y-109970000D03*
%TO.P,C2,2*%
%TO.N,GND*%
X142880000Y-109970000D03*
%TD*%
D12*
%TO.P,R3,1*%
%TO.N,GND*%
X150670000Y-107510000D03*
%TO.P,R3,2*%
%TO.N,STM_SWCLK*%
X149650000Y-107510000D03*
%TD*%
D23*
%TO.P,IC3,A1,RXP*%
%TO.N,Net-(IC2-RXP)*%
X144740000Y-96590000D03*
%TO.P,IC3,A2,GND_1*%
%TO.N,GND*%
X143680000Y-96590000D03*
%TO.P,IC3,B1,RXN*%
%TO.N,Net-(IC2-RXN)*%
X144740000Y-96090000D03*
%TO.P,IC3,B2,ANT*%
%TO.N,Net-(IC3-ANT)*%
X143680000Y-96090000D03*
%TO.P,IC3,D1,TX*%
%TO.N,Net-(IC3-TX)*%
X144740000Y-94880000D03*
%TO.P,IC3,D2,GND_2*%
%TO.N,GND*%
X143680000Y-94880000D03*
%TD*%
D22*
%TO.P,C13,1*%
%TO.N,GND*%
X153800000Y-95420000D03*
%TO.P,C13,2*%
%TO.N,Net-(IC2-XIN)*%
X152840000Y-95420000D03*
%TD*%
D18*
%TO.P,R6,1*%
%TO.N,+3V3*%
X150210000Y-119010000D03*
%TO.P,R6,2*%
%TO.N,Net-(IC1-~{HOLD})*%
X150210000Y-120030000D03*
%TD*%
D11*
%TO.P,C8,1*%
%TO.N,Net-(IC2-VR_SYNTH)*%
X149870000Y-94100000D03*
%TO.P,C8,2*%
%TO.N,GND*%
X149870000Y-93140000D03*
%TD*%
D24*
%TO.P,L3,1,1*%
%TO.N,Net-(C11-Pad1)*%
X139910000Y-96060000D03*
%TO.P,L3,2,2*%
%TO.N,Net-(AE1-A)*%
X139910000Y-95090000D03*
%TD*%
D17*
%TO.P,C14,1*%
%TO.N,/Radio/vsmps*%
X150890000Y-97620000D03*
%TO.P,C14,2*%
%TO.N,GND*%
X151850000Y-97620000D03*
%TD*%
D18*
%TO.P,R8,1*%
%TO.N,+3V3*%
X150270000Y-116070000D03*
%TO.P,R8,2*%
%TO.N,Net-(IC4-~{HOLD})*%
X150270000Y-117090000D03*
%TD*%
D25*
%TO.P,IC1,1,~{CS}*%
%TO.N,FLASH_CS*%
X146200000Y-119040000D03*
%TO.P,IC1,2,SO*%
%TO.N,MEM_MISO*%
X146200000Y-119540000D03*
%TO.P,IC1,3,~{WP}*%
%TO.N,Net-(IC1-~{WP})*%
X146200000Y-120040000D03*
%TO.P,IC1,4,GND*%
%TO.N,GND*%
X146200000Y-120540000D03*
%TO.P,IC1,5,SI*%
%TO.N,MEM_MOSI*%
X149000000Y-120540000D03*
%TO.P,IC1,6,SCK*%
%TO.N,MEM_SCK*%
X149000000Y-120040000D03*
%TO.P,IC1,7,~{HOLD}*%
%TO.N,Net-(IC1-~{HOLD})*%
X149000000Y-119540000D03*
%TO.P,IC1,8,VCC*%
%TO.N,+3V3*%
X149000000Y-119040000D03*
D26*
%TO.P,IC1,9,EP*%
%TO.N,unconnected-(IC1-EP-Pad9)*%
X147600000Y-119790000D03*
%TD*%
D27*
%TO.P,IC4,1,~{CS}*%
%TO.N,FRAM_CS*%
X146160000Y-116170000D03*
%TO.P,IC4,2,SO*%
%TO.N,MEM_MISO*%
X146160000Y-116670000D03*
%TO.P,IC4,3,~{WP}*%
%TO.N,Net-(IC4-~{WP})*%
X146160000Y-117170000D03*
%TO.P,IC4,4,VSS*%
%TO.N,GND*%
X146160000Y-117670000D03*
%TO.P,IC4,5,SI*%
%TO.N,MEM_MOSI*%
X149060000Y-117670000D03*
%TO.P,IC4,6,SCK*%
%TO.N,MEM_SCK*%
X149060000Y-117170000D03*
%TO.P,IC4,7,~{HOLD}*%
%TO.N,Net-(IC4-~{HOLD})*%
X149060000Y-116670000D03*
%TO.P,IC4,8,VDD*%
%TO.N,+3V3*%
X149060000Y-116170000D03*
D28*
%TO.P,IC4,9,EP*%
%TO.N,GND*%
X147610000Y-116920000D03*
%TD*%
D11*
%TO.P,C9,1*%
%TO.N,+3V3*%
X150840000Y-94100000D03*
%TO.P,C9,2*%
%TO.N,GND*%
X150840000Y-93140000D03*
%TD*%
%TO.P,C19,1*%
%TO.N,GND*%
X151200000Y-119990000D03*
%TO.P,C19,2*%
%TO.N,+3V3*%
X151200000Y-119030000D03*
%TD*%
D22*
%TO.P,C4,1*%
%TO.N,Net-(IC2-TX)*%
X146970000Y-94170000D03*
%TO.P,C4,2*%
%TO.N,Net-(IC3-TX)*%
X146010000Y-94170000D03*
%TD*%
D17*
%TO.P,C18,1*%
%TO.N,Net-(AE1-A)*%
X140880000Y-95090000D03*
%TO.P,C18,2*%
%TO.N,GND*%
X141840000Y-95090000D03*
%TD*%
D21*
%TO.P,C11,1*%
%TO.N,Net-(C11-Pad1)*%
X140900000Y-96060000D03*
%TO.P,C11,2*%
%TO.N,GND*%
X140900000Y-97020000D03*
%TD*%
D12*
%TO.P,R2,1*%
%TO.N,+3V3*%
X151890000Y-95170000D03*
%TO.P,R2,2*%
%TO.N,S2LP_SDN*%
X150870000Y-95170000D03*
%TD*%
D29*
%TO.P,AE1,*%
%TO.N,*%
X137940000Y-79970000D03*
X139940000Y-79970000D03*
X139940000Y-84970000D03*
X141940000Y-79970000D03*
X141940000Y-84970000D03*
X143940000Y-79970000D03*
X143940000Y-84970000D03*
X145940000Y-79970000D03*
X145940000Y-84970000D03*
X147940000Y-79970000D03*
X147940000Y-84970000D03*
X149940000Y-79970000D03*
X149940000Y-84970000D03*
X151940000Y-79970000D03*
X151940000Y-84970000D03*
X153940000Y-79970000D03*
X153940000Y-84970000D03*
X155940000Y-79970000D03*
X155940000Y-84970000D03*
D30*
%TO.P,AE1,1,A*%
%TO.N,Net-(AE1-A)*%
X137940000Y-91670000D03*
%TD*%
D21*
%TO.P,C16,1*%
%TO.N,Net-(IC2-VR_DIG)*%
X149640000Y-100480000D03*
%TO.P,C16,2*%
%TO.N,GND*%
X149640000Y-101440000D03*
%TD*%
D12*
%TO.P,R10,1*%
%TO.N,Net-(LED1-A_2)*%
X152100000Y-111577500D03*
%TO.P,R10,2*%
%TO.N,LED_R*%
X151080000Y-111577500D03*
%TD*%
D31*
%TO.P,L1,1,1*%
%TO.N,Net-(IC2-TX)*%
X146915000Y-92190000D03*
%TO.P,L1,2,2*%
%TO.N,/Radio/vsmps*%
X147885000Y-92190000D03*
%TD*%
D21*
%TO.P,C15,1*%
%TO.N,+3V3*%
X150920000Y-99210000D03*
%TO.P,C15,2*%
%TO.N,GND*%
X150920000Y-100170000D03*
%TD*%
D22*
%TO.P,C17,1*%
%TO.N,+3V3*%
X144590000Y-97370000D03*
%TO.P,C17,2*%
%TO.N,GND*%
X143630000Y-97370000D03*
%TD*%
D21*
%TO.P,C5,1*%
%TO.N,/Radio/vsmps*%
X155540000Y-98630000D03*
%TO.P,C5,2*%
%TO.N,GND*%
X155540000Y-99590000D03*
%TD*%
D32*
%TO.P,U1,1,PB9*%
%TO.N,U_RX*%
X145032500Y-109420000D03*
%TO.P,U1,2,PC14*%
%TO.N,unconnected-(U1-PC14-Pad2)*%
X145032500Y-109920000D03*
%TO.P,U1,3,PC15*%
%TO.N,unconnected-(U1-PC15-Pad3)*%
X145032500Y-110420000D03*
%TO.P,U1,4,VDD*%
%TO.N,+3V3*%
X145032500Y-110920000D03*
%TO.P,U1,5,VSS*%
%TO.N,GND*%
X145032500Y-111420000D03*
%TO.P,U1,6,PF2*%
%TO.N,STM_NRST*%
X145032500Y-111920000D03*
%TO.P,U1,7,PA0*%
%TO.N,unconnected-(U1-PA0-Pad7)*%
X145032500Y-112420000D03*
%TO.P,U1,8,PA1*%
%TO.N,unconnected-(U1-PA1-Pad8)*%
X145032500Y-112920000D03*
D33*
%TO.P,U1,9,PA2*%
%TO.N,unconnected-(U1-PA2-Pad9)*%
X145720000Y-113607500D03*
%TO.P,U1,10,PA3*%
%TO.N,FLASH_CS*%
X146220000Y-113607500D03*
%TO.P,U1,11,PA4*%
%TO.N,FRAM_CS*%
X146720000Y-113607500D03*
%TO.P,U1,12,PA5*%
%TO.N,MEM_SCK*%
X147220000Y-113607500D03*
%TO.P,U1,13,PA6*%
%TO.N,MEM_MISO*%
X147720000Y-113607500D03*
%TO.P,U1,14,PA7*%
%TO.N,MEM_MOSI*%
X148220000Y-113607500D03*
%TO.P,U1,15,PB0*%
%TO.N,unconnected-(U1-PB0-Pad15)*%
X148720000Y-113607500D03*
%TO.P,U1,16,PB1*%
%TO.N,unconnected-(U1-PB1-Pad16)*%
X149220000Y-113607500D03*
D32*
%TO.P,U1,17,PB2*%
%TO.N,U_TX*%
X149907500Y-112920000D03*
%TO.P,U1,18,PA8*%
%TO.N,LED_G*%
X149907500Y-112420000D03*
%TO.P,U1,19,PA9/NC*%
%TO.N,LED_R*%
X149907500Y-111920000D03*
%TO.P,U1,20,PC6*%
%TO.N,unconnected-(U1-PC6-Pad20)*%
X149907500Y-111420000D03*
%TO.P,U1,21,PA10/NC*%
%TO.N,unconnected-(U1-PA10{slash}NC-Pad21)*%
X149907500Y-110920000D03*
%TO.P,U1,22,PA11/PA9*%
%TO.N,unconnected-(U1-PA11{slash}PA9-Pad22)*%
X149907500Y-110420000D03*
%TO.P,U1,23,PA12/PA10*%
%TO.N,unconnected-(U1-PA12{slash}PA10-Pad23)*%
X149907500Y-109920000D03*
%TO.P,U1,24,PA13*%
%TO.N,STM_SWDIO*%
X149907500Y-109420000D03*
D33*
%TO.P,U1,25,PA14*%
%TO.N,STM_SWCLK*%
X149220000Y-108732500D03*
%TO.P,U1,26,PA15*%
%TO.N,S2LP_SDN*%
X148720000Y-108732500D03*
%TO.P,U1,27,PB3*%
%TO.N,S2LP_CS*%
X148220000Y-108732500D03*
%TO.P,U1,28,PB4*%
%TO.N,S2LP_GPIO0*%
X147720000Y-108732500D03*
%TO.P,U1,29,PB5*%
%TO.N,S2LP_GPIO1*%
X147220000Y-108732500D03*
%TO.P,U1,30,PB6*%
%TO.N,S2LP_MISO*%
X146720000Y-108732500D03*
%TO.P,U1,31,PB7*%
%TO.N,S2LP_MOSI*%
X146220000Y-108732500D03*
%TO.P,U1,32,PB8*%
%TO.N,S2LP_CLK*%
X145720000Y-108732500D03*
D34*
%TO.P,U1,33,VSS*%
%TO.N,GND*%
X147470000Y-111170000D03*
%TD*%
D17*
%TO.P,C10,1*%
%TO.N,S2LP_SDN*%
X150880000Y-96160000D03*
%TO.P,C10,2*%
%TO.N,GND*%
X151840000Y-96160000D03*
%TD*%
D35*
%TO.P,L2,1,1*%
%TO.N,/Radio/vsmps*%
X152217500Y-99070000D03*
%TO.P,L2,2,2*%
%TO.N,Net-(IC2-SMPS1)*%
X154342500Y-99070000D03*
%TD*%
D12*
%TO.P,R7,1*%
%TO.N,Net-(IC4-~{WP})*%
X144980000Y-117180000D03*
%TO.P,R7,2*%
%TO.N,+3V3*%
X143960000Y-117180000D03*
%TD*%
D36*
%TO.P,IC2,1,VDD_SMPS*%
%TO.N,+3V3*%
X149740000Y-98590000D03*
%TO.P,IC2,2,SMPS1*%
%TO.N,Net-(IC2-SMPS1)*%
X149740000Y-98090000D03*
%TO.P,IC2,3,SMPS2*%
%TO.N,/Radio/vsmps*%
X149740000Y-97590000D03*
%TO.P,IC2,4,XOUT*%
%TO.N,Net-(IC2-XOUT)*%
X149740000Y-97090000D03*
%TO.P,IC2,5,XIN*%
%TO.N,Net-(IC2-XIN)*%
X149740000Y-96590000D03*
%TO.P,IC2,6,SDN*%
%TO.N,S2LP_SDN*%
X149740000Y-96090000D03*
D37*
%TO.P,IC2,7,VDD_A_SYNTH*%
%TO.N,+3V3*%
X148990000Y-95340000D03*
%TO.P,IC2,8,VR_SYNTH*%
%TO.N,Net-(IC2-VR_SYNTH)*%
X148490000Y-95340000D03*
%TO.P,IC2,9,VREF_VCO*%
%TO.N,Net-(IC2-VREF_VCO)*%
X147990000Y-95340000D03*
%TO.P,IC2,10,VDD_TCXO*%
%TO.N,+3V3*%
X147490000Y-95340000D03*
%TO.P,IC2,11,TX*%
%TO.N,Net-(IC2-TX)*%
X146990000Y-95340000D03*
%TO.P,IC2,12,VR_RF*%
%TO.N,Net-(IC2-VR_RF)*%
X146490000Y-95340000D03*
D36*
%TO.P,IC2,13,RXN*%
%TO.N,Net-(IC2-RXN)*%
X145740000Y-96090000D03*
%TO.P,IC2,14,RXP*%
%TO.N,Net-(IC2-RXP)*%
X145740000Y-96590000D03*
%TO.P,IC2,15,VDD_DIG_RX*%
%TO.N,+3V3*%
X145740000Y-97090000D03*
%TO.P,IC2,16,SDO*%
%TO.N,S2LP_MISO*%
X145740000Y-97590000D03*
%TO.P,IC2,17,SDI*%
%TO.N,S2LP_MOSI*%
X145740000Y-98090000D03*
%TO.P,IC2,18,SCLK*%
%TO.N,S2LP_CLK*%
X145740000Y-98590000D03*
D37*
%TO.P,IC2,19,CSN*%
%TO.N,S2LP_GPIO1*%
X146490000Y-99340000D03*
%TO.P,IC2,20,GPIO0*%
%TO.N,S2LP_GPIO0*%
X146990000Y-99340000D03*
%TO.P,IC2,21,GPIO1*%
%TO.N,S2LP_CS*%
X147490000Y-99340000D03*
%TO.P,IC2,22,GPIO2*%
%TO.N,unconnected-(IC2-GPIO2-Pad22)*%
X147990000Y-99340000D03*
%TO.P,IC2,23,GPIO3*%
%TO.N,unconnected-(IC2-GPIO3-Pad23)*%
X148490000Y-99340000D03*
%TO.P,IC2,24,VR_DIG*%
%TO.N,Net-(IC2-VR_DIG)*%
X148990000Y-99340000D03*
D38*
%TO.P,IC2,25,GND*%
%TO.N,GND*%
X147740000Y-97340000D03*
%TD*%
D39*
%TO.N,GND*%
X147610000Y-116920000D03*
X145700000Y-101280000D03*
X146100000Y-104990000D03*
X154280000Y-96130000D03*
X153610000Y-110230000D03*
X155260000Y-100170000D03*
X152790000Y-98040000D03*
X145970000Y-103810000D03*
X142870000Y-94820000D03*
X141880000Y-111200000D03*
X151840000Y-96160000D03*
X141830000Y-94370000D03*
X140770000Y-98100000D03*
X151530000Y-100550000D03*
X150420000Y-93140000D03*
X146080000Y-92300000D03*
X147740000Y-97340000D03*
X145620000Y-99730000D03*
X154760000Y-111850000D03*
X139840000Y-97210000D03*
X148440000Y-93140000D03*
X147470000Y-111170000D03*
X156240000Y-111810000D03*
X149440000Y-93140000D03*
X143700000Y-94140000D03*
X144085000Y-95285000D03*
X150550000Y-114790000D03*
%TO.N,Net-(IC2-VR_RF)*%
X144770000Y-93720000D03*
X145630000Y-95180000D03*
%TO.N,+3V3*%
X143650000Y-118230000D03*
X143680000Y-109170000D03*
X143140000Y-98360000D03*
X151860000Y-94170000D03*
X145070000Y-118200000D03*
X150740000Y-116170000D03*
X150800000Y-119040000D03*
X150630000Y-101550000D03*
X147930000Y-94100000D03*
%TO.N,S2LP_SDN*%
X153730000Y-93460000D03*
X150385000Y-95655000D03*
%TO.N,MEM_MOSI*%
X148930000Y-114910000D03*
X147450000Y-118310000D03*
%TO.N,FLASH_CS*%
X142780000Y-118280000D03*
X146400000Y-118390000D03*
%TO.N,MEM_MISO*%
X145950000Y-115162194D03*
X147640000Y-114820000D03*
%TO.N,S2LP_CLK*%
X145130000Y-105150000D03*
X144260000Y-107180000D03*
%TO.N,S2LP_MOSI*%
X145190000Y-107470000D03*
X145150000Y-106110000D03*
%TD*%
D40*
%TO.N,GND*%
X147930000Y-93140000D02*
X148440000Y-93140000D01*
X146860000Y-117670000D02*
X147610000Y-116920000D01*
X155540000Y-99590000D02*
X155540000Y-99890000D01*
X146160000Y-117670000D02*
X146860000Y-117670000D01*
X148440000Y-93140000D02*
X149440000Y-93140000D01*
X143680000Y-96590000D02*
X143835563Y-96590000D01*
X144170000Y-95370000D02*
X144085000Y-95285000D01*
X145032500Y-111420000D02*
X147220000Y-111420000D01*
X144170000Y-96255563D02*
X144170000Y-95370000D01*
X143835563Y-96590000D02*
X144170000Y-96255563D01*
X155540000Y-99890000D02*
X155260000Y-100170000D01*
X146770000Y-92990000D02*
X146080000Y-92300000D01*
X151840000Y-97580000D02*
X152830000Y-97580000D01*
X149440000Y-93140000D02*
X150420000Y-93140000D01*
X147220000Y-111420000D02*
X147470000Y-111170000D01*
X150420000Y-93140000D02*
X150840000Y-93140000D01*
X152790000Y-97670000D02*
X152840000Y-97620000D01*
X146770000Y-93190000D02*
X146770000Y-92990000D01*
X144085000Y-95285000D02*
X143680000Y-94880000D01*
X152790000Y-98040000D02*
X152790000Y-97670000D01*
%TO.N,Net-(IC2-VR_RF)*%
X146490000Y-95340000D02*
X145790000Y-95340000D01*
X145300000Y-93190000D02*
X144770000Y-93720000D01*
X145790000Y-95340000D02*
X145630000Y-95180000D01*
X145810000Y-93190000D02*
X145300000Y-93190000D01*
%TO.N,+3V3*%
X150910000Y-94170000D02*
X150840000Y-94100000D01*
X143140000Y-98360000D02*
X143060000Y-98360000D01*
X150360000Y-100461282D02*
X150630000Y-100731282D01*
X143680000Y-110004999D02*
X144595001Y-110920000D01*
X143960000Y-117180000D02*
X143960000Y-117920000D01*
X151890000Y-95170000D02*
X151890000Y-95150000D01*
X150360000Y-99210000D02*
X149740000Y-98590000D01*
X150360000Y-99210000D02*
X150360000Y-100461282D01*
X143680000Y-109170000D02*
X143680000Y-110004999D01*
X143740000Y-118140000D02*
X143650000Y-118230000D01*
X147490000Y-95340000D02*
X147490000Y-94540000D01*
X147490000Y-94540000D02*
X147930000Y-94100000D01*
X144590000Y-97370000D02*
X143600000Y-98360000D01*
X151190000Y-119040000D02*
X151200000Y-119030000D01*
X150630000Y-101550000D02*
X150630000Y-101630000D01*
X151860000Y-94170000D02*
X151860000Y-95140000D01*
X149060000Y-116170000D02*
X150740000Y-116170000D01*
X149481282Y-95340000D02*
X150721282Y-94100000D01*
X143650000Y-118230000D02*
X143610000Y-118230000D01*
X144950000Y-118320000D02*
X145070000Y-118200000D01*
X145032500Y-110920000D02*
X143810000Y-110920000D01*
X144870000Y-97090000D02*
X145740000Y-97090000D01*
X150630000Y-100731282D02*
X150630000Y-101550000D01*
X144950000Y-119030000D02*
X144950000Y-118320000D01*
X144595001Y-110920000D02*
X145032500Y-110920000D01*
X150740000Y-116170000D02*
X151140000Y-116170000D01*
X151860000Y-94170000D02*
X150910000Y-94170000D01*
X150920000Y-99210000D02*
X150360000Y-99210000D01*
X148990000Y-95340000D02*
X149481282Y-95340000D01*
X151860000Y-95140000D02*
X151890000Y-95170000D01*
X151890000Y-95150000D02*
X150840000Y-94100000D01*
X143600000Y-98360000D02*
X143140000Y-98360000D01*
X150800000Y-119040000D02*
X151190000Y-119040000D01*
X149000000Y-119040000D02*
X150800000Y-119040000D01*
X151140000Y-116170000D02*
X151240000Y-116070000D01*
X144590000Y-97370000D02*
X144870000Y-97090000D01*
X150721282Y-94100000D02*
X150840000Y-94100000D01*
X143960000Y-117920000D02*
X143740000Y-118140000D01*
D41*
%TO.N,Net-(AE1-A)*%
X137940000Y-93120000D02*
X137940000Y-91880000D01*
X139910000Y-95090000D02*
X137940000Y-93120000D01*
X139910000Y-95090000D02*
X140880000Y-95090000D01*
D40*
%TO.N,Net-(IC3-TX)*%
X146010000Y-94170000D02*
X145450000Y-94170000D01*
X145450000Y-94170000D02*
X144740000Y-94880000D01*
%TO.N,Net-(IC2-TX)*%
X147290000Y-93850000D02*
X147290000Y-92565000D01*
X146990000Y-94190000D02*
X146970000Y-94170000D01*
X146970000Y-94170000D02*
X147290000Y-93850000D01*
X147290000Y-92565000D02*
X146915000Y-92190000D01*
X146990000Y-95340000D02*
X146990000Y-94190000D01*
%TO.N,/Radio/vsmps*%
X152220000Y-98920000D02*
X150880000Y-97580000D01*
X149740000Y-97590000D02*
X150860000Y-97590000D01*
X155540000Y-96240000D02*
X155540000Y-98630000D01*
X154757332Y-98230000D02*
X153927668Y-98230000D01*
X153550000Y-98920000D02*
X152220000Y-98920000D01*
X151490000Y-92190000D02*
X155540000Y-96240000D01*
X153927668Y-98230000D02*
X153665000Y-98492668D01*
X155540000Y-98630000D02*
X155020000Y-98630000D01*
X153665000Y-98492668D02*
X153665000Y-98805000D01*
X150860000Y-97590000D02*
X150890000Y-97620000D01*
X155020000Y-98630000D02*
X155020000Y-98492668D01*
X147885000Y-92190000D02*
X151490000Y-92190000D01*
X155020000Y-98492668D02*
X154757332Y-98230000D01*
X153665000Y-98805000D02*
X153550000Y-98920000D01*
%TO.N,Net-(IC2-VREF_VCO)*%
X148781282Y-94100000D02*
X148900000Y-94100000D01*
X147990000Y-95340000D02*
X147990000Y-94891282D01*
X147990000Y-94891282D02*
X148781282Y-94100000D01*
%TO.N,Net-(IC2-VR_SYNTH)*%
X148770000Y-94620000D02*
X149350000Y-94620000D01*
X149350000Y-94620000D02*
X149870000Y-94100000D01*
X148490000Y-94900000D02*
X148770000Y-94620000D01*
X148490000Y-95340000D02*
X148490000Y-94900000D01*
%TO.N,S2LP_SDN*%
X150880000Y-95180000D02*
X150870000Y-95170000D01*
X153990000Y-93460000D02*
X153730000Y-93460000D01*
X149740000Y-96090000D02*
X149950000Y-96090000D01*
X149950000Y-96090000D02*
X150385000Y-95655000D01*
X150810000Y-96090000D02*
X150880000Y-96160000D01*
X150385000Y-95655000D02*
X150870000Y-95170000D01*
X156090000Y-95820000D02*
X153730000Y-93460000D01*
X149740000Y-96090000D02*
X150810000Y-96090000D01*
X148720000Y-107585928D02*
X156090000Y-100215928D01*
X150880000Y-96160000D02*
X150880000Y-95180000D01*
X148720000Y-108732500D02*
X148720000Y-107585928D01*
X156090000Y-100215928D02*
X156090000Y-95820000D01*
D41*
%TO.N,Net-(C11-Pad1)*%
X141860000Y-96090000D02*
X139940000Y-96090000D01*
X139940000Y-96090000D02*
X139910000Y-96060000D01*
D40*
%TO.N,Net-(IC2-XOUT)*%
X154520000Y-97580000D02*
X154650000Y-97710000D01*
X149760000Y-97070000D02*
X153580000Y-97070000D01*
X153580000Y-97070000D02*
X153630000Y-97120000D01*
X153630000Y-97580000D02*
X154520000Y-97580000D01*
X153630000Y-97120000D02*
X153630000Y-97580000D01*
X149740000Y-97090000D02*
X149760000Y-97070000D01*
%TO.N,Net-(IC2-XIN)*%
X152470000Y-96750000D02*
X152840000Y-96380000D01*
X150458718Y-96590000D02*
X150618718Y-96750000D01*
X149740000Y-96590000D02*
X150458718Y-96590000D01*
X150618718Y-96750000D02*
X152470000Y-96750000D01*
X152830000Y-95460000D02*
X152780000Y-95410000D01*
X152830000Y-96480000D02*
X152830000Y-95460000D01*
%TO.N,Net-(IC2-VR_DIG)*%
X148990000Y-99830000D02*
X149640000Y-100480000D01*
X148990000Y-99340000D02*
X148990000Y-99830000D01*
%TO.N,Net-(IC1-~{WP})*%
X146200000Y-120040000D02*
X144960000Y-120040000D01*
X144960000Y-120040000D02*
X144950000Y-120050000D01*
%TO.N,MEM_MOSI*%
X148370000Y-120540000D02*
X149000000Y-120540000D01*
X148930000Y-114910000D02*
X148220000Y-114200000D01*
X148937452Y-117670000D02*
X148413726Y-118193726D01*
X147965000Y-118642452D02*
X147965000Y-120135000D01*
X148220000Y-114200000D02*
X148220000Y-113607500D01*
X147450000Y-118310000D02*
X147566274Y-118193726D01*
X147566274Y-118193726D02*
X148413726Y-118193726D01*
X149060000Y-117670000D02*
X148937452Y-117670000D01*
X147965000Y-120135000D02*
X148370000Y-120540000D01*
X148413726Y-118193726D02*
X147965000Y-118642452D01*
%TO.N,FLASH_CS*%
X145704999Y-114560000D02*
X146220000Y-114044999D01*
X146200000Y-118590000D02*
X146400000Y-118390000D01*
X143450000Y-116340000D02*
X145230000Y-114560000D01*
X142780000Y-116870000D02*
X143310000Y-116340000D01*
X146200000Y-119040000D02*
X146200000Y-118590000D01*
X146220000Y-114044999D02*
X146220000Y-113607500D01*
X143310000Y-116340000D02*
X143450000Y-116340000D01*
X145230000Y-114560000D02*
X145704999Y-114560000D01*
X142780000Y-118280000D02*
X142780000Y-116870000D01*
%TO.N,MEM_MISO*%
X145555000Y-116620000D02*
X145605000Y-116670000D01*
X144685928Y-116620000D02*
X145555000Y-116620000D01*
X144605928Y-119540000D02*
X144320000Y-119254072D01*
X147720000Y-114740000D02*
X147640000Y-114820000D01*
X145500000Y-116670000D02*
X145605000Y-116670000D01*
X147720000Y-113607500D02*
X147720000Y-114740000D01*
X144470000Y-117524072D02*
X144470000Y-116835928D01*
X145950000Y-115162194D02*
X145677806Y-115162194D01*
X145677806Y-115162194D02*
X145120000Y-115720000D01*
X144320000Y-119254072D02*
X144320000Y-117674072D01*
X144470000Y-116835928D02*
X144685928Y-116620000D01*
X145120000Y-116290000D02*
X145500000Y-116670000D01*
X145120000Y-115720000D02*
X145120000Y-116290000D01*
X146200000Y-119540000D02*
X144605928Y-119540000D01*
X144320000Y-117674072D02*
X144470000Y-117524072D01*
X146160000Y-116670000D02*
X145605000Y-116670000D01*
%TO.N,Net-(IC1-~{HOLD})*%
X149720000Y-119540000D02*
X149000000Y-119540000D01*
X150210000Y-120030000D02*
X149720000Y-119540000D01*
%TO.N,MEM_SCK*%
X147220000Y-113607500D02*
X147220000Y-113974532D01*
X150908718Y-115550000D02*
X151830000Y-115550000D01*
X151830000Y-115550000D02*
X151900000Y-115620000D01*
X148285000Y-118775000D02*
X148285000Y-119960000D01*
X150131569Y-117805641D02*
X151445641Y-117805641D01*
X151900000Y-117351282D02*
X151445641Y-117805641D01*
X151445641Y-117805641D02*
X150901282Y-118350000D01*
X147220000Y-113974532D02*
X146890000Y-114304532D01*
X150898718Y-115560000D02*
X150908718Y-115550000D01*
X149495928Y-117170000D02*
X150131569Y-117805641D01*
X148710000Y-118350000D02*
X148285000Y-118775000D01*
X149060000Y-117170000D02*
X149495928Y-117170000D01*
X148365000Y-120040000D02*
X149000000Y-120040000D01*
X147440000Y-115560000D02*
X150898718Y-115560000D01*
X146890000Y-114304532D02*
X146890000Y-115010000D01*
X146890000Y-115010000D02*
X147440000Y-115560000D01*
X148285000Y-119960000D02*
X148365000Y-120040000D01*
X151900000Y-115620000D02*
X151900000Y-117351282D01*
X150901282Y-118350000D02*
X148710000Y-118350000D01*
%TO.N,S2LP_MISO*%
X146720000Y-108732500D02*
X146720000Y-108095468D01*
X146720000Y-108095468D02*
X145464532Y-106840000D01*
X145270000Y-97590000D02*
X145740000Y-97590000D01*
X144141274Y-98718726D02*
X145270000Y-97590000D01*
X145464532Y-106840000D02*
X144960000Y-106840000D01*
X144141274Y-106021274D02*
X144141274Y-98718726D01*
X144960000Y-106840000D02*
X144141274Y-106021274D01*
%TO.N,S2LP_CLK*%
X145595001Y-108732500D02*
X145720000Y-108732500D01*
X144260000Y-107180000D02*
X144260000Y-107397499D01*
X144781274Y-104801274D02*
X144781274Y-99298726D01*
X144781274Y-99298726D02*
X145490000Y-98590000D01*
X145490000Y-98590000D02*
X145740000Y-98590000D01*
X144260000Y-107397499D02*
X145595001Y-108732500D01*
X145130000Y-105150000D02*
X144781274Y-104801274D01*
%TO.N,S2LP_MOSI*%
X146220000Y-108295001D02*
X146220000Y-108732500D01*
X145190000Y-107470000D02*
X145394999Y-107470000D01*
X144461274Y-105421274D02*
X144461274Y-98851274D01*
X145150000Y-106110000D02*
X144461274Y-105421274D01*
X144461274Y-98851274D02*
X145222548Y-98090000D01*
X145222548Y-98090000D02*
X145740000Y-98090000D01*
X145394999Y-107470000D02*
X146220000Y-108295001D01*
D41*
%TO.N,Net-(IC3-ANT)*%
X142990000Y-95980000D02*
X143680000Y-95980000D01*
X142880000Y-96090000D02*
X142990000Y-95980000D01*
D40*
%TO.N,FRAM_CS*%
X146540000Y-114160000D02*
X146720000Y-113980000D01*
X146160000Y-116170000D02*
X146540000Y-115790000D01*
X146720000Y-113980000D02*
X146720000Y-113607500D01*
X146540000Y-115790000D02*
X146540000Y-114160000D01*
%TO.N,Net-(IC4-~{WP})*%
X144980000Y-117180000D02*
X146150000Y-117180000D01*
X146150000Y-117180000D02*
X146160000Y-117170000D01*
%TO.N,Net-(IC4-~{HOLD})*%
X149060000Y-116670000D02*
X149850000Y-116670000D01*
X149850000Y-116670000D02*
X150270000Y-117090000D01*
%TO.N,Net-(LED1-A_2)*%
X153732500Y-111577500D02*
X154730000Y-110580000D01*
X152100000Y-111577500D02*
X153732500Y-111577500D01*
%TO.N,Net-(LED1-A_1)*%
X152100000Y-112577500D02*
X152147500Y-112530000D01*
X156230000Y-113580000D02*
X156230000Y-113300000D01*
X156230000Y-113300000D02*
X155507500Y-112577500D01*
D42*
X156230000Y-113180000D02*
X156230000Y-113580000D01*
D40*
X155507500Y-112577500D02*
X152100000Y-112577500D01*
%TO.N,STM_SWCLK*%
X157340000Y-109457452D02*
X157340000Y-122320000D01*
X149650000Y-107510000D02*
X151240000Y-109100000D01*
X149220000Y-107940000D02*
X149650000Y-107510000D01*
X151240000Y-109100000D02*
X156982548Y-109100000D01*
X157340000Y-122320000D02*
X155770000Y-123890000D01*
X156982548Y-109100000D02*
X157340000Y-109457452D01*
X149220000Y-108732500D02*
X149220000Y-107940000D01*
X155770000Y-123890000D02*
X155770000Y-124420000D01*
%TO.N,LED_G*%
X150922500Y-112420000D02*
X151080000Y-112577500D01*
X149907500Y-112420000D02*
X150922500Y-112420000D01*
%TO.N,LED_R*%
X149907500Y-111920000D02*
X150737500Y-111920000D01*
X150737500Y-111920000D02*
X151080000Y-111577500D01*
%TO.N,S2LP_GPIO1*%
X147220000Y-103510000D02*
X146490000Y-102780000D01*
X147220000Y-108732500D02*
X147220000Y-103510000D01*
X146490000Y-102780000D02*
X146490000Y-99340000D01*
%TO.N,S2LP_CS*%
X147490000Y-102870000D02*
X147490000Y-99340000D01*
X148210000Y-108722500D02*
X148210000Y-103590000D01*
X148220000Y-108732500D02*
X148210000Y-108722500D01*
X148210000Y-103590000D02*
X147490000Y-102870000D01*
D42*
%TO.N,Net-(IC2-RXN)*%
X144740000Y-96090000D02*
X145740000Y-96090000D01*
D40*
%TO.N,Net-(IC2-SMPS1)*%
X151968202Y-100078202D02*
X153164298Y-100078202D01*
X150900000Y-98690000D02*
X151260000Y-98690000D01*
X149740000Y-98090000D02*
X150300000Y-98090000D01*
X151490000Y-98920000D02*
X151490000Y-99600000D01*
X150300000Y-98090000D02*
X150900000Y-98690000D01*
X151260000Y-98690000D02*
X151490000Y-98920000D01*
X151490000Y-99600000D02*
X151968202Y-100078202D01*
X153164298Y-100078202D02*
X154292500Y-98950000D01*
%TO.N,S2LP_GPIO0*%
X147720000Y-103557452D02*
X146990000Y-102827452D01*
X146990000Y-102827452D02*
X146990000Y-99340000D01*
X147720000Y-108732500D02*
X147720000Y-103557452D01*
D42*
%TO.N,Net-(IC2-RXP)*%
X144740000Y-96590000D02*
X145740000Y-96590000D01*
D40*
%TO.N,STM_SWDIO*%
X157020000Y-109590000D02*
X157020000Y-121510000D01*
X149907500Y-109420000D02*
X156850000Y-109420000D01*
X156850000Y-109420000D02*
X157020000Y-109590000D01*
X157020000Y-121510000D02*
X154110000Y-124420000D01*
X154110000Y-124420000D02*
X153230000Y-124420000D01*
%TO.N,STM_NRST*%
X139620000Y-120130000D02*
X143070000Y-123580000D01*
X145032500Y-111920000D02*
X142840000Y-111920000D01*
X143070000Y-123580000D02*
X143070000Y-124420000D01*
X142820000Y-111900000D02*
X139620000Y-115100000D01*
X139620000Y-115100000D02*
X139620000Y-120130000D01*
X142840000Y-111920000D02*
X142820000Y-111900000D01*
%TO.N,U_TX*%
X152220000Y-123640000D02*
X151440000Y-124420000D01*
X149907500Y-112920000D02*
X152220000Y-115232500D01*
X151440000Y-124420000D02*
X150690000Y-124420000D01*
X152220000Y-115232500D02*
X152220000Y-123640000D01*
%TO.N,U_RX*%
X145032500Y-109420000D02*
X144192500Y-108580000D01*
X139300000Y-112698718D02*
X139300000Y-123770000D01*
X143418718Y-108580000D02*
X139300000Y-112698718D01*
X144192500Y-108580000D02*
X143418718Y-108580000D01*
X139950000Y-124420000D02*
X140530000Y-124420000D01*
X139300000Y-123770000D02*
X139950000Y-124420000D01*
%TD*%
%TA.AperFunction,Conductor*%
%TO.N,GND*%
G36*
X137211780Y-91018482D02*
G01*
X137238800Y-91065282D01*
X137240000Y-91079000D01*
X137240000Y-91470000D01*
X137438838Y-91470000D01*
X137489618Y-91488482D01*
X137512808Y-91521261D01*
X137562831Y-91654656D01*
X137563355Y-91708693D01*
X137557827Y-91720699D01*
X137557475Y-91721550D01*
X137529500Y-91825956D01*
X137529500Y-93174043D01*
X137557474Y-93278446D01*
X137557475Y-93278448D01*
X137611519Y-93372055D01*
X139406361Y-95166896D01*
X139429199Y-95215872D01*
X139429500Y-95222757D01*
X139429500Y-95283485D01*
X139432488Y-95309238D01*
X139432488Y-95309240D01*
X139478997Y-95414574D01*
X139479003Y-95414582D01*
X139560417Y-95495996D01*
X139560420Y-95495998D01*
X139560423Y-95496001D01*
X139575666Y-95502731D01*
X139614654Y-95540150D01*
X139620468Y-95593876D01*
X139590388Y-95638769D01*
X139575668Y-95647267D01*
X139568350Y-95650499D01*
X139560423Y-95653999D01*
X139560417Y-95654003D01*
X139479003Y-95735417D01*
X139478997Y-95735425D01*
X139432488Y-95840759D01*
X139432488Y-95840761D01*
X139429500Y-95866514D01*
X139429500Y-96253485D01*
X139432488Y-96279238D01*
X139432488Y-96279240D01*
X139478997Y-96384574D01*
X139479003Y-96384582D01*
X139560417Y-96465996D01*
X139560421Y-96465999D01*
X139560423Y-96466001D01*
X139560424Y-96466001D01*
X139560425Y-96466002D01*
X139585816Y-96477213D01*
X139665762Y-96512512D01*
X139691516Y-96515500D01*
X139691518Y-96515500D01*
X140128482Y-96515500D01*
X140128484Y-96515500D01*
X140154238Y-96512512D01*
X140158416Y-96510666D01*
X140166199Y-96507231D01*
X140198108Y-96500500D01*
X140494512Y-96500500D01*
X140545292Y-96518982D01*
X140572312Y-96565782D01*
X140562928Y-96619000D01*
X140550373Y-96635361D01*
X140478217Y-96707516D01*
X140478213Y-96707522D01*
X140432910Y-96810124D01*
X140430000Y-96835205D01*
X140430000Y-96940000D01*
X141369999Y-96940000D01*
X141369999Y-96835213D01*
X141369998Y-96835201D01*
X141367089Y-96810126D01*
X141367088Y-96810122D01*
X141321788Y-96707524D01*
X141321782Y-96707516D01*
X141249627Y-96635361D01*
X141226789Y-96586385D01*
X141240775Y-96534187D01*
X141285041Y-96503192D01*
X141305488Y-96500500D01*
X141499876Y-96500500D01*
X141550656Y-96518982D01*
X141554875Y-96522849D01*
X141555108Y-96523009D01*
X141555109Y-96523010D01*
X141656173Y-96567634D01*
X141680877Y-96570500D01*
X142039122Y-96570499D01*
X142063827Y-96567634D01*
X142164891Y-96523010D01*
X142243010Y-96444891D01*
X142287634Y-96343827D01*
X142290500Y-96319123D01*
X142290499Y-95860878D01*
X142290499Y-95860874D01*
X142449500Y-95860874D01*
X142449500Y-96319116D01*
X142449501Y-96319128D01*
X142450820Y-96330500D01*
X142452366Y-96343827D01*
X142496990Y-96444891D01*
X142496992Y-96444893D01*
X142496994Y-96444896D01*
X142575103Y-96523005D01*
X142575108Y-96523009D01*
X142575109Y-96523010D01*
X142676173Y-96567634D01*
X142700877Y-96570500D01*
X143059122Y-96570499D01*
X143083827Y-96567634D01*
X143184891Y-96523010D01*
X143263010Y-96444891D01*
X143266233Y-96437590D01*
X143303651Y-96398603D01*
X143338502Y-96390500D01*
X143348131Y-96390500D01*
X143398911Y-96408982D01*
X143425931Y-96455782D01*
X143425613Y-96484912D01*
X143404710Y-96589999D01*
X143404710Y-96590000D01*
X143425664Y-96695346D01*
X143425665Y-96695348D01*
X143440023Y-96716837D01*
X143440024Y-96716838D01*
X143624139Y-96532724D01*
X143673115Y-96509886D01*
X143725313Y-96523872D01*
X143735862Y-96532724D01*
X143919974Y-96716837D01*
X143919975Y-96716837D01*
X143934334Y-96695349D01*
X143955290Y-96590000D01*
X143955290Y-96589999D01*
X143934335Y-96484650D01*
X143934334Y-96484649D01*
X143914614Y-96455136D01*
X143901770Y-96402646D01*
X143924438Y-96355385D01*
X143975286Y-96304538D01*
X144027130Y-96202789D01*
X144027130Y-96202788D01*
X144028043Y-96200997D01*
X144033539Y-96188651D01*
X144041583Y-96174718D01*
X144062525Y-96138447D01*
X144090500Y-96034043D01*
X144090500Y-95925957D01*
X144062525Y-95821553D01*
X144060199Y-95817525D01*
X144028418Y-95762477D01*
X144008482Y-95727947D01*
X144008481Y-95727946D01*
X144008480Y-95727944D01*
X143932055Y-95651519D01*
X143838448Y-95597475D01*
X143838446Y-95597474D01*
X143734043Y-95569500D01*
X143044043Y-95569500D01*
X142935956Y-95569500D01*
X142935955Y-95569500D01*
X142894904Y-95580500D01*
X142831551Y-95597475D01*
X142831550Y-95597476D01*
X142829047Y-95598921D01*
X142789557Y-95609500D01*
X142700884Y-95609500D01*
X142700871Y-95609501D01*
X142676173Y-95612366D01*
X142575109Y-95656990D01*
X142575103Y-95656994D01*
X142496994Y-95735103D01*
X142496989Y-95735109D01*
X142452366Y-95836173D01*
X142449500Y-95860874D01*
X142290499Y-95860874D01*
X142287634Y-95836173D01*
X142243010Y-95735109D01*
X142243007Y-95735106D01*
X142243005Y-95735103D01*
X142164896Y-95656994D01*
X142164888Y-95656988D01*
X142157931Y-95653917D01*
X142118943Y-95616499D01*
X142113128Y-95562773D01*
X142143208Y-95517879D01*
X142146483Y-95515988D01*
X142146439Y-95515923D01*
X142152483Y-95511782D01*
X142231782Y-95432483D01*
X142231786Y-95432477D01*
X142277089Y-95329875D01*
X142279999Y-95304794D01*
X142280000Y-95304791D01*
X142280000Y-95170000D01*
X141839000Y-95170000D01*
X141788220Y-95151518D01*
X141770008Y-95119974D01*
X143553161Y-95119974D01*
X143553161Y-95119975D01*
X143574650Y-95134334D01*
X143574653Y-95134335D01*
X143679999Y-95155290D01*
X143680001Y-95155290D01*
X143785349Y-95134334D01*
X143806837Y-95119975D01*
X143806837Y-95119973D01*
X143680001Y-94993137D01*
X143680000Y-94993137D01*
X143553161Y-95119974D01*
X141770008Y-95119974D01*
X141761200Y-95104718D01*
X141760000Y-95091000D01*
X141760000Y-95010000D01*
X141920000Y-95010000D01*
X142279999Y-95010000D01*
X142279999Y-94879999D01*
X143404710Y-94879999D01*
X143404710Y-94880000D01*
X143425664Y-94985346D01*
X143425665Y-94985348D01*
X143440023Y-95006837D01*
X143440024Y-95006838D01*
X143566863Y-94879999D01*
X143793137Y-94879999D01*
X143793137Y-94880001D01*
X143919973Y-95006837D01*
X143919975Y-95006837D01*
X143934334Y-94985349D01*
X143955290Y-94880000D01*
X143955290Y-94879999D01*
X143934335Y-94774653D01*
X143934334Y-94774650D01*
X143919974Y-94753161D01*
X143793137Y-94879999D01*
X143566863Y-94879999D01*
X143440025Y-94753161D01*
X143440023Y-94753161D01*
X143425665Y-94774650D01*
X143425664Y-94774651D01*
X143404710Y-94879999D01*
X142279999Y-94879999D01*
X142279999Y-94875213D01*
X142279998Y-94875201D01*
X142277089Y-94850126D01*
X142277088Y-94850122D01*
X142231788Y-94747524D01*
X142231782Y-94747516D01*
X142152483Y-94668217D01*
X142152477Y-94668213D01*
X142088632Y-94640023D01*
X143553161Y-94640023D01*
X143553161Y-94640025D01*
X143679999Y-94766863D01*
X143680000Y-94766863D01*
X143806838Y-94640024D01*
X143806837Y-94640023D01*
X143785348Y-94625665D01*
X143785346Y-94625664D01*
X143680001Y-94604710D01*
X143679999Y-94604710D01*
X143574651Y-94625664D01*
X143574650Y-94625665D01*
X143553161Y-94640023D01*
X142088632Y-94640023D01*
X142049874Y-94622910D01*
X142049875Y-94622910D01*
X142024794Y-94620000D01*
X141920000Y-94620000D01*
X141920000Y-95010000D01*
X141760000Y-95010000D01*
X141760000Y-94620000D01*
X141655214Y-94620000D01*
X141655201Y-94620001D01*
X141630126Y-94622910D01*
X141630122Y-94622911D01*
X141527524Y-94668211D01*
X141527516Y-94668217D01*
X141448217Y-94747516D01*
X141448211Y-94747525D01*
X141432540Y-94783016D01*
X141395121Y-94822003D01*
X141341395Y-94827817D01*
X141296502Y-94797736D01*
X141288003Y-94783013D01*
X141286529Y-94779675D01*
X141280873Y-94766863D01*
X141272208Y-94747238D01*
X141272201Y-94747229D01*
X141192770Y-94667798D01*
X141192767Y-94667796D01*
X141192765Y-94667794D01*
X141089991Y-94622415D01*
X141064865Y-94619500D01*
X141064864Y-94619500D01*
X140695141Y-94619500D01*
X140695129Y-94619501D01*
X140673149Y-94622050D01*
X140670009Y-94622415D01*
X140567235Y-94667794D01*
X140567234Y-94667794D01*
X140560539Y-94670751D01*
X140559744Y-94668952D01*
X140525683Y-94679500D01*
X140266053Y-94679500D01*
X140234144Y-94672769D01*
X140154239Y-94637488D01*
X140128485Y-94634500D01*
X140128484Y-94634500D01*
X140067757Y-94634500D01*
X140016977Y-94616018D01*
X140011896Y-94611361D01*
X138373639Y-92973104D01*
X138350801Y-92924128D01*
X138350500Y-92917243D01*
X138350500Y-91825959D01*
X138350500Y-91825957D01*
X138322525Y-91721553D01*
X138320543Y-91716768D01*
X138321731Y-91716275D01*
X138313338Y-91668676D01*
X138317168Y-91654655D01*
X138367191Y-91521261D01*
X138402327Y-91480204D01*
X138441161Y-91470000D01*
X156640000Y-91470000D01*
X156640000Y-91079000D01*
X156658482Y-91028220D01*
X156705282Y-91001200D01*
X156719000Y-91000000D01*
X157420500Y-91000000D01*
X157471280Y-91018482D01*
X157498300Y-91065282D01*
X157499500Y-91079000D01*
X157499500Y-109086110D01*
X157481018Y-109136890D01*
X157434218Y-109163910D01*
X157381000Y-109154526D01*
X157364639Y-109141971D01*
X157118782Y-108896114D01*
X157089316Y-108883909D01*
X157030387Y-108859500D01*
X157030386Y-108859500D01*
X157030385Y-108859500D01*
X151372340Y-108859500D01*
X151321560Y-108841018D01*
X151316479Y-108836361D01*
X150585920Y-108105801D01*
X150563082Y-108056825D01*
X150577068Y-108004627D01*
X150585921Y-107994078D01*
X150590000Y-107989999D01*
X150750000Y-107989999D01*
X150849038Y-107989999D01*
X150849046Y-107989998D01*
X150873710Y-107987137D01*
X150974600Y-107942591D01*
X150974608Y-107942585D01*
X151052585Y-107864608D01*
X151052589Y-107864602D01*
X151097137Y-107763709D01*
X151099999Y-107739043D01*
X151100000Y-107739041D01*
X151100000Y-107590000D01*
X150750000Y-107590000D01*
X150750000Y-107989999D01*
X150590000Y-107989999D01*
X150590000Y-107590000D01*
X150240000Y-107590000D01*
X150228076Y-107601923D01*
X150221519Y-107619940D01*
X150174719Y-107646960D01*
X150121501Y-107637576D01*
X150105140Y-107625021D01*
X150103638Y-107623519D01*
X150080800Y-107574543D01*
X150080499Y-107567658D01*
X150080499Y-107280956D01*
X150240000Y-107280956D01*
X150240000Y-107430000D01*
X150590000Y-107430000D01*
X150750000Y-107430000D01*
X151099999Y-107430000D01*
X151099999Y-107280962D01*
X151099998Y-107280953D01*
X151097137Y-107256289D01*
X151052591Y-107155399D01*
X151052585Y-107155391D01*
X150974608Y-107077414D01*
X150974602Y-107077410D01*
X150873709Y-107032862D01*
X150873710Y-107032862D01*
X150849043Y-107030000D01*
X150750000Y-107030000D01*
X150750000Y-107430000D01*
X150590000Y-107430000D01*
X150590000Y-107030000D01*
X150490962Y-107030000D01*
X150490952Y-107030001D01*
X150466289Y-107032862D01*
X150365399Y-107077408D01*
X150365391Y-107077414D01*
X150287414Y-107155391D01*
X150287410Y-107155397D01*
X150242862Y-107256290D01*
X150240000Y-107280956D01*
X150080499Y-107280956D01*
X150080499Y-107280883D01*
X150080498Y-107280871D01*
X150077634Y-107256173D01*
X150033010Y-107155109D01*
X150033007Y-107155106D01*
X150033005Y-107155103D01*
X149954896Y-107076994D01*
X149954890Y-107076989D01*
X149853827Y-107032366D01*
X149829124Y-107029500D01*
X149829123Y-107029500D01*
X149807268Y-107029500D01*
X149756488Y-107011018D01*
X149729468Y-106964218D01*
X149738852Y-106911000D01*
X149751407Y-106894639D01*
X152956429Y-103689618D01*
X156293886Y-100352161D01*
X156330500Y-100263767D01*
X156330500Y-100168089D01*
X156330500Y-95772162D01*
X156326092Y-95761518D01*
X156293886Y-95683767D01*
X156293885Y-95683766D01*
X156293883Y-95683763D01*
X154251635Y-93641515D01*
X154228797Y-93592539D01*
X154229299Y-93574416D01*
X154245750Y-93460000D01*
X154224859Y-93314696D01*
X154163877Y-93181164D01*
X154067744Y-93070222D01*
X153944250Y-92990857D01*
X153803399Y-92949500D01*
X153656601Y-92949500D01*
X153515750Y-92990857D01*
X153515749Y-92990857D01*
X153392255Y-93070222D01*
X153296123Y-93181163D01*
X153235141Y-93314695D01*
X153235140Y-93314698D01*
X153222363Y-93403569D01*
X153196842Y-93451202D01*
X153146674Y-93471286D01*
X153095332Y-93454424D01*
X153088306Y-93448187D01*
X151626236Y-91986116D01*
X151626234Y-91986114D01*
X151590985Y-91971514D01*
X151537839Y-91949500D01*
X151537838Y-91949500D01*
X151537837Y-91949500D01*
X148390639Y-91949500D01*
X148339859Y-91931018D01*
X148318370Y-91902409D01*
X148291002Y-91840425D01*
X148291001Y-91840424D01*
X148291001Y-91840423D01*
X148290999Y-91840421D01*
X148290996Y-91840417D01*
X148209582Y-91759003D01*
X148209574Y-91758997D01*
X148104239Y-91712488D01*
X148078485Y-91709500D01*
X148078484Y-91709500D01*
X147691516Y-91709500D01*
X147691514Y-91709500D01*
X147665761Y-91712488D01*
X147665759Y-91712488D01*
X147560425Y-91758997D01*
X147560417Y-91759003D01*
X147479003Y-91840417D01*
X147478999Y-91840423D01*
X147472269Y-91855666D01*
X147434850Y-91894654D01*
X147381124Y-91900468D01*
X147336231Y-91870388D01*
X147327731Y-91855666D01*
X147321001Y-91840423D01*
X147320998Y-91840420D01*
X147320996Y-91840417D01*
X147239582Y-91759003D01*
X147239574Y-91758997D01*
X147134239Y-91712488D01*
X147108485Y-91709500D01*
X147108484Y-91709500D01*
X146721516Y-91709500D01*
X146721514Y-91709500D01*
X146695761Y-91712488D01*
X146695759Y-91712488D01*
X146590425Y-91758997D01*
X146590417Y-91759003D01*
X146509003Y-91840417D01*
X146508997Y-91840425D01*
X146462488Y-91945759D01*
X146462488Y-91945761D01*
X146459500Y-91971514D01*
X146459500Y-92408485D01*
X146462488Y-92434238D01*
X146462488Y-92434240D01*
X146508997Y-92539574D01*
X146509003Y-92539582D01*
X146570289Y-92600868D01*
X146593127Y-92649844D01*
X146579141Y-92702042D01*
X146546337Y-92728998D01*
X146457524Y-92768211D01*
X146457516Y-92768217D01*
X146378217Y-92847516D01*
X146378211Y-92847525D01*
X146362540Y-92883016D01*
X146325121Y-92922003D01*
X146271395Y-92927817D01*
X146226502Y-92897736D01*
X146218003Y-92883013D01*
X146202208Y-92847238D01*
X146202201Y-92847229D01*
X146122770Y-92767798D01*
X146122767Y-92767796D01*
X146122765Y-92767794D01*
X146019991Y-92722415D01*
X145994865Y-92719500D01*
X145994864Y-92719500D01*
X145625141Y-92719500D01*
X145625129Y-92719501D01*
X145603149Y-92722050D01*
X145600009Y-92722415D01*
X145497235Y-92767794D01*
X145497229Y-92767798D01*
X145417798Y-92847229D01*
X145417793Y-92847236D01*
X145393432Y-92902410D01*
X145356013Y-92941398D01*
X145321163Y-92949500D01*
X145252161Y-92949500D01*
X145163767Y-92986114D01*
X144951511Y-93198368D01*
X144902535Y-93221205D01*
X144873395Y-93218307D01*
X144859126Y-93214117D01*
X144843399Y-93209500D01*
X144696601Y-93209500D01*
X144555750Y-93250857D01*
X144555749Y-93250857D01*
X144432255Y-93330222D01*
X144336123Y-93441163D01*
X144275141Y-93574695D01*
X144275140Y-93574698D01*
X144254250Y-93720000D01*
X144275140Y-93865301D01*
X144275141Y-93865304D01*
X144336123Y-93998836D01*
X144428428Y-94105361D01*
X144432256Y-94109778D01*
X144555750Y-94189143D01*
X144696601Y-94230500D01*
X144843399Y-94230500D01*
X144848992Y-94229696D01*
X144849460Y-94232954D01*
X144891240Y-94235197D01*
X144930715Y-94272102D01*
X144937233Y-94325747D01*
X144916141Y-94363739D01*
X144787707Y-94492173D01*
X144744205Y-94514339D01*
X144627212Y-94532869D01*
X144627208Y-94532870D01*
X144525463Y-94584712D01*
X144525460Y-94584714D01*
X144444714Y-94665460D01*
X144444712Y-94665463D01*
X144392870Y-94767208D01*
X144392869Y-94767212D01*
X144375006Y-94879997D01*
X144375006Y-94880002D01*
X144392869Y-94992787D01*
X144392870Y-94992791D01*
X144444712Y-95094536D01*
X144444714Y-95094539D01*
X144525460Y-95175285D01*
X144525463Y-95175287D01*
X144627208Y-95227129D01*
X144627210Y-95227129D01*
X144627211Y-95227130D01*
X144664807Y-95233084D01*
X144739998Y-95244994D01*
X144740000Y-95244994D01*
X144740002Y-95244994D01*
X144796394Y-95236062D01*
X144852789Y-95227130D01*
X144954538Y-95175286D01*
X144981984Y-95147839D01*
X145030958Y-95125002D01*
X145083157Y-95138987D01*
X145114153Y-95183253D01*
X145116041Y-95192458D01*
X145135140Y-95325301D01*
X145135141Y-95325304D01*
X145196123Y-95458836D01*
X145284215Y-95560499D01*
X145292256Y-95569778D01*
X145361613Y-95614351D01*
X145392251Y-95634041D01*
X145424977Y-95677044D01*
X145422406Y-95731022D01*
X145385740Y-95770718D01*
X145349540Y-95779500D01*
X145324194Y-95779500D01*
X145277376Y-95788812D01*
X145236407Y-95816187D01*
X145192518Y-95829500D01*
X145022047Y-95829500D01*
X144971267Y-95811018D01*
X144966186Y-95806361D01*
X144954539Y-95794714D01*
X144954536Y-95794712D01*
X144852791Y-95742870D01*
X144852787Y-95742869D01*
X144740002Y-95725006D01*
X144739998Y-95725006D01*
X144627212Y-95742869D01*
X144627208Y-95742870D01*
X144525463Y-95794712D01*
X144525460Y-95794714D01*
X144444714Y-95875460D01*
X144444712Y-95875463D01*
X144392870Y-95977208D01*
X144392869Y-95977212D01*
X144375006Y-96089997D01*
X144375006Y-96090002D01*
X144392868Y-96202786D01*
X144444508Y-96304135D01*
X144451093Y-96357771D01*
X144444508Y-96375865D01*
X144392868Y-96477213D01*
X144375006Y-96589997D01*
X144375006Y-96590002D01*
X144392868Y-96702786D01*
X144436603Y-96788620D01*
X144443188Y-96842256D01*
X144413756Y-96887577D01*
X144385237Y-96899000D01*
X144385742Y-96900856D01*
X144380009Y-96902415D01*
X144277235Y-96947794D01*
X144277229Y-96947798D01*
X144197798Y-97027229D01*
X144197791Y-97027238D01*
X144181994Y-97063016D01*
X144144574Y-97102003D01*
X144090849Y-97107816D01*
X144045956Y-97077735D01*
X144037456Y-97063013D01*
X144021786Y-97027521D01*
X144021782Y-97027516D01*
X143942483Y-96948217D01*
X143942477Y-96948213D01*
X143853645Y-96908990D01*
X143814657Y-96871571D01*
X143807177Y-96830313D01*
X143680001Y-96703137D01*
X143680000Y-96703137D01*
X143545186Y-96837949D01*
X143538097Y-96865607D01*
X143494170Y-96897081D01*
X143472898Y-96900000D01*
X143445214Y-96900000D01*
X143445201Y-96900001D01*
X143420126Y-96902910D01*
X143420122Y-96902911D01*
X143317524Y-96948211D01*
X143317516Y-96948217D01*
X143238217Y-97027516D01*
X143238213Y-97027522D01*
X143192910Y-97130124D01*
X143190000Y-97155205D01*
X143190000Y-97290000D01*
X143631000Y-97290000D01*
X143681780Y-97308482D01*
X143708800Y-97355282D01*
X143710000Y-97369000D01*
X143710000Y-97863945D01*
X143711916Y-97868054D01*
X143697930Y-97920252D01*
X143689078Y-97930800D01*
X143617552Y-98002326D01*
X143568576Y-98025164D01*
X143516378Y-98011178D01*
X143501989Y-97998202D01*
X143478186Y-97970732D01*
X143458901Y-97920253D01*
X143476575Y-97869186D01*
X143522939Y-97841427D01*
X143537891Y-97839999D01*
X143550000Y-97839999D01*
X143550000Y-97450000D01*
X143190001Y-97450000D01*
X143190001Y-97584798D01*
X143192910Y-97609873D01*
X143192911Y-97609877D01*
X143238211Y-97712475D01*
X143238217Y-97712483D01*
X143240373Y-97714639D01*
X143241821Y-97717744D01*
X143242351Y-97718518D01*
X143242222Y-97718605D01*
X143263211Y-97763615D01*
X143249225Y-97815813D01*
X143204959Y-97846808D01*
X143184512Y-97849500D01*
X143066601Y-97849500D01*
X142925750Y-97890857D01*
X142925749Y-97890857D01*
X142802255Y-97970222D01*
X142706123Y-98081163D01*
X142645141Y-98214695D01*
X142645140Y-98214698D01*
X142624250Y-98360000D01*
X142645140Y-98505301D01*
X142645141Y-98505304D01*
X142706123Y-98638836D01*
X142802256Y-98749778D01*
X142925750Y-98829143D01*
X143066601Y-98870500D01*
X143213398Y-98870500D01*
X143213399Y-98870500D01*
X143354250Y-98829143D01*
X143477744Y-98749778D01*
X143573877Y-98638836D01*
X143573878Y-98638832D01*
X143575192Y-98636790D01*
X143576536Y-98635766D01*
X143577577Y-98634566D01*
X143577828Y-98634783D01*
X143618194Y-98604063D01*
X143641651Y-98600500D01*
X143647837Y-98600500D01*
X143647839Y-98600500D01*
X143736233Y-98563886D01*
X143812748Y-98487370D01*
X143861721Y-98464534D01*
X143913919Y-98478519D01*
X143944915Y-98522785D01*
X143940322Y-98575286D01*
X143940366Y-98575304D01*
X143940308Y-98575441D01*
X143940206Y-98576619D01*
X143938747Y-98579211D01*
X143925212Y-98611889D01*
X143901653Y-98668767D01*
X143900774Y-98670888D01*
X143900774Y-105973435D01*
X143900774Y-106069113D01*
X143937388Y-106157507D01*
X144168717Y-106388836D01*
X144314520Y-106534638D01*
X144337358Y-106583615D01*
X144323372Y-106635812D01*
X144279106Y-106666808D01*
X144258659Y-106669500D01*
X144186601Y-106669500D01*
X144045750Y-106710857D01*
X144045749Y-106710857D01*
X143922255Y-106790222D01*
X143826123Y-106901163D01*
X143765141Y-107034695D01*
X143765140Y-107034698D01*
X143744250Y-107180000D01*
X143765140Y-107325301D01*
X143765141Y-107325304D01*
X143826123Y-107458836D01*
X143922256Y-107569778D01*
X144045750Y-107649143D01*
X144186601Y-107690500D01*
X144186602Y-107690500D01*
X144191268Y-107691171D01*
X144235888Y-107713506D01*
X145411361Y-108888978D01*
X145434199Y-108937954D01*
X145434500Y-108944838D01*
X145434501Y-109055499D01*
X145416019Y-109106280D01*
X145369220Y-109133300D01*
X145355501Y-109134500D01*
X145119840Y-109134500D01*
X145069060Y-109116018D01*
X145063990Y-109111372D01*
X144328733Y-108376114D01*
X144240339Y-108339500D01*
X144240338Y-108339500D01*
X143466557Y-108339500D01*
X143370880Y-108339500D01*
X143282485Y-108376114D01*
X143282483Y-108376115D01*
X143282480Y-108376117D01*
X139096116Y-112562482D01*
X139096114Y-112562485D01*
X139060926Y-112647438D01*
X139059500Y-112650880D01*
X139059500Y-123722161D01*
X139059500Y-123817839D01*
X139096114Y-123906233D01*
X139496361Y-124306479D01*
X139519199Y-124355456D01*
X139519500Y-124362341D01*
X139519500Y-124420500D01*
X139501018Y-124471280D01*
X139454218Y-124498300D01*
X139440500Y-124499500D01*
X136579500Y-124499500D01*
X136528720Y-124481018D01*
X136501700Y-124434218D01*
X136500500Y-124420500D01*
X136500500Y-97204798D01*
X140430001Y-97204798D01*
X140432910Y-97229873D01*
X140432911Y-97229877D01*
X140478211Y-97332475D01*
X140478217Y-97332483D01*
X140557516Y-97411782D01*
X140557522Y-97411786D01*
X140660125Y-97457089D01*
X140660124Y-97457089D01*
X140685207Y-97459999D01*
X140820000Y-97459999D01*
X140980000Y-97459999D01*
X141114786Y-97459999D01*
X141114798Y-97459998D01*
X141139873Y-97457089D01*
X141139877Y-97457088D01*
X141242475Y-97411788D01*
X141242483Y-97411782D01*
X141321782Y-97332483D01*
X141321786Y-97332477D01*
X141367089Y-97229875D01*
X141369999Y-97204794D01*
X141370000Y-97204791D01*
X141370000Y-97100000D01*
X140980000Y-97100000D01*
X140980000Y-97459999D01*
X140820000Y-97459999D01*
X140820000Y-97100000D01*
X140430001Y-97100000D01*
X140430001Y-97204798D01*
X136500500Y-97204798D01*
X136500500Y-91079000D01*
X136518982Y-91028220D01*
X136565782Y-91001200D01*
X136579500Y-91000000D01*
X137161000Y-91000000D01*
X137211780Y-91018482D01*
G37*
%TD.AperFunction*%
%TA.AperFunction,Conductor*%
G36*
X144425545Y-112178982D02*
G01*
X144452565Y-112225782D01*
X144448515Y-112262771D01*
X144448956Y-112262859D01*
X144447954Y-112267893D01*
X144447754Y-112269726D01*
X144447438Y-112270487D01*
X144437885Y-112318518D01*
X144436860Y-112323673D01*
X144434500Y-112335536D01*
X144434500Y-112504463D01*
X144447437Y-112569508D01*
X144447437Y-112569509D01*
X144447438Y-112569510D01*
X144485257Y-112626109D01*
X144498102Y-112678599D01*
X144485257Y-112713889D01*
X144447438Y-112770488D01*
X144434500Y-112835536D01*
X144434500Y-113004463D01*
X144445149Y-113058000D01*
X144447438Y-113069510D01*
X144496726Y-113143274D01*
X144570490Y-113192562D01*
X144635535Y-113205500D01*
X145355500Y-113205499D01*
X145406280Y-113223981D01*
X145433300Y-113270781D01*
X145434500Y-113284499D01*
X145434500Y-114004463D01*
X145447438Y-114069510D01*
X145496725Y-114143274D01*
X145543928Y-114174814D01*
X145575882Y-114218394D01*
X145572347Y-114272317D01*
X145534978Y-114311353D01*
X145500038Y-114319500D01*
X145277839Y-114319500D01*
X145182161Y-114319500D01*
X145144562Y-114335074D01*
X145093765Y-114356114D01*
X145093763Y-114356116D01*
X143373520Y-116076361D01*
X143324544Y-116099199D01*
X143317659Y-116099500D01*
X143262161Y-116099500D01*
X143217964Y-116117807D01*
X143173765Y-116136114D01*
X143173764Y-116136116D01*
X142576116Y-116733764D01*
X142576111Y-116733771D01*
X142540391Y-116820009D01*
X142540390Y-116820012D01*
X142539501Y-116822157D01*
X142539500Y-116822163D01*
X142539500Y-117784589D01*
X142521018Y-117835369D01*
X142503211Y-117851048D01*
X142442255Y-117890222D01*
X142346123Y-118001163D01*
X142285141Y-118134695D01*
X142285140Y-118134698D01*
X142264250Y-118280000D01*
X142285140Y-118425301D01*
X142285141Y-118425304D01*
X142346123Y-118558836D01*
X142426750Y-118651884D01*
X142442256Y-118669778D01*
X142565750Y-118749143D01*
X142706601Y-118790500D01*
X142853398Y-118790500D01*
X142853399Y-118790500D01*
X142994250Y-118749143D01*
X143117744Y-118669778D01*
X143176960Y-118601439D01*
X143224180Y-118575167D01*
X143277242Y-118585394D01*
X143296365Y-118601440D01*
X143312254Y-118619776D01*
X143312256Y-118619778D01*
X143435750Y-118699143D01*
X143576601Y-118740500D01*
X143723398Y-118740500D01*
X143723399Y-118740500D01*
X143864250Y-118699143D01*
X143957791Y-118639027D01*
X144010500Y-118627123D01*
X144058532Y-118651884D01*
X144079410Y-118701728D01*
X144079500Y-118705487D01*
X144079500Y-119206233D01*
X144079500Y-119301911D01*
X144116114Y-119390305D01*
X144464611Y-119738802D01*
X144487449Y-119787778D01*
X144481020Y-119826569D01*
X144472366Y-119846169D01*
X144469500Y-119870876D01*
X144469500Y-120229116D01*
X144469501Y-120229128D01*
X144471956Y-120250297D01*
X144472366Y-120253827D01*
X144516990Y-120354891D01*
X144516992Y-120354893D01*
X144516994Y-120354896D01*
X144595103Y-120433005D01*
X144595108Y-120433009D01*
X144595109Y-120433010D01*
X144696173Y-120477634D01*
X144720877Y-120480500D01*
X145179122Y-120480499D01*
X145203827Y-120477634D01*
X145304891Y-120433010D01*
X145383010Y-120354891D01*
X145384949Y-120350500D01*
X145395066Y-120327590D01*
X145432485Y-120288602D01*
X145467334Y-120280500D01*
X145487384Y-120280500D01*
X145538164Y-120298982D01*
X145565184Y-120345782D01*
X145564916Y-120370332D01*
X145565380Y-120370378D01*
X145565000Y-120374235D01*
X145565000Y-120460000D01*
X146834999Y-120460000D01*
X146834999Y-120374240D01*
X146825717Y-120327573D01*
X146822891Y-120320750D01*
X146820535Y-120266763D01*
X146823765Y-120260044D01*
X146823209Y-120259814D01*
X146826187Y-120252624D01*
X146835500Y-120205805D01*
X146835500Y-119874194D01*
X146826187Y-119827378D01*
X146826187Y-119827376D01*
X146826184Y-119827372D01*
X146823228Y-119820234D01*
X146820870Y-119766246D01*
X146823228Y-119759766D01*
X146826183Y-119752628D01*
X146826187Y-119752624D01*
X146835500Y-119705806D01*
X146835500Y-119374194D01*
X146826187Y-119327376D01*
X146826184Y-119327372D01*
X146823228Y-119320234D01*
X146820870Y-119266246D01*
X146823228Y-119259766D01*
X146826183Y-119252628D01*
X146826187Y-119252624D01*
X146835500Y-119205806D01*
X146835500Y-118874194D01*
X146826187Y-118827376D01*
X146803193Y-118792963D01*
X146790350Y-118740473D01*
X146809178Y-118697339D01*
X146833877Y-118668836D01*
X146871406Y-118586657D01*
X146909312Y-118548144D01*
X146963107Y-118543007D01*
X147007618Y-118573650D01*
X147015128Y-118586657D01*
X147016123Y-118588836D01*
X147096503Y-118681599D01*
X147112256Y-118699778D01*
X147235750Y-118779143D01*
X147275387Y-118790781D01*
X147318903Y-118822821D01*
X147331643Y-118875337D01*
X147326118Y-118896810D01*
X147323812Y-118902375D01*
X147314500Y-118949194D01*
X147314500Y-120630805D01*
X147323812Y-120677623D01*
X147359285Y-120730714D01*
X147385831Y-120748450D01*
X147412376Y-120766187D01*
X147459194Y-120775500D01*
X147740806Y-120775500D01*
X147787624Y-120766187D01*
X147840714Y-120730714D01*
X147876187Y-120677624D01*
X147885500Y-120630806D01*
X147885500Y-120586340D01*
X147903982Y-120535560D01*
X147950782Y-120508540D01*
X148004000Y-120517924D01*
X148020361Y-120530479D01*
X148166114Y-120676232D01*
X148233768Y-120743886D01*
X148322162Y-120780500D01*
X148351349Y-120780500D01*
X148402129Y-120798982D01*
X148407207Y-120803635D01*
X148409283Y-120805710D01*
X148409286Y-120805714D01*
X148462376Y-120841187D01*
X148509194Y-120850500D01*
X149490806Y-120850500D01*
X149537624Y-120841187D01*
X149590714Y-120805714D01*
X149626187Y-120752624D01*
X149635500Y-120705806D01*
X149635500Y-120383456D01*
X149653982Y-120332676D01*
X149700782Y-120305656D01*
X149754000Y-120315040D01*
X149770869Y-120330658D01*
X149771813Y-120329715D01*
X149855103Y-120413005D01*
X149855108Y-120413009D01*
X149855109Y-120413010D01*
X149956173Y-120457634D01*
X149980877Y-120460500D01*
X150439122Y-120460499D01*
X150463827Y-120457634D01*
X150564891Y-120413010D01*
X150643010Y-120334891D01*
X150647767Y-120324116D01*
X150685182Y-120285128D01*
X150738908Y-120279311D01*
X150775897Y-120300163D01*
X150857516Y-120381782D01*
X150857522Y-120381786D01*
X150960125Y-120427089D01*
X150960124Y-120427089D01*
X150985207Y-120429999D01*
X151120000Y-120429999D01*
X151280000Y-120429999D01*
X151414786Y-120429999D01*
X151414798Y-120429998D01*
X151439873Y-120427089D01*
X151439877Y-120427088D01*
X151542475Y-120381788D01*
X151542483Y-120381782D01*
X151621782Y-120302483D01*
X151621786Y-120302477D01*
X151667089Y-120199875D01*
X151669999Y-120174794D01*
X151670000Y-120174791D01*
X151670000Y-120070000D01*
X151280000Y-120070000D01*
X151280000Y-120429999D01*
X151120000Y-120429999D01*
X151120000Y-119989000D01*
X151138482Y-119938220D01*
X151185282Y-119911200D01*
X151199000Y-119910000D01*
X151669999Y-119910000D01*
X151669999Y-119805213D01*
X151669998Y-119805201D01*
X151667089Y-119780126D01*
X151667088Y-119780122D01*
X151621788Y-119677524D01*
X151621782Y-119677516D01*
X151542483Y-119598217D01*
X151542476Y-119598212D01*
X151506984Y-119582541D01*
X151467996Y-119545121D01*
X151462182Y-119491396D01*
X151492263Y-119446503D01*
X151506971Y-119438010D01*
X151542765Y-119422206D01*
X151622206Y-119342765D01*
X151667585Y-119239991D01*
X151670500Y-119214865D01*
X151670499Y-118845136D01*
X151667585Y-118820009D01*
X151622206Y-118717235D01*
X151622203Y-118717232D01*
X151622201Y-118717229D01*
X151542770Y-118637798D01*
X151542767Y-118637796D01*
X151542765Y-118637794D01*
X151439991Y-118592415D01*
X151423485Y-118590500D01*
X151414866Y-118589500D01*
X151414865Y-118589500D01*
X151192624Y-118589500D01*
X151141844Y-118571018D01*
X151114824Y-118524218D01*
X151124208Y-118471000D01*
X151136763Y-118454639D01*
X151660634Y-117930767D01*
X151660636Y-117930764D01*
X151844640Y-117746759D01*
X151893615Y-117723923D01*
X151945813Y-117737909D01*
X151976808Y-117782176D01*
X151979500Y-117802622D01*
X151979500Y-123507659D01*
X151961018Y-123558439D01*
X151956361Y-123563520D01*
X151365181Y-124154699D01*
X151316205Y-124177537D01*
X151264007Y-124163551D01*
X151259205Y-124159908D01*
X151254120Y-124155735D01*
X151213820Y-124134194D01*
X151078573Y-124061903D01*
X151078572Y-124061902D01*
X151078569Y-124061901D01*
X150888099Y-124004122D01*
X150888095Y-124004121D01*
X150690000Y-123984611D01*
X150491904Y-124004121D01*
X150491900Y-124004122D01*
X150301430Y-124061901D01*
X150301429Y-124061901D01*
X150125878Y-124155735D01*
X149972011Y-124282011D01*
X149845735Y-124435879D01*
X149834049Y-124457742D01*
X149793810Y-124493813D01*
X149764378Y-124499500D01*
X149075622Y-124499500D01*
X149024842Y-124481018D01*
X149005951Y-124457742D01*
X149000701Y-124447921D01*
X148994265Y-124435880D01*
X148933913Y-124362341D01*
X148867988Y-124282011D01*
X148714121Y-124155735D01*
X148538569Y-124061901D01*
X148348099Y-124004122D01*
X148348095Y-124004121D01*
X148150000Y-123984611D01*
X147951904Y-124004121D01*
X147951900Y-124004122D01*
X147761430Y-124061901D01*
X147761429Y-124061901D01*
X147585878Y-124155735D01*
X147432011Y-124282011D01*
X147305735Y-124435879D01*
X147294049Y-124457742D01*
X147253810Y-124493813D01*
X147224378Y-124499500D01*
X146535055Y-124499500D01*
X146484275Y-124481018D01*
X146465383Y-124457741D01*
X146453845Y-124436156D01*
X146327633Y-124282366D01*
X146173842Y-124156153D01*
X145998375Y-124062365D01*
X145808001Y-124004615D01*
X145807998Y-124004614D01*
X145690000Y-123992992D01*
X145690000Y-124420500D01*
X145671518Y-124471280D01*
X145624718Y-124498300D01*
X145611000Y-124499500D01*
X145609000Y-124499500D01*
X145558220Y-124481018D01*
X145531200Y-124434218D01*
X145530000Y-124420500D01*
X145530000Y-123992992D01*
X145412001Y-124004614D01*
X145411998Y-124004615D01*
X145221624Y-124062365D01*
X145221623Y-124062365D01*
X145046157Y-124156153D01*
X144892366Y-124282366D01*
X144766154Y-124436156D01*
X144754617Y-124457741D01*
X144714379Y-124493812D01*
X144684945Y-124499500D01*
X143995622Y-124499500D01*
X143944842Y-124481018D01*
X143925951Y-124457742D01*
X143920701Y-124447921D01*
X143914265Y-124435880D01*
X143853913Y-124362341D01*
X143787988Y-124282011D01*
X143634121Y-124155735D01*
X143458569Y-124061901D01*
X143366567Y-124033992D01*
X143323339Y-124001565D01*
X143310500Y-123958394D01*
X143310500Y-123532163D01*
X143310500Y-123532162D01*
X143273886Y-123443768D01*
X143206232Y-123376114D01*
X140535875Y-120705756D01*
X145565001Y-120705756D01*
X145574282Y-120752427D01*
X145574283Y-120752429D01*
X145609646Y-120805353D01*
X145662571Y-120840717D01*
X145709239Y-120849999D01*
X146120000Y-120849999D01*
X146280000Y-120849999D01*
X146690756Y-120849999D01*
X146737427Y-120840717D01*
X146737429Y-120840716D01*
X146790353Y-120805353D01*
X146825717Y-120752428D01*
X146835000Y-120705760D01*
X146835000Y-120620000D01*
X146280000Y-120620000D01*
X146280000Y-120849999D01*
X146120000Y-120849999D01*
X146120000Y-120620000D01*
X145565001Y-120620000D01*
X145565001Y-120705756D01*
X140535875Y-120705756D01*
X139883639Y-120053520D01*
X139860801Y-120004544D01*
X139860500Y-119997659D01*
X139860500Y-115232339D01*
X139878982Y-115181559D01*
X139883628Y-115176489D01*
X142696479Y-112363637D01*
X142745455Y-112340800D01*
X142752340Y-112340499D01*
X143034858Y-112340499D01*
X143034864Y-112340499D01*
X143059991Y-112337585D01*
X143162765Y-112292206D01*
X143242206Y-112212765D01*
X143242206Y-112212763D01*
X143244317Y-112210653D01*
X143293293Y-112187815D01*
X143345491Y-112201801D01*
X143372447Y-112234603D01*
X143376990Y-112244891D01*
X143376992Y-112244893D01*
X143376994Y-112244896D01*
X143455103Y-112323005D01*
X143455108Y-112323009D01*
X143455109Y-112323010D01*
X143556173Y-112367634D01*
X143580877Y-112370500D01*
X144039122Y-112370499D01*
X144063827Y-112367634D01*
X144164891Y-112323010D01*
X144243010Y-112244891D01*
X144249064Y-112231179D01*
X144259481Y-112207590D01*
X144296900Y-112168602D01*
X144331749Y-112160500D01*
X144374765Y-112160500D01*
X144425545Y-112178982D01*
G37*
%TD.AperFunction*%
%TA.AperFunction,Conductor*%
G36*
X154005631Y-109678982D02*
G01*
X154032651Y-109725782D01*
X154028959Y-109759471D01*
X154030331Y-109759744D01*
X154019500Y-109814194D01*
X154019500Y-110917659D01*
X154001018Y-110968439D01*
X153996361Y-110973520D01*
X153656020Y-111313861D01*
X153607044Y-111336699D01*
X153600159Y-111337000D01*
X152584995Y-111337000D01*
X152534215Y-111318518D01*
X152512726Y-111289910D01*
X152504237Y-111270685D01*
X152483010Y-111222609D01*
X152483005Y-111222603D01*
X152404896Y-111144494D01*
X152404890Y-111144489D01*
X152348450Y-111119568D01*
X152303827Y-111099866D01*
X152279123Y-111097000D01*
X152279122Y-111097000D01*
X151920883Y-111097000D01*
X151920871Y-111097001D01*
X151896173Y-111099866D01*
X151795109Y-111144490D01*
X151795103Y-111144494D01*
X151716994Y-111222603D01*
X151716989Y-111222609D01*
X151672366Y-111323673D01*
X151669500Y-111348374D01*
X151669500Y-111806616D01*
X151669501Y-111806628D01*
X151670820Y-111818000D01*
X151672366Y-111831327D01*
X151716990Y-111932391D01*
X151716992Y-111932393D01*
X151716994Y-111932396D01*
X151795107Y-112010509D01*
X151797758Y-112012325D01*
X151799859Y-112015261D01*
X151800285Y-112015687D01*
X151800214Y-112015757D01*
X151829207Y-112056270D01*
X151825051Y-112110149D01*
X151797758Y-112142675D01*
X151795107Y-112144490D01*
X151716994Y-112222603D01*
X151716989Y-112222609D01*
X151672366Y-112323673D01*
X151669500Y-112348374D01*
X151669500Y-112806616D01*
X151669501Y-112806628D01*
X151671760Y-112826102D01*
X151672366Y-112831327D01*
X151716990Y-112932391D01*
X151716992Y-112932393D01*
X151716994Y-112932396D01*
X151795103Y-113010505D01*
X151795108Y-113010509D01*
X151795109Y-113010510D01*
X151896173Y-113055134D01*
X151920877Y-113058000D01*
X152279122Y-113057999D01*
X152303827Y-113055134D01*
X152404891Y-113010510D01*
X152483010Y-112932391D01*
X152512726Y-112865089D01*
X152550145Y-112826102D01*
X152584995Y-112818000D01*
X153941000Y-112818000D01*
X153991780Y-112836482D01*
X154018800Y-112883282D01*
X154020000Y-112897000D01*
X154020000Y-113500000D01*
X154731000Y-113500000D01*
X154781780Y-113518482D01*
X154808800Y-113565282D01*
X154810000Y-113579000D01*
X154810000Y-114489999D01*
X155295756Y-114489999D01*
X155342427Y-114480717D01*
X155342429Y-114480716D01*
X155395352Y-114445354D01*
X155414012Y-114417428D01*
X155457591Y-114385473D01*
X155511515Y-114389007D01*
X155545385Y-114417427D01*
X155564045Y-114445354D01*
X155564286Y-114445714D01*
X155617376Y-114481187D01*
X155664194Y-114490500D01*
X156700500Y-114490500D01*
X156751280Y-114508982D01*
X156778300Y-114555782D01*
X156779500Y-114569500D01*
X156779500Y-121377659D01*
X156761018Y-121428439D01*
X156756361Y-121433520D01*
X154033520Y-124156361D01*
X153984544Y-124179199D01*
X153977659Y-124179500D01*
X153851345Y-124179500D01*
X153801229Y-124161569D01*
X153794120Y-124155735D01*
X153753820Y-124134194D01*
X153618573Y-124061903D01*
X153618572Y-124061902D01*
X153618569Y-124061901D01*
X153428099Y-124004122D01*
X153428095Y-124004121D01*
X153230000Y-123984611D01*
X153031904Y-124004121D01*
X153031900Y-124004122D01*
X152841430Y-124061901D01*
X152841429Y-124061901D01*
X152665878Y-124155735D01*
X152512011Y-124282011D01*
X152385735Y-124435879D01*
X152374049Y-124457742D01*
X152333810Y-124493813D01*
X152304378Y-124499500D01*
X151891341Y-124499500D01*
X151840561Y-124481018D01*
X151813541Y-124434218D01*
X151822925Y-124381000D01*
X151835480Y-124364639D01*
X152423883Y-123776235D01*
X152423885Y-123776233D01*
X152423884Y-123776233D01*
X152423886Y-123776232D01*
X152460500Y-123687838D01*
X152460500Y-123592161D01*
X152460500Y-115184662D01*
X152451194Y-115162194D01*
X152423886Y-115096267D01*
X152423885Y-115096266D01*
X152423883Y-115096263D01*
X151673376Y-114345756D01*
X154020001Y-114345756D01*
X154029282Y-114392427D01*
X154029283Y-114392429D01*
X154064646Y-114445353D01*
X154117571Y-114480717D01*
X154164239Y-114489999D01*
X154650000Y-114489999D01*
X154650000Y-113660000D01*
X154020001Y-113660000D01*
X154020001Y-114345756D01*
X151673376Y-114345756D01*
X150500180Y-113172561D01*
X150477342Y-113123585D01*
X150490359Y-113072806D01*
X150492562Y-113069510D01*
X150505500Y-113004465D01*
X150505499Y-112873205D01*
X150523981Y-112822425D01*
X150570780Y-112795405D01*
X150623998Y-112804789D01*
X150656766Y-112841293D01*
X150696990Y-112932391D01*
X150696992Y-112932393D01*
X150696994Y-112932396D01*
X150775103Y-113010505D01*
X150775108Y-113010509D01*
X150775109Y-113010510D01*
X150876173Y-113055134D01*
X150900877Y-113058000D01*
X151259122Y-113057999D01*
X151283827Y-113055134D01*
X151384891Y-113010510D01*
X151463010Y-112932391D01*
X151507634Y-112831327D01*
X151510500Y-112806623D01*
X151510499Y-112348378D01*
X151507634Y-112323673D01*
X151463010Y-112222609D01*
X151463007Y-112222606D01*
X151463005Y-112222603D01*
X151384897Y-112144495D01*
X151384893Y-112144492D01*
X151384891Y-112144490D01*
X151384887Y-112144488D01*
X151382244Y-112142678D01*
X151380139Y-112139737D01*
X151379715Y-112139313D01*
X151379785Y-112139242D01*
X151350793Y-112098734D01*
X151354947Y-112044854D01*
X151382244Y-112012322D01*
X151384883Y-112010513D01*
X151384891Y-112010510D01*
X151463010Y-111932391D01*
X151507634Y-111831327D01*
X151510500Y-111806623D01*
X151510499Y-111348378D01*
X151507634Y-111323673D01*
X151463010Y-111222609D01*
X151463007Y-111222606D01*
X151463005Y-111222603D01*
X151384896Y-111144494D01*
X151384890Y-111144489D01*
X151328450Y-111119568D01*
X151283827Y-111099866D01*
X151259123Y-111097000D01*
X151259122Y-111097000D01*
X150900883Y-111097000D01*
X150900871Y-111097001D01*
X150876173Y-111099866D01*
X150775109Y-111144490D01*
X150775103Y-111144494D01*
X150696994Y-111222603D01*
X150696989Y-111222610D01*
X150650465Y-111327978D01*
X150613046Y-111366966D01*
X150559320Y-111372780D01*
X150514427Y-111342699D01*
X150500714Y-111311478D01*
X150492601Y-111270685D01*
X150492562Y-111270490D01*
X150454741Y-111213887D01*
X150441897Y-111161400D01*
X150454743Y-111126109D01*
X150472279Y-111099866D01*
X150492562Y-111069510D01*
X150505500Y-111004465D01*
X150505499Y-110835536D01*
X150492562Y-110770490D01*
X150454741Y-110713887D01*
X150441897Y-110661400D01*
X150454743Y-110626109D01*
X150492561Y-110569511D01*
X150492560Y-110569511D01*
X150492562Y-110569510D01*
X150505500Y-110504465D01*
X150505499Y-110335536D01*
X150492562Y-110270490D01*
X150454741Y-110213887D01*
X150441897Y-110161400D01*
X150454743Y-110126109D01*
X150492561Y-110069511D01*
X150492560Y-110069511D01*
X150492562Y-110069510D01*
X150505500Y-110004465D01*
X150505499Y-109835536D01*
X150492562Y-109770490D01*
X150492560Y-109770488D01*
X150492247Y-109769731D01*
X150492200Y-109768675D01*
X150491044Y-109762859D01*
X150491939Y-109762680D01*
X150489891Y-109715743D01*
X150522789Y-109672871D01*
X150565234Y-109660500D01*
X153954851Y-109660500D01*
X154005631Y-109678982D01*
G37*
%TD.AperFunction*%
%TA.AperFunction,Conductor*%
G36*
X145546865Y-117438982D02*
G01*
X145573885Y-117485782D01*
X145574437Y-117500358D01*
X145575000Y-117500358D01*
X145575000Y-117590000D01*
X146161000Y-117590000D01*
X146211780Y-117608482D01*
X146238800Y-117655282D01*
X146240000Y-117669000D01*
X146240000Y-117671000D01*
X146221518Y-117721780D01*
X146174718Y-117748800D01*
X146161000Y-117750000D01*
X145575001Y-117750000D01*
X145575001Y-117791439D01*
X145556519Y-117842219D01*
X145509719Y-117869239D01*
X145456501Y-117859855D01*
X145436297Y-117843174D01*
X145435469Y-117842219D01*
X145407744Y-117810222D01*
X145407743Y-117810221D01*
X145364104Y-117782176D01*
X145295366Y-117738001D01*
X145262642Y-117695001D01*
X145265213Y-117641023D01*
X145282218Y-117615682D01*
X145284889Y-117613010D01*
X145284891Y-117613010D01*
X145363010Y-117534891D01*
X145392726Y-117467589D01*
X145430145Y-117428602D01*
X145464995Y-117420500D01*
X145496085Y-117420500D01*
X145546865Y-117438982D01*
G37*
%TD.AperFunction*%
%TA.AperFunction,Conductor*%
G36*
X149870938Y-113223981D02*
G01*
X149876019Y-113228638D01*
X151822020Y-115174639D01*
X151844858Y-115223615D01*
X151830872Y-115275813D01*
X151786606Y-115306808D01*
X151766159Y-115309500D01*
X150860879Y-115309500D01*
X150851256Y-115313486D01*
X150821023Y-115319500D01*
X149423642Y-115319500D01*
X149372862Y-115301018D01*
X149345842Y-115254218D01*
X149355226Y-115201000D01*
X149363772Y-115188998D01*
X149363873Y-115188840D01*
X149363877Y-115188836D01*
X149424859Y-115055304D01*
X149445750Y-114910000D01*
X149424859Y-114764696D01*
X149363877Y-114631164D01*
X149267744Y-114520222D01*
X149144250Y-114440857D01*
X149003399Y-114399500D01*
X148856601Y-114399500D01*
X148826602Y-114408307D01*
X148772671Y-114404877D01*
X148748487Y-114388368D01*
X148741147Y-114381028D01*
X148700478Y-114340359D01*
X148677641Y-114291385D01*
X148691627Y-114239187D01*
X148735893Y-114208191D01*
X148756337Y-114205499D01*
X148804464Y-114205499D01*
X148869510Y-114192562D01*
X148926110Y-114154742D01*
X148978598Y-114141897D01*
X149013887Y-114154741D01*
X149070490Y-114192562D01*
X149135535Y-114205500D01*
X149304464Y-114205499D01*
X149369510Y-114192562D01*
X149443274Y-114143274D01*
X149492562Y-114069510D01*
X149505500Y-114004465D01*
X149505499Y-113284498D01*
X149523981Y-113233719D01*
X149570781Y-113206699D01*
X149584490Y-113205499D01*
X149820158Y-113205499D01*
X149870938Y-113223981D01*
G37*
%TD.AperFunction*%
%TA.AperFunction,Conductor*%
G36*
X142931780Y-109908482D02*
G01*
X142958800Y-109955282D01*
X142960000Y-109969000D01*
X142960000Y-110421000D01*
X142941518Y-110471780D01*
X142894973Y-110498652D01*
X142898800Y-110505281D01*
X142900000Y-110518999D01*
X142900000Y-110941000D01*
X142881518Y-110991780D01*
X142834718Y-111018800D01*
X142821000Y-111020000D01*
X142350001Y-111020000D01*
X142350001Y-111124798D01*
X142352910Y-111149873D01*
X142352911Y-111149877D01*
X142398211Y-111252475D01*
X142398217Y-111252483D01*
X142477516Y-111331782D01*
X142477524Y-111331788D01*
X142513014Y-111347458D01*
X142552003Y-111384877D01*
X142557817Y-111438602D01*
X142527737Y-111483496D01*
X142513017Y-111491994D01*
X142477240Y-111507792D01*
X142477235Y-111507794D01*
X142477229Y-111507798D01*
X142397798Y-111587229D01*
X142397794Y-111587235D01*
X142352415Y-111690009D01*
X142349500Y-111715133D01*
X142349500Y-111997659D01*
X142331018Y-112048439D01*
X142326361Y-112053520D01*
X139675361Y-114704520D01*
X139626385Y-114727358D01*
X139574187Y-114713372D01*
X139543192Y-114669106D01*
X139540500Y-114648659D01*
X139540500Y-112831058D01*
X139558982Y-112780278D01*
X139563628Y-112775208D01*
X142305143Y-110033693D01*
X142354115Y-110010857D01*
X142406313Y-110024843D01*
X142437308Y-110069109D01*
X142440000Y-110089555D01*
X142440000Y-110184785D01*
X142440001Y-110184798D01*
X142442910Y-110209873D01*
X142442911Y-110209877D01*
X142488211Y-110312475D01*
X142488217Y-110312483D01*
X142566920Y-110391186D01*
X142589758Y-110440162D01*
X142575772Y-110492360D01*
X142542969Y-110519316D01*
X142477522Y-110548213D01*
X142477516Y-110548217D01*
X142398217Y-110627516D01*
X142398213Y-110627522D01*
X142352910Y-110730124D01*
X142350000Y-110755205D01*
X142350000Y-110860000D01*
X142740000Y-110860000D01*
X142740000Y-110518999D01*
X142758482Y-110468219D01*
X142805026Y-110441346D01*
X142801200Y-110434718D01*
X142800000Y-110421000D01*
X142800000Y-109969000D01*
X142818482Y-109918220D01*
X142865282Y-109891200D01*
X142879000Y-109890000D01*
X142881000Y-109890000D01*
X142931780Y-109908482D01*
G37*
%TD.AperFunction*%
%TA.AperFunction,Conductor*%
G36*
X149013887Y-109279741D02*
G01*
X149070490Y-109317562D01*
X149135535Y-109330500D01*
X149230500Y-109330499D01*
X149281280Y-109348981D01*
X149308300Y-109395780D01*
X149309500Y-109409498D01*
X149309500Y-109504463D01*
X149322437Y-109569508D01*
X149322437Y-109569509D01*
X149322438Y-109569510D01*
X149360257Y-109626109D01*
X149373102Y-109678599D01*
X149360257Y-109713889D01*
X149322438Y-109770488D01*
X149309500Y-109835536D01*
X149309500Y-110004463D01*
X149322437Y-110069508D01*
X149322437Y-110069509D01*
X149322438Y-110069510D01*
X149360257Y-110126109D01*
X149373102Y-110178599D01*
X149360257Y-110213889D01*
X149322438Y-110270488D01*
X149321146Y-110276985D01*
X149312077Y-110322582D01*
X149309500Y-110335536D01*
X149309500Y-110504463D01*
X149322437Y-110569508D01*
X149322437Y-110569509D01*
X149322438Y-110569510D01*
X149360257Y-110626109D01*
X149373102Y-110678599D01*
X149360257Y-110713889D01*
X149322438Y-110770488D01*
X149309500Y-110835536D01*
X149309500Y-111004463D01*
X149322437Y-111069508D01*
X149322437Y-111069509D01*
X149322438Y-111069510D01*
X149360257Y-111126109D01*
X149373102Y-111178599D01*
X149360257Y-111213889D01*
X149322438Y-111270488D01*
X149322399Y-111270684D01*
X149311860Y-111323673D01*
X149309500Y-111335536D01*
X149309500Y-111504463D01*
X149322437Y-111569508D01*
X149322437Y-111569509D01*
X149322438Y-111569510D01*
X149360257Y-111626110D01*
X149373102Y-111678599D01*
X149360257Y-111713889D01*
X149322438Y-111770488D01*
X149309500Y-111835536D01*
X149309500Y-112004463D01*
X149322437Y-112069508D01*
X149322437Y-112069509D01*
X149322438Y-112069510D01*
X149360257Y-112126109D01*
X149373102Y-112178599D01*
X149360257Y-112213889D01*
X149322438Y-112270488D01*
X149313812Y-112313853D01*
X149311860Y-112323673D01*
X149309500Y-112335536D01*
X149309500Y-112504463D01*
X149322437Y-112569508D01*
X149322437Y-112569509D01*
X149322438Y-112569510D01*
X149360257Y-112626109D01*
X149373102Y-112678599D01*
X149360257Y-112713889D01*
X149322438Y-112770488D01*
X149309500Y-112835536D01*
X149309500Y-112930500D01*
X149291018Y-112981280D01*
X149244218Y-113008300D01*
X149230501Y-113009500D01*
X149135536Y-113009500D01*
X149070489Y-113022438D01*
X149013890Y-113060257D01*
X148961399Y-113073101D01*
X148926110Y-113060257D01*
X148869510Y-113022438D01*
X148804465Y-113009500D01*
X148804463Y-113009500D01*
X148635536Y-113009500D01*
X148570489Y-113022438D01*
X148513890Y-113060257D01*
X148461399Y-113073101D01*
X148426110Y-113060257D01*
X148369510Y-113022438D01*
X148304465Y-113009500D01*
X148304463Y-113009500D01*
X148135536Y-113009500D01*
X148070489Y-113022438D01*
X148013890Y-113060257D01*
X147961399Y-113073101D01*
X147926110Y-113060257D01*
X147869510Y-113022438D01*
X147804465Y-113009500D01*
X147804463Y-113009500D01*
X147635536Y-113009500D01*
X147570489Y-113022438D01*
X147513890Y-113060257D01*
X147461399Y-113073101D01*
X147426110Y-113060257D01*
X147369510Y-113022438D01*
X147304465Y-113009500D01*
X147304463Y-113009500D01*
X147135536Y-113009500D01*
X147070489Y-113022438D01*
X147013890Y-113060257D01*
X146961399Y-113073101D01*
X146926110Y-113060257D01*
X146869510Y-113022438D01*
X146804465Y-113009500D01*
X146804463Y-113009500D01*
X146635536Y-113009500D01*
X146570489Y-113022438D01*
X146513890Y-113060257D01*
X146461399Y-113073101D01*
X146426110Y-113060257D01*
X146369510Y-113022438D01*
X146304465Y-113009500D01*
X146304463Y-113009500D01*
X146135536Y-113009500D01*
X146070489Y-113022438D01*
X146013890Y-113060257D01*
X145961399Y-113073101D01*
X145926110Y-113060257D01*
X145869510Y-113022438D01*
X145804465Y-113009500D01*
X145804464Y-113009500D01*
X145709499Y-113009500D01*
X145658719Y-112991018D01*
X145631699Y-112944218D01*
X145630499Y-112930506D01*
X145630499Y-112835536D01*
X145629608Y-112831058D01*
X145617562Y-112770491D01*
X145617562Y-112770490D01*
X145579741Y-112713887D01*
X145566897Y-112661400D01*
X145579743Y-112626109D01*
X145603537Y-112590500D01*
X145617562Y-112569510D01*
X145630500Y-112504465D01*
X145630499Y-112335536D01*
X145617562Y-112270490D01*
X145579741Y-112213887D01*
X145566897Y-112161400D01*
X145579743Y-112126109D01*
X145590408Y-112110149D01*
X145617562Y-112069510D01*
X145630500Y-112004465D01*
X145630499Y-111835536D01*
X145617562Y-111770490D01*
X145580575Y-111715135D01*
X145579442Y-111713439D01*
X145566598Y-111660948D01*
X145579442Y-111625659D01*
X145617090Y-111569314D01*
X145630000Y-111504413D01*
X145630000Y-111500000D01*
X144435000Y-111500000D01*
X144435000Y-111504413D01*
X144447909Y-111569315D01*
X144448305Y-111570269D01*
X144448362Y-111571591D01*
X144449428Y-111576947D01*
X144448603Y-111577110D01*
X144450661Y-111624257D01*
X144417764Y-111667128D01*
X144375318Y-111679500D01*
X144314087Y-111679500D01*
X144263307Y-111661018D01*
X144247961Y-111640589D01*
X144247146Y-111641148D01*
X144243011Y-111635112D01*
X144243010Y-111635109D01*
X144243007Y-111635106D01*
X144243005Y-111635103D01*
X144164896Y-111556994D01*
X144164890Y-111556989D01*
X144108450Y-111532068D01*
X144063827Y-111512366D01*
X144039123Y-111509500D01*
X144039122Y-111509500D01*
X143580883Y-111509500D01*
X143580871Y-111509501D01*
X143556173Y-111512366D01*
X143455109Y-111556990D01*
X143455106Y-111556992D01*
X143379701Y-111632397D01*
X143330725Y-111655234D01*
X143278527Y-111641248D01*
X143251572Y-111608445D01*
X143242209Y-111587240D01*
X143242206Y-111587237D01*
X143242206Y-111587235D01*
X143242203Y-111587232D01*
X143242201Y-111587229D01*
X143162770Y-111507798D01*
X143162767Y-111507796D01*
X143162765Y-111507794D01*
X143162762Y-111507792D01*
X143162761Y-111507792D01*
X143126983Y-111491994D01*
X143087996Y-111454575D01*
X143082182Y-111400849D01*
X143112263Y-111355956D01*
X143126987Y-111347456D01*
X143162476Y-111331787D01*
X143162483Y-111331782D01*
X143241782Y-111252483D01*
X143241788Y-111252475D01*
X143245065Y-111245053D01*
X143282482Y-111206063D01*
X143336207Y-111200246D01*
X143373196Y-111221098D01*
X143455103Y-111303005D01*
X143455108Y-111303009D01*
X143455109Y-111303010D01*
X143556173Y-111347634D01*
X143580877Y-111350500D01*
X144039122Y-111350499D01*
X144063827Y-111347634D01*
X144164891Y-111303010D01*
X144243010Y-111224891D01*
X144243013Y-111224885D01*
X144250650Y-111207590D01*
X144288069Y-111168602D01*
X144322918Y-111160500D01*
X144375318Y-111160500D01*
X144426098Y-111178982D01*
X144453118Y-111225782D01*
X144449044Y-111262976D01*
X144449428Y-111263053D01*
X144448556Y-111267433D01*
X144448305Y-111269731D01*
X144447909Y-111270684D01*
X144435000Y-111335586D01*
X144435000Y-111340000D01*
X145630000Y-111340000D01*
X145630000Y-111335586D01*
X145617090Y-111270685D01*
X145579441Y-111214338D01*
X145566598Y-111161847D01*
X145579443Y-111126558D01*
X145597279Y-111099866D01*
X145617562Y-111069510D01*
X145630500Y-111004465D01*
X145630499Y-110835536D01*
X145617562Y-110770490D01*
X145579741Y-110713887D01*
X145566897Y-110661400D01*
X145579743Y-110626109D01*
X145617561Y-110569511D01*
X145617560Y-110569511D01*
X145617562Y-110569510D01*
X145630500Y-110504465D01*
X145630499Y-110335536D01*
X145617562Y-110270490D01*
X145579741Y-110213887D01*
X145566897Y-110161400D01*
X145579743Y-110126109D01*
X145617561Y-110069511D01*
X145617560Y-110069511D01*
X145617562Y-110069510D01*
X145630500Y-110004465D01*
X145630499Y-109835536D01*
X145617562Y-109770490D01*
X145579741Y-109713887D01*
X145566897Y-109661400D01*
X145579743Y-109626109D01*
X145582307Y-109622273D01*
X145617562Y-109569510D01*
X145630500Y-109504465D01*
X145630499Y-109409498D01*
X145648981Y-109358719D01*
X145695780Y-109331699D01*
X145709492Y-109330499D01*
X145804464Y-109330499D01*
X145869510Y-109317562D01*
X145926110Y-109279742D01*
X145978598Y-109266897D01*
X146013887Y-109279741D01*
X146070490Y-109317562D01*
X146135535Y-109330500D01*
X146304464Y-109330499D01*
X146369510Y-109317562D01*
X146426110Y-109279742D01*
X146478598Y-109266897D01*
X146513887Y-109279741D01*
X146570490Y-109317562D01*
X146635535Y-109330500D01*
X146804464Y-109330499D01*
X146869510Y-109317562D01*
X146926110Y-109279742D01*
X146978598Y-109266897D01*
X147013887Y-109279741D01*
X147070490Y-109317562D01*
X147135535Y-109330500D01*
X147304464Y-109330499D01*
X147369510Y-109317562D01*
X147426110Y-109279742D01*
X147478598Y-109266897D01*
X147513887Y-109279741D01*
X147570490Y-109317562D01*
X147635535Y-109330500D01*
X147804464Y-109330499D01*
X147869510Y-109317562D01*
X147926110Y-109279742D01*
X147978598Y-109266897D01*
X148013887Y-109279741D01*
X148070490Y-109317562D01*
X148135535Y-109330500D01*
X148304464Y-109330499D01*
X148369510Y-109317562D01*
X148426110Y-109279742D01*
X148478598Y-109266897D01*
X148513887Y-109279741D01*
X148570490Y-109317562D01*
X148635535Y-109330500D01*
X148804464Y-109330499D01*
X148869510Y-109317562D01*
X148926110Y-109279742D01*
X148978598Y-109266897D01*
X149013887Y-109279741D01*
G37*
%TD.AperFunction*%
%TA.AperFunction,Conductor*%
G36*
X156281780Y-110518482D02*
G01*
X156308800Y-110565282D01*
X156310000Y-110579000D01*
X156310000Y-111489999D01*
X156700500Y-111489999D01*
X156751280Y-111508481D01*
X156778300Y-111555281D01*
X156779500Y-111568999D01*
X156779500Y-112590500D01*
X156761018Y-112641280D01*
X156714218Y-112668300D01*
X156700500Y-112669500D01*
X155972341Y-112669500D01*
X155921561Y-112651018D01*
X155916490Y-112646371D01*
X155643733Y-112373614D01*
X155555339Y-112337000D01*
X155555338Y-112337000D01*
X155555337Y-112337000D01*
X152584995Y-112337000D01*
X152534215Y-112318518D01*
X152512726Y-112289910D01*
X152504150Y-112270488D01*
X152483010Y-112222609D01*
X152483005Y-112222603D01*
X152404897Y-112144495D01*
X152404893Y-112144492D01*
X152404891Y-112144490D01*
X152404887Y-112144488D01*
X152402244Y-112142678D01*
X152400139Y-112139737D01*
X152399715Y-112139313D01*
X152399785Y-112139242D01*
X152370793Y-112098734D01*
X152374947Y-112044854D01*
X152402244Y-112012322D01*
X152404883Y-112010513D01*
X152404891Y-112010510D01*
X152483010Y-111932391D01*
X152512726Y-111865089D01*
X152550145Y-111826102D01*
X152584995Y-111818000D01*
X153780337Y-111818000D01*
X153780339Y-111818000D01*
X153868733Y-111781386D01*
X154136479Y-111513638D01*
X154185456Y-111490801D01*
X154192341Y-111490500D01*
X155295806Y-111490500D01*
X155342624Y-111481187D01*
X155395714Y-111445714D01*
X155395956Y-111445353D01*
X155414613Y-111417429D01*
X155458192Y-111385474D01*
X155512115Y-111389007D01*
X155545986Y-111417427D01*
X155564646Y-111445353D01*
X155617571Y-111480717D01*
X155664239Y-111489999D01*
X156150000Y-111489999D01*
X156150000Y-110579000D01*
X156168482Y-110528220D01*
X156215282Y-110501200D01*
X156229000Y-110500000D01*
X156231000Y-110500000D01*
X156281780Y-110518482D01*
G37*
%TD.AperFunction*%
%TA.AperFunction,Conductor*%
G36*
X146151280Y-98918982D02*
G01*
X146178300Y-98965782D01*
X146179500Y-98979500D01*
X146179500Y-99755806D01*
X146181163Y-99764167D01*
X146188812Y-99802623D01*
X146188813Y-99802624D01*
X146207437Y-99830498D01*
X146224287Y-99855715D01*
X146226361Y-99857789D01*
X146227950Y-99861197D01*
X146228609Y-99862183D01*
X146228457Y-99862284D01*
X146249199Y-99906765D01*
X146249500Y-99913650D01*
X146249500Y-102732161D01*
X146249500Y-102827839D01*
X146273909Y-102886768D01*
X146286114Y-102916234D01*
X146286116Y-102916235D01*
X146956361Y-103586480D01*
X146979199Y-103635456D01*
X146979500Y-103642341D01*
X146979500Y-107824126D01*
X146961018Y-107874906D01*
X146914218Y-107901926D01*
X146861000Y-107892542D01*
X146844639Y-107879987D01*
X145600766Y-106636114D01*
X145576527Y-106626074D01*
X145531874Y-106607578D01*
X145492034Y-106571072D01*
X145484981Y-106517495D01*
X145502401Y-106482861D01*
X145583877Y-106388836D01*
X145644859Y-106255304D01*
X145665750Y-106110000D01*
X145644859Y-105964696D01*
X145583877Y-105831164D01*
X145487744Y-105720222D01*
X145440766Y-105690031D01*
X145408041Y-105647030D01*
X145410612Y-105593052D01*
X145440765Y-105557116D01*
X145467744Y-105539778D01*
X145563877Y-105428836D01*
X145624859Y-105295304D01*
X145645750Y-105150000D01*
X145624859Y-105004696D01*
X145563877Y-104871164D01*
X145467744Y-104760222D01*
X145344250Y-104680857D01*
X145203399Y-104639500D01*
X145100774Y-104639500D01*
X145049994Y-104621018D01*
X145022974Y-104574218D01*
X145021774Y-104560500D01*
X145021774Y-99431067D01*
X145040256Y-99380287D01*
X145044913Y-99375206D01*
X145496480Y-98923639D01*
X145545456Y-98900801D01*
X145552341Y-98900500D01*
X146100500Y-98900500D01*
X146151280Y-98918982D01*
G37*
%TD.AperFunction*%
%TA.AperFunction,Conductor*%
G36*
X155058497Y-99499263D02*
G01*
X155065409Y-99505410D01*
X155069999Y-99510000D01*
X155541000Y-99510000D01*
X155591780Y-99528482D01*
X155618800Y-99575282D01*
X155620000Y-99589000D01*
X155620000Y-100029999D01*
X155745088Y-100029999D01*
X155795868Y-100048481D01*
X155822888Y-100095281D01*
X155813504Y-100148499D01*
X155800949Y-100164860D01*
X148585361Y-107380448D01*
X148536385Y-107403286D01*
X148484187Y-107389300D01*
X148453192Y-107345034D01*
X148450500Y-107324587D01*
X148450500Y-103542163D01*
X148450500Y-103542162D01*
X148413886Y-103453768D01*
X148346232Y-103386114D01*
X147753639Y-102793520D01*
X147730801Y-102744544D01*
X147730500Y-102737659D01*
X147730500Y-101624798D01*
X149170001Y-101624798D01*
X149172910Y-101649873D01*
X149172911Y-101649877D01*
X149218211Y-101752475D01*
X149218217Y-101752483D01*
X149297516Y-101831782D01*
X149297522Y-101831786D01*
X149400125Y-101877089D01*
X149400124Y-101877089D01*
X149425207Y-101879999D01*
X149560000Y-101879999D01*
X149560000Y-101520000D01*
X149170001Y-101520000D01*
X149170001Y-101624798D01*
X147730500Y-101624798D01*
X147730500Y-99978124D01*
X147748982Y-99927344D01*
X147795782Y-99900324D01*
X147820286Y-99900594D01*
X147820333Y-99900120D01*
X147824190Y-99900500D01*
X147824194Y-99900500D01*
X148155806Y-99900500D01*
X148202624Y-99891187D01*
X148202628Y-99891183D01*
X148209766Y-99888228D01*
X148263754Y-99885870D01*
X148270234Y-99888228D01*
X148277372Y-99891184D01*
X148277376Y-99891187D01*
X148324194Y-99900500D01*
X148655806Y-99900500D01*
X148687452Y-99894205D01*
X148740862Y-99902425D01*
X148775850Y-99941454D01*
X148786114Y-99966233D01*
X148968380Y-100148499D01*
X149146361Y-100326479D01*
X149169199Y-100375456D01*
X149169500Y-100382341D01*
X149169500Y-100664858D01*
X149169501Y-100664870D01*
X149170528Y-100673723D01*
X149172415Y-100689991D01*
X149217794Y-100792765D01*
X149217796Y-100792767D01*
X149217798Y-100792770D01*
X149297229Y-100872201D01*
X149297232Y-100872203D01*
X149297235Y-100872206D01*
X149333015Y-100888004D01*
X149372003Y-100925423D01*
X149377817Y-100979149D01*
X149347737Y-101024042D01*
X149333014Y-101032542D01*
X149297524Y-101048211D01*
X149297516Y-101048217D01*
X149218217Y-101127516D01*
X149218213Y-101127522D01*
X149172910Y-101230124D01*
X149170000Y-101255205D01*
X149170000Y-101360000D01*
X149641000Y-101360000D01*
X149691780Y-101378482D01*
X149718800Y-101425282D01*
X149720000Y-101439000D01*
X149720000Y-101879999D01*
X149854786Y-101879999D01*
X149854798Y-101879998D01*
X149879873Y-101877089D01*
X149879877Y-101877088D01*
X149982475Y-101831788D01*
X149982479Y-101831785D01*
X150049612Y-101764652D01*
X150098588Y-101741814D01*
X150150786Y-101755800D01*
X150177335Y-101787696D01*
X150196121Y-101828834D01*
X150196122Y-101828835D01*
X150240457Y-101879999D01*
X150292256Y-101939778D01*
X150415750Y-102019143D01*
X150556601Y-102060500D01*
X150703398Y-102060500D01*
X150703399Y-102060500D01*
X150844250Y-102019143D01*
X150967744Y-101939778D01*
X151063877Y-101828836D01*
X151124859Y-101695304D01*
X151145750Y-101550000D01*
X151124859Y-101404696D01*
X151063877Y-101271164D01*
X150967744Y-101160222D01*
X150906788Y-101121047D01*
X150874062Y-101078045D01*
X150870500Y-101054589D01*
X150870500Y-100675663D01*
X150872435Y-100675663D01*
X150874877Y-100659787D01*
X150848014Y-100629157D01*
X150846014Y-100624329D01*
X150843018Y-100609268D01*
X150996234Y-100609268D01*
X150997409Y-100609999D01*
X151134786Y-100609999D01*
X151134798Y-100609998D01*
X151159873Y-100607089D01*
X151159877Y-100607088D01*
X151262475Y-100561788D01*
X151262483Y-100561782D01*
X151341782Y-100482483D01*
X151341786Y-100482477D01*
X151387089Y-100379875D01*
X151389999Y-100354794D01*
X151390000Y-100354791D01*
X151390000Y-100250000D01*
X151000000Y-100250000D01*
X151000000Y-100598923D01*
X150996234Y-100609268D01*
X150843018Y-100609268D01*
X150840000Y-100594095D01*
X150840000Y-100169000D01*
X150858482Y-100118220D01*
X150905282Y-100091200D01*
X150919000Y-100090000D01*
X151389999Y-100090000D01*
X151389999Y-100030840D01*
X151408481Y-99980060D01*
X151455281Y-99953040D01*
X151508499Y-99962424D01*
X151524860Y-99974979D01*
X151831968Y-100282087D01*
X151831969Y-100282087D01*
X151831970Y-100282088D01*
X151920364Y-100318702D01*
X151920366Y-100318702D01*
X153212135Y-100318702D01*
X153212137Y-100318702D01*
X153300531Y-100282088D01*
X153805448Y-99777168D01*
X153854425Y-99754331D01*
X153896007Y-99762057D01*
X154014037Y-99819759D01*
X154014038Y-99819759D01*
X154014040Y-99819760D01*
X154087757Y-99830500D01*
X154597242Y-99830499D01*
X154670960Y-99819760D01*
X154762931Y-99774798D01*
X155070001Y-99774798D01*
X155072910Y-99799873D01*
X155072911Y-99799877D01*
X155118211Y-99902475D01*
X155118217Y-99902483D01*
X155197516Y-99981782D01*
X155197522Y-99981786D01*
X155300125Y-100027089D01*
X155300124Y-100027089D01*
X155325207Y-100029999D01*
X155460000Y-100029999D01*
X155460000Y-99670000D01*
X155070001Y-99670000D01*
X155070001Y-99774798D01*
X154762931Y-99774798D01*
X154784671Y-99764170D01*
X154874170Y-99674671D01*
X154929760Y-99560960D01*
X154931373Y-99549882D01*
X154956982Y-99502298D01*
X155007187Y-99482306D01*
X155058497Y-99499263D01*
G37*
%TD.AperFunction*%
%TA.AperFunction,Conductor*%
G36*
X152891780Y-97558482D02*
G01*
X152918800Y-97605282D01*
X152920000Y-97619000D01*
X152920000Y-98079999D01*
X153105756Y-98079999D01*
X153152427Y-98070717D01*
X153195659Y-98041830D01*
X153248150Y-98028985D01*
X153283438Y-98041829D01*
X153327376Y-98071187D01*
X153374194Y-98080500D01*
X153546327Y-98080500D01*
X153597107Y-98098982D01*
X153624127Y-98145782D01*
X153614743Y-98199000D01*
X153602189Y-98215359D01*
X153565982Y-98251567D01*
X153461114Y-98356434D01*
X153461114Y-98356435D01*
X153436520Y-98415813D01*
X153433049Y-98424192D01*
X153433048Y-98424194D01*
X153424500Y-98444829D01*
X153424500Y-98600500D01*
X153406018Y-98651280D01*
X153359218Y-98678300D01*
X153345500Y-98679500D01*
X152887720Y-98679500D01*
X152836940Y-98661018D01*
X152809920Y-98614218D01*
X152809545Y-98611889D01*
X152807886Y-98600500D01*
X152804760Y-98579040D01*
X152803576Y-98576619D01*
X152749171Y-98465331D01*
X152749167Y-98465325D01*
X152659674Y-98375832D01*
X152659670Y-98375829D01*
X152545962Y-98320240D01*
X152472243Y-98309500D01*
X151982341Y-98309500D01*
X151931561Y-98291018D01*
X151926480Y-98286361D01*
X151864979Y-98224860D01*
X151842141Y-98175884D01*
X151856127Y-98123686D01*
X151900393Y-98092691D01*
X151920840Y-98089999D01*
X152034786Y-98089999D01*
X152034798Y-98089998D01*
X152059873Y-98087089D01*
X152059877Y-98087088D01*
X152162475Y-98041788D01*
X152162483Y-98041782D01*
X152241782Y-97962483D01*
X152241787Y-97962475D01*
X152278731Y-97878804D01*
X152316149Y-97839816D01*
X152369874Y-97834001D01*
X152414768Y-97864080D01*
X152430000Y-97910710D01*
X152430000Y-97935755D01*
X152439282Y-97982427D01*
X152439283Y-97982429D01*
X152474646Y-98035353D01*
X152527571Y-98070717D01*
X152574239Y-98079999D01*
X152760000Y-98079999D01*
X152760000Y-97619000D01*
X152778482Y-97568220D01*
X152825282Y-97541200D01*
X152839000Y-97540000D01*
X152841000Y-97540000D01*
X152891780Y-97558482D01*
G37*
%TD.AperFunction*%
%TA.AperFunction,Conductor*%
G36*
X154317939Y-95358482D02*
G01*
X154323020Y-95363139D01*
X154325020Y-95365139D01*
X154340965Y-95399333D01*
X154358500Y-95402425D01*
X154374861Y-95414980D01*
X155276361Y-96316480D01*
X155299199Y-96365456D01*
X155299500Y-96372341D01*
X155299500Y-98141162D01*
X155281018Y-98191942D01*
X155252411Y-98213430D01*
X155197231Y-98237795D01*
X155196753Y-98238123D01*
X155196122Y-98238284D01*
X155190540Y-98240750D01*
X155190131Y-98239823D01*
X155144412Y-98251567D01*
X155096254Y-98228804D01*
X155037072Y-98169622D01*
X155014234Y-98120646D01*
X155028220Y-98068448D01*
X155037072Y-98057900D01*
X155072201Y-98022770D01*
X155072206Y-98022765D01*
X155117585Y-97919991D01*
X155120500Y-97894865D01*
X155120499Y-97525136D01*
X155117585Y-97500009D01*
X155072206Y-97397235D01*
X155072203Y-97397232D01*
X155072201Y-97397229D01*
X154992770Y-97317798D01*
X154992767Y-97317796D01*
X154992765Y-97317794D01*
X154992762Y-97317792D01*
X154992761Y-97317792D01*
X154956983Y-97301994D01*
X154917996Y-97264575D01*
X154912182Y-97210849D01*
X154942263Y-97165956D01*
X154956987Y-97157456D01*
X154992476Y-97141787D01*
X154992483Y-97141782D01*
X155071782Y-97062483D01*
X155071786Y-97062477D01*
X155117089Y-96959875D01*
X155119999Y-96934794D01*
X155120000Y-96934791D01*
X155120000Y-96830000D01*
X154649000Y-96830000D01*
X154598220Y-96811518D01*
X154571200Y-96764718D01*
X154570000Y-96751000D01*
X154570000Y-96670000D01*
X154730000Y-96670000D01*
X155119999Y-96670000D01*
X155119999Y-96565213D01*
X155119998Y-96565201D01*
X155117089Y-96540126D01*
X155117088Y-96540122D01*
X155071788Y-96437524D01*
X155071782Y-96437516D01*
X154992483Y-96358217D01*
X154992477Y-96358213D01*
X154889874Y-96312910D01*
X154889875Y-96312910D01*
X154864794Y-96310000D01*
X154730000Y-96310000D01*
X154730000Y-96670000D01*
X154570000Y-96670000D01*
X154570000Y-96310000D01*
X154435213Y-96310000D01*
X154435201Y-96310001D01*
X154410126Y-96312910D01*
X154410122Y-96312911D01*
X154307524Y-96358211D01*
X154307516Y-96358217D01*
X154228217Y-96437516D01*
X154228213Y-96437522D01*
X154201268Y-96498548D01*
X154196950Y-96503046D01*
X154196457Y-96509442D01*
X154182910Y-96540122D01*
X154182908Y-96540130D01*
X154181693Y-96550605D01*
X154157480Y-96598916D01*
X154107877Y-96620360D01*
X154056096Y-96604903D01*
X154050418Y-96600000D01*
X153639000Y-96600000D01*
X153588220Y-96581518D01*
X153561200Y-96534718D01*
X153560000Y-96521000D01*
X153560000Y-96440000D01*
X153720000Y-96440000D01*
X154049998Y-96440000D01*
X154049999Y-96439999D01*
X154049999Y-96204243D01*
X154040717Y-96157572D01*
X154040716Y-96157570D01*
X154005353Y-96104646D01*
X153952428Y-96069282D01*
X153905761Y-96060000D01*
X153720000Y-96060000D01*
X153720000Y-96440000D01*
X153560000Y-96440000D01*
X153560000Y-96060000D01*
X153374243Y-96060000D01*
X153327571Y-96069283D01*
X153327568Y-96069284D01*
X153284337Y-96098169D01*
X153231847Y-96111012D01*
X153196560Y-96098169D01*
X153169367Y-96080000D01*
X153152624Y-96068813D01*
X153144155Y-96067128D01*
X153134085Y-96065125D01*
X153087888Y-96037089D01*
X153070500Y-95987643D01*
X153070500Y-95930005D01*
X153088982Y-95879225D01*
X153117589Y-95857737D01*
X153152765Y-95842206D01*
X153232206Y-95762765D01*
X153248004Y-95726984D01*
X153285423Y-95687997D01*
X153339148Y-95682182D01*
X153384042Y-95712262D01*
X153392542Y-95726985D01*
X153408212Y-95762475D01*
X153408217Y-95762483D01*
X153487516Y-95841782D01*
X153487522Y-95841786D01*
X153590125Y-95887089D01*
X153590124Y-95887089D01*
X153615207Y-95889999D01*
X153720000Y-95889999D01*
X153880000Y-95889999D01*
X153984786Y-95889999D01*
X153984798Y-95889998D01*
X154009873Y-95887089D01*
X154009877Y-95887088D01*
X154112475Y-95841788D01*
X154112483Y-95841782D01*
X154191782Y-95762483D01*
X154191786Y-95762477D01*
X154237089Y-95659875D01*
X154239999Y-95634794D01*
X154240000Y-95634791D01*
X154240000Y-95500000D01*
X153880000Y-95500000D01*
X153880000Y-95889999D01*
X153720000Y-95889999D01*
X153720000Y-95419000D01*
X153738482Y-95368220D01*
X153785282Y-95341200D01*
X153799000Y-95340000D01*
X154267159Y-95340000D01*
X154317939Y-95358482D01*
G37*
%TD.AperFunction*%
%TA.AperFunction,Conductor*%
G36*
X152365812Y-95524410D02*
G01*
X152396808Y-95568676D01*
X152399500Y-95589121D01*
X152399500Y-95634857D01*
X152399501Y-95634870D01*
X152401461Y-95651769D01*
X152402415Y-95659991D01*
X152447794Y-95762765D01*
X152447796Y-95762767D01*
X152447798Y-95762770D01*
X152527229Y-95842201D01*
X152527232Y-95842203D01*
X152527235Y-95842206D01*
X152542408Y-95848905D01*
X152581396Y-95886321D01*
X152589500Y-95921174D01*
X152589500Y-95991622D01*
X152571018Y-96042402D01*
X152533948Y-96064346D01*
X152534565Y-96065835D01*
X152527377Y-96068812D01*
X152474285Y-96104285D01*
X152438812Y-96157376D01*
X152429498Y-96204203D01*
X152429255Y-96206669D01*
X152428832Y-96207549D01*
X152428743Y-96208000D01*
X152428627Y-96207977D01*
X152405877Y-96255390D01*
X152356652Y-96277685D01*
X152304612Y-96263122D01*
X152294776Y-96254775D01*
X152280001Y-96240000D01*
X151839000Y-96240000D01*
X151788220Y-96221518D01*
X151761200Y-96174718D01*
X151760000Y-96161000D01*
X151760000Y-96159000D01*
X151778482Y-96108220D01*
X151825282Y-96081200D01*
X151839000Y-96080000D01*
X152279999Y-96080000D01*
X152279999Y-95945213D01*
X152279998Y-95945201D01*
X152277089Y-95920126D01*
X152277088Y-95920122D01*
X152231788Y-95817524D01*
X152231782Y-95817516D01*
X152153226Y-95738960D01*
X152130388Y-95689984D01*
X152144374Y-95637786D01*
X152177176Y-95610831D01*
X152194891Y-95603010D01*
X152264639Y-95533261D01*
X152313614Y-95510424D01*
X152365812Y-95524410D01*
G37*
%TD.AperFunction*%
%TA.AperFunction,Conductor*%
G36*
X151408439Y-92448982D02*
G01*
X151413520Y-92453639D01*
X153775020Y-94815139D01*
X153797858Y-94864115D01*
X153783872Y-94916313D01*
X153739606Y-94947308D01*
X153719160Y-94950000D01*
X153615214Y-94950000D01*
X153615201Y-94950001D01*
X153590126Y-94952910D01*
X153590122Y-94952911D01*
X153487524Y-94998211D01*
X153487516Y-94998217D01*
X153408217Y-95077516D01*
X153408211Y-95077525D01*
X153392540Y-95113016D01*
X153355121Y-95152003D01*
X153301395Y-95157817D01*
X153256502Y-95127736D01*
X153248003Y-95113013D01*
X153232208Y-95077238D01*
X153232201Y-95077229D01*
X153152770Y-94997798D01*
X153152767Y-94997796D01*
X153152765Y-94997794D01*
X153049991Y-94952415D01*
X153024865Y-94949500D01*
X153024864Y-94949500D01*
X152655141Y-94949500D01*
X152655129Y-94949501D01*
X152633149Y-94952050D01*
X152630009Y-94952415D01*
X152527235Y-94997794D01*
X152527232Y-94997796D01*
X152455360Y-95069668D01*
X152406384Y-95092505D01*
X152354186Y-95078519D01*
X152323191Y-95034252D01*
X152320499Y-95013806D01*
X152320499Y-94940883D01*
X152320498Y-94940871D01*
X152320498Y-94940870D01*
X152317634Y-94916173D01*
X152273010Y-94815109D01*
X152273007Y-94815106D01*
X152273005Y-94815103D01*
X152194893Y-94736991D01*
X152194889Y-94736988D01*
X152167488Y-94724889D01*
X152128501Y-94687469D01*
X152122688Y-94633744D01*
X152152769Y-94588851D01*
X152156677Y-94586169D01*
X152197744Y-94559778D01*
X152293877Y-94448836D01*
X152354859Y-94315304D01*
X152375750Y-94170000D01*
X152354859Y-94024696D01*
X152293877Y-93891164D01*
X152197744Y-93780222D01*
X152074250Y-93700857D01*
X151933399Y-93659500D01*
X151786601Y-93659500D01*
X151645750Y-93700857D01*
X151645749Y-93700857D01*
X151522256Y-93780221D01*
X151429561Y-93887196D01*
X151382338Y-93913469D01*
X151329276Y-93903241D01*
X151297589Y-93867372D01*
X151262206Y-93787235D01*
X151262202Y-93787231D01*
X151262201Y-93787229D01*
X151182770Y-93707798D01*
X151182766Y-93707795D01*
X151182765Y-93707794D01*
X151182762Y-93707792D01*
X151182761Y-93707792D01*
X151146983Y-93691994D01*
X151107996Y-93654575D01*
X151102182Y-93600849D01*
X151132263Y-93555956D01*
X151146987Y-93547456D01*
X151182476Y-93531787D01*
X151182483Y-93531782D01*
X151261782Y-93452483D01*
X151261786Y-93452477D01*
X151307089Y-93349875D01*
X151309999Y-93324794D01*
X151310000Y-93324791D01*
X151310000Y-93220000D01*
X147929000Y-93220000D01*
X147878220Y-93201518D01*
X147851200Y-93154718D01*
X147850000Y-93141000D01*
X147850000Y-93139000D01*
X147868482Y-93088220D01*
X147915282Y-93061200D01*
X147929000Y-93060000D01*
X148820000Y-93060000D01*
X148980000Y-93060000D01*
X149790000Y-93060000D01*
X149950000Y-93060000D01*
X150760000Y-93060000D01*
X150920000Y-93060000D01*
X151309999Y-93060000D01*
X151309999Y-92955213D01*
X151309998Y-92955201D01*
X151307089Y-92930126D01*
X151307088Y-92930122D01*
X151261788Y-92827524D01*
X151261782Y-92827516D01*
X151182483Y-92748217D01*
X151182477Y-92748213D01*
X151079874Y-92702910D01*
X151079875Y-92702910D01*
X151054794Y-92700000D01*
X150920000Y-92700000D01*
X150920000Y-93060000D01*
X150760000Y-93060000D01*
X150760000Y-92700000D01*
X150625213Y-92700000D01*
X150625201Y-92700001D01*
X150600126Y-92702910D01*
X150600122Y-92702911D01*
X150497524Y-92748211D01*
X150497516Y-92748217D01*
X150413036Y-92832698D01*
X150411327Y-92830989D01*
X150376228Y-92856107D01*
X150322349Y-92851949D01*
X150298078Y-92831583D01*
X150296964Y-92832698D01*
X150212483Y-92748217D01*
X150212477Y-92748213D01*
X150109874Y-92702910D01*
X150109875Y-92702910D01*
X150084794Y-92700000D01*
X149950000Y-92700000D01*
X149950000Y-93060000D01*
X149790000Y-93060000D01*
X149790000Y-92700000D01*
X149655213Y-92700000D01*
X149655201Y-92700001D01*
X149630126Y-92702910D01*
X149630122Y-92702911D01*
X149527524Y-92748211D01*
X149527516Y-92748217D01*
X149443036Y-92832698D01*
X149441327Y-92830989D01*
X149406228Y-92856107D01*
X149352349Y-92851949D01*
X149328078Y-92831583D01*
X149326964Y-92832698D01*
X149242483Y-92748217D01*
X149242477Y-92748213D01*
X149139874Y-92702910D01*
X149139875Y-92702910D01*
X149114794Y-92700000D01*
X148980000Y-92700000D01*
X148980000Y-93060000D01*
X148820000Y-93060000D01*
X148820000Y-92700000D01*
X148685213Y-92700000D01*
X148685201Y-92700001D01*
X148660126Y-92702910D01*
X148660122Y-92702911D01*
X148557524Y-92748211D01*
X148557516Y-92748217D01*
X148473036Y-92832698D01*
X148471327Y-92830989D01*
X148436228Y-92856107D01*
X148382349Y-92851949D01*
X148358078Y-92831583D01*
X148356964Y-92832698D01*
X148272483Y-92748217D01*
X148272476Y-92748212D01*
X148246095Y-92736564D01*
X148207107Y-92699145D01*
X148201293Y-92645419D01*
X148222142Y-92608435D01*
X148291001Y-92539577D01*
X148318370Y-92477590D01*
X148355789Y-92438602D01*
X148390639Y-92430500D01*
X151357659Y-92430500D01*
X151408439Y-92448982D01*
G37*
%TD.AperFunction*%
%TA.AperFunction,Conductor*%
G36*
X148447641Y-93428045D02*
G01*
X148471919Y-93448418D01*
X148473036Y-93447302D01*
X148557516Y-93531782D01*
X148557524Y-93531788D01*
X148593014Y-93547458D01*
X148632003Y-93584877D01*
X148637817Y-93638602D01*
X148607737Y-93683496D01*
X148593017Y-93691994D01*
X148557240Y-93707792D01*
X148557235Y-93707794D01*
X148557229Y-93707798D01*
X148472617Y-93792411D01*
X148470727Y-93790521D01*
X148436223Y-93815209D01*
X148382344Y-93811048D01*
X148358638Y-93791155D01*
X148357383Y-93792411D01*
X148272767Y-93707795D01*
X148272763Y-93707792D01*
X148250272Y-93697861D01*
X148239475Y-93692053D01*
X148228652Y-93685098D01*
X148195924Y-93642097D01*
X148198493Y-93588119D01*
X148235158Y-93548421D01*
X148239452Y-93546369D01*
X148272474Y-93531789D01*
X148272483Y-93531782D01*
X148356964Y-93447302D01*
X148358673Y-93449011D01*
X148393761Y-93423896D01*
X148447641Y-93428045D01*
G37*
%TD.AperFunction*%
%TA.AperFunction,Conductor*%
G36*
X149417641Y-93428045D02*
G01*
X149441919Y-93448418D01*
X149443036Y-93447302D01*
X149527516Y-93531782D01*
X149527524Y-93531788D01*
X149563014Y-93547458D01*
X149602003Y-93584877D01*
X149607817Y-93638602D01*
X149577737Y-93683496D01*
X149563017Y-93691994D01*
X149527240Y-93707792D01*
X149527235Y-93707794D01*
X149527229Y-93707798D01*
X149442617Y-93792411D01*
X149440727Y-93790521D01*
X149406223Y-93815209D01*
X149352344Y-93811048D01*
X149328638Y-93791155D01*
X149327383Y-93792411D01*
X149242770Y-93707798D01*
X149242766Y-93707795D01*
X149242765Y-93707794D01*
X149242762Y-93707792D01*
X149242761Y-93707792D01*
X149206983Y-93691994D01*
X149167996Y-93654575D01*
X149162182Y-93600849D01*
X149192263Y-93555956D01*
X149206987Y-93547456D01*
X149242476Y-93531787D01*
X149242483Y-93531782D01*
X149326964Y-93447302D01*
X149328673Y-93449011D01*
X149363761Y-93423896D01*
X149417641Y-93428045D01*
G37*
%TD.AperFunction*%
%TA.AperFunction,Conductor*%
G36*
X150387641Y-93428045D02*
G01*
X150411919Y-93448418D01*
X150413036Y-93447302D01*
X150497516Y-93531782D01*
X150497524Y-93531788D01*
X150533014Y-93547458D01*
X150572003Y-93584877D01*
X150577817Y-93638602D01*
X150547737Y-93683496D01*
X150533017Y-93691994D01*
X150497240Y-93707792D01*
X150497235Y-93707794D01*
X150497229Y-93707798D01*
X150412617Y-93792411D01*
X150410727Y-93790521D01*
X150376223Y-93815209D01*
X150322344Y-93811048D01*
X150298638Y-93791155D01*
X150297383Y-93792411D01*
X150212770Y-93707798D01*
X150212766Y-93707795D01*
X150212765Y-93707794D01*
X150212762Y-93707792D01*
X150212761Y-93707792D01*
X150176983Y-93691994D01*
X150137996Y-93654575D01*
X150132182Y-93600849D01*
X150162263Y-93555956D01*
X150176987Y-93547456D01*
X150212476Y-93531787D01*
X150212483Y-93531782D01*
X150296964Y-93447302D01*
X150298673Y-93449011D01*
X150333761Y-93423896D01*
X150387641Y-93428045D01*
G37*
%TD.AperFunction*%
%TD*%
M02*
