%TF.GenerationSoftware,KiCad,Pcbnew,8.0.5*%
%TF.CreationDate,2024-11-01T22:20:15+01:00*%
%TF.ProjectId,C8W1B1V1.0,43385731-4231-4563-912e-302e6b696361,rev?*%
%TF.SameCoordinates,Original*%
%TF.FileFunction,Copper,L4,Bot*%
%TF.FilePolarity,Positive*%
%FSLAX46Y46*%
G04 Gerber Fmt 4.6, Leading zero omitted, Abs format (unit mm)*
G04 Created by KiCad (PCBNEW 8.0.5) date 2024-11-01 22:20:15*
%MOMM*%
%LPD*%
G01*
G04 APERTURE LIST*
%TA.AperFunction,EtchedComponent*%
%ADD10C,1.000000*%
%TD*%
%TA.AperFunction,ComponentPad*%
%ADD11R,1.700000X1.700000*%
%TD*%
%TA.AperFunction,ComponentPad*%
%ADD12O,1.700000X1.700000*%
%TD*%
%TA.AperFunction,ComponentPad*%
%ADD13C,1.000000*%
%TD*%
%TA.AperFunction,SMDPad,CuDef*%
%ADD14C,2.286000*%
%TD*%
%TA.AperFunction,ViaPad*%
%ADD15C,0.700000*%
%TD*%
%TA.AperFunction,Conductor*%
%ADD16C,0.160000*%
%TD*%
G04 APERTURE END LIST*
D10*
%TO.C,AE1*%
X137940000Y-79970000D02*
X138940000Y-80970000D01*
X138940000Y-80970000D02*
X138940000Y-83970000D01*
X138940000Y-83970000D02*
X139940000Y-84970000D01*
X139940000Y-79970000D02*
X140940000Y-80970000D01*
X140940000Y-80970000D02*
X140940000Y-83970000D01*
X140940000Y-83970000D02*
X141940000Y-84970000D01*
X141940000Y-79970000D02*
X142940000Y-80970000D01*
X142940000Y-80970000D02*
X142940000Y-83970000D01*
X142940000Y-83970000D02*
X143940000Y-84970000D01*
X143940000Y-79970000D02*
X144940000Y-80970000D01*
X144940000Y-80970000D02*
X144940000Y-83970000D01*
X144940000Y-83970000D02*
X145940000Y-84970000D01*
X145940000Y-79970000D02*
X146940000Y-80970000D01*
X146940000Y-80970000D02*
X146940000Y-83970000D01*
X146940000Y-83970000D02*
X147940000Y-84970000D01*
X147940000Y-79970000D02*
X148940000Y-80970000D01*
X148940000Y-80970000D02*
X148940000Y-83970000D01*
X148940000Y-83970000D02*
X149940000Y-84970000D01*
X149940000Y-79970000D02*
X150940000Y-80970000D01*
X150940000Y-80970000D02*
X150940000Y-83970000D01*
X150940000Y-83970000D02*
X151940000Y-84970000D01*
X151940000Y-79970000D02*
X152940000Y-80970000D01*
X152940000Y-80970000D02*
X152940000Y-83970000D01*
X152940000Y-83970000D02*
X153940000Y-84970000D01*
X153940000Y-79970000D02*
X154940000Y-80970000D01*
X154940000Y-80970000D02*
X154940000Y-83970000D01*
X154940000Y-83970000D02*
X155940000Y-84970000D01*
%TD*%
D11*
%TO.P,J1,1,Pin_1*%
%TO.N,U_RX*%
X140530000Y-125000000D03*
D12*
%TO.P,J1,2,Pin_2*%
%TO.N,STM_NRST*%
X143070000Y-125000000D03*
%TO.P,J1,3,Pin_3*%
%TO.N,GND*%
X145610000Y-125000000D03*
%TO.P,J1,4,Pin_4*%
%TO.N,+3V3*%
X148150000Y-125000000D03*
%TO.P,J1,5,Pin_5*%
%TO.N,U_TX*%
X150690000Y-125000000D03*
%TO.P,J1,6,Pin_6*%
%TO.N,STM_SWDIO*%
X153230000Y-125000000D03*
%TO.P,J1,7,Pin_7*%
%TO.N,STM_SWCLK*%
X155770000Y-125000000D03*
%TD*%
D13*
%TO.P,AE1,*%
%TO.N,*%
X137940000Y-79970000D03*
X139940000Y-79970000D03*
X139940000Y-84970000D03*
X141940000Y-79970000D03*
X141940000Y-84970000D03*
X143940000Y-79970000D03*
X143940000Y-84970000D03*
X145940000Y-79970000D03*
X145940000Y-84970000D03*
X147940000Y-79970000D03*
X147940000Y-84970000D03*
X149940000Y-79970000D03*
X149940000Y-84970000D03*
X151940000Y-79970000D03*
X151940000Y-84970000D03*
X153940000Y-79970000D03*
X153940000Y-84970000D03*
X155940000Y-79970000D03*
X155940000Y-84970000D03*
%TD*%
D14*
%TO.P,J2,1,Pin_1*%
%TO.N,STM_SWCLK*%
X155810000Y-122660000D03*
%TO.P,J2,2,Pin_2*%
%TO.N,STM_SWDIO*%
X153270000Y-122660000D03*
%TO.P,J2,3,Pin_3*%
%TO.N,U_TX*%
X150730000Y-122660000D03*
%TO.P,J2,4,Pin_4*%
%TO.N,+3V3*%
X148190000Y-122660000D03*
%TO.P,J2,5,Pin_5*%
%TO.N,GND*%
X145650000Y-122660000D03*
%TO.P,J2,6,Pin_6*%
%TO.N,STM_NRST*%
X143110000Y-122660000D03*
%TO.P,J2,7,Pin_7*%
%TO.N,U_RX*%
X140570000Y-122660000D03*
%TD*%
D15*
%TO.N,GND*%
X147610000Y-116920000D03*
X145700000Y-101280000D03*
X146100000Y-104990000D03*
X154280000Y-96130000D03*
X153610000Y-110230000D03*
X155260000Y-100170000D03*
X152790000Y-98040000D03*
X145970000Y-103810000D03*
X142870000Y-94820000D03*
X141880000Y-111200000D03*
X151840000Y-96160000D03*
X141830000Y-94370000D03*
X140770000Y-98100000D03*
X151530000Y-100550000D03*
X150420000Y-93140000D03*
X146080000Y-92300000D03*
X147740000Y-97340000D03*
X145620000Y-99730000D03*
X154760000Y-111850000D03*
X139840000Y-97210000D03*
X148440000Y-93140000D03*
X147470000Y-111170000D03*
X156240000Y-111810000D03*
X149440000Y-93140000D03*
X143700000Y-94140000D03*
X144085000Y-95285000D03*
X150550000Y-114790000D03*
%TO.N,Net-(IC2-VR_RF)*%
X144770000Y-93720000D03*
X145630000Y-95180000D03*
%TO.N,+3V3*%
X143650000Y-118230000D03*
X143680000Y-109170000D03*
X143140000Y-98360000D03*
X151860000Y-94170000D03*
X145070000Y-118200000D03*
X150740000Y-116170000D03*
X150800000Y-119040000D03*
X150630000Y-101550000D03*
X147930000Y-94100000D03*
%TO.N,S2LP_SDN*%
X153730000Y-93460000D03*
X150385000Y-95655000D03*
%TO.N,MEM_MOSI*%
X148930000Y-114910000D03*
X147450000Y-118310000D03*
%TO.N,FLASH_CS*%
X142780000Y-118280000D03*
X146400000Y-118390000D03*
%TO.N,MEM_MISO*%
X145950000Y-115162194D03*
X147640000Y-114820000D03*
%TO.N,S2LP_CLK*%
X145130000Y-105150000D03*
X144260000Y-107180000D03*
%TO.N,S2LP_MOSI*%
X145190000Y-107470000D03*
X145150000Y-106110000D03*
%TD*%
D16*
%TO.N,GND*%
X145650000Y-122660000D02*
X145650000Y-124960000D01*
X145650000Y-124960000D02*
X145610000Y-125000000D01*
%TO.N,Net-(IC2-VR_RF)*%
X145630000Y-94580000D02*
X144770000Y-93720000D01*
X145630000Y-95180000D02*
X145630000Y-94580000D01*
%TO.N,+3V3*%
X151790000Y-94100000D02*
X151860000Y-94170000D01*
X148190000Y-124960000D02*
X148150000Y-125000000D01*
X147930000Y-94100000D02*
X151790000Y-94100000D01*
X148190000Y-122660000D02*
X148190000Y-124960000D01*
%TO.N,S2LP_SDN*%
X151535000Y-95655000D02*
X150385000Y-95655000D01*
X153730000Y-93460000D02*
X151535000Y-95655000D01*
%TO.N,MEM_MOSI*%
X148970000Y-117550000D02*
X148210000Y-118310000D01*
X148210000Y-118310000D02*
X147450000Y-118310000D01*
X148930000Y-114910000D02*
X148970000Y-114950000D01*
X148970000Y-114950000D02*
X148970000Y-117550000D01*
%TO.N,FLASH_CS*%
X142780000Y-118280000D02*
X143540000Y-119040000D01*
X143540000Y-119040000D02*
X145750000Y-119040000D01*
X145750000Y-119040000D02*
X146400000Y-118390000D01*
%TO.N,MEM_MISO*%
X147297806Y-115162194D02*
X147640000Y-114820000D01*
X145950000Y-115162194D02*
X147297806Y-115162194D01*
%TO.N,S2LP_CLK*%
X144260000Y-107180000D02*
X144260000Y-106165613D01*
X144260000Y-106165613D02*
X145130000Y-105295613D01*
X145130000Y-105295613D02*
X145130000Y-105150000D01*
%TO.N,S2LP_MOSI*%
X145150000Y-106110000D02*
X145150000Y-107430000D01*
X145190000Y-107470000D02*
X145150000Y-107430000D01*
%TO.N,STM_SWCLK*%
X155810000Y-122660000D02*
X155810000Y-124960000D01*
X155810000Y-124960000D02*
X155770000Y-125000000D01*
%TO.N,STM_SWDIO*%
X153270000Y-124960000D02*
X153230000Y-125000000D01*
X153270000Y-122660000D02*
X153270000Y-124960000D01*
%TO.N,STM_NRST*%
X143110000Y-124960000D02*
X143070000Y-125000000D01*
X143110000Y-122660000D02*
X143110000Y-124960000D01*
%TO.N,U_TX*%
X150730000Y-122660000D02*
X150730000Y-124960000D01*
X150730000Y-124960000D02*
X150690000Y-125000000D01*
%TO.N,U_RX*%
X140570000Y-122660000D02*
X140570000Y-124960000D01*
X140570000Y-124960000D02*
X140530000Y-125000000D01*
%TD*%
%TA.AperFunction,Conductor*%
%TO.N,GND*%
G36*
X157471280Y-91018482D02*
G01*
X157498300Y-91065282D01*
X157499500Y-91079000D01*
X157499500Y-124420500D01*
X157481018Y-124471280D01*
X157434218Y-124498300D01*
X157420500Y-124499500D01*
X156695622Y-124499500D01*
X156644842Y-124481018D01*
X156625951Y-124457742D01*
X156620701Y-124447921D01*
X156614265Y-124435880D01*
X156488279Y-124282366D01*
X156487988Y-124282011D01*
X156334121Y-124155735D01*
X156159439Y-124062366D01*
X156158573Y-124061903D01*
X156158572Y-124061902D01*
X156155151Y-124060074D01*
X156155842Y-124058779D01*
X156119972Y-124025897D01*
X156112929Y-123972318D01*
X156141974Y-123926748D01*
X156169604Y-123913126D01*
X156257526Y-123889568D01*
X156464240Y-123793176D01*
X156651074Y-123662353D01*
X156812353Y-123501074D01*
X156943176Y-123314240D01*
X157039568Y-123107526D01*
X157098600Y-122887215D01*
X157118479Y-122660000D01*
X157098600Y-122432785D01*
X157039568Y-122212474D01*
X157026496Y-122184440D01*
X156943178Y-122005764D01*
X156812358Y-121818933D01*
X156812351Y-121818924D01*
X156651075Y-121657648D01*
X156651066Y-121657641D01*
X156464236Y-121526821D01*
X156257529Y-121430433D01*
X156257526Y-121430432D01*
X156214314Y-121418853D01*
X156037218Y-121371400D01*
X156037206Y-121371398D01*
X155810004Y-121351521D01*
X155809996Y-121351521D01*
X155582793Y-121371398D01*
X155582781Y-121371400D01*
X155362470Y-121430433D01*
X155362469Y-121430433D01*
X155155764Y-121526821D01*
X154968933Y-121657641D01*
X154968924Y-121657648D01*
X154807648Y-121818924D01*
X154807641Y-121818933D01*
X154676821Y-122005764D01*
X154611598Y-122145637D01*
X154573387Y-122183848D01*
X154519553Y-122188558D01*
X154475287Y-122157563D01*
X154468402Y-122145637D01*
X154403178Y-122005764D01*
X154272358Y-121818933D01*
X154272351Y-121818924D01*
X154111075Y-121657648D01*
X154111066Y-121657641D01*
X153924236Y-121526821D01*
X153717529Y-121430433D01*
X153717526Y-121430432D01*
X153674314Y-121418853D01*
X153497218Y-121371400D01*
X153497206Y-121371398D01*
X153270004Y-121351521D01*
X153269996Y-121351521D01*
X153042793Y-121371398D01*
X153042781Y-121371400D01*
X152822470Y-121430433D01*
X152822469Y-121430433D01*
X152615764Y-121526821D01*
X152428933Y-121657641D01*
X152428924Y-121657648D01*
X152267648Y-121818924D01*
X152267641Y-121818933D01*
X152136821Y-122005764D01*
X152071598Y-122145637D01*
X152033387Y-122183848D01*
X151979553Y-122188558D01*
X151935287Y-122157563D01*
X151928402Y-122145637D01*
X151863178Y-122005764D01*
X151732358Y-121818933D01*
X151732351Y-121818924D01*
X151571075Y-121657648D01*
X151571066Y-121657641D01*
X151384236Y-121526821D01*
X151177529Y-121430433D01*
X151177526Y-121430432D01*
X151134314Y-121418853D01*
X150957218Y-121371400D01*
X150957206Y-121371398D01*
X150730004Y-121351521D01*
X150729996Y-121351521D01*
X150502793Y-121371398D01*
X150502781Y-121371400D01*
X150282470Y-121430433D01*
X150282469Y-121430433D01*
X150075764Y-121526821D01*
X149888933Y-121657641D01*
X149888924Y-121657648D01*
X149727648Y-121818924D01*
X149727641Y-121818933D01*
X149596821Y-122005764D01*
X149531598Y-122145637D01*
X149493387Y-122183848D01*
X149439553Y-122188558D01*
X149395287Y-122157563D01*
X149388402Y-122145637D01*
X149323178Y-122005764D01*
X149192358Y-121818933D01*
X149192351Y-121818924D01*
X149031075Y-121657648D01*
X149031066Y-121657641D01*
X148844236Y-121526821D01*
X148637529Y-121430433D01*
X148637526Y-121430432D01*
X148594314Y-121418853D01*
X148417218Y-121371400D01*
X148417206Y-121371398D01*
X148190004Y-121351521D01*
X148189996Y-121351521D01*
X147962793Y-121371398D01*
X147962781Y-121371400D01*
X147742470Y-121430433D01*
X147742469Y-121430433D01*
X147535764Y-121526821D01*
X147348933Y-121657641D01*
X147348924Y-121657648D01*
X147187648Y-121818924D01*
X147187641Y-121818933D01*
X147056821Y-122005764D01*
X146991321Y-122146229D01*
X146953109Y-122184441D01*
X146899276Y-122189150D01*
X146855010Y-122158154D01*
X146848125Y-122146228D01*
X146782745Y-122006018D01*
X146782743Y-122006015D01*
X146651974Y-121819256D01*
X146651972Y-121819253D01*
X146627928Y-121795208D01*
X146627927Y-121795208D01*
X145763137Y-122659998D01*
X145763137Y-122660001D01*
X146627927Y-123524791D01*
X146627928Y-123524791D01*
X146651966Y-123500753D01*
X146782742Y-123313985D01*
X146848124Y-123173771D01*
X146886335Y-123135559D01*
X146940169Y-123130849D01*
X146984436Y-123161844D01*
X146991321Y-123173770D01*
X147056821Y-123314236D01*
X147056824Y-123314240D01*
X147187647Y-123501074D01*
X147348926Y-123662353D01*
X147348931Y-123662357D01*
X147348933Y-123662358D01*
X147535763Y-123793178D01*
X147742469Y-123889566D01*
X147742471Y-123889566D01*
X147742474Y-123889568D01*
X147786975Y-123901492D01*
X147831241Y-123932485D01*
X147845228Y-123984683D01*
X147822391Y-124033660D01*
X147789464Y-124053397D01*
X147761428Y-124061902D01*
X147585878Y-124155735D01*
X147432011Y-124282011D01*
X147305735Y-124435879D01*
X147294049Y-124457742D01*
X147253810Y-124493813D01*
X147224378Y-124499500D01*
X146535055Y-124499500D01*
X146484275Y-124481018D01*
X146465383Y-124457741D01*
X146453845Y-124436156D01*
X146327633Y-124282366D01*
X146173842Y-124156153D01*
X145998379Y-124062367D01*
X145998258Y-124062317D01*
X145998219Y-124062281D01*
X145994957Y-124060538D01*
X145995404Y-124059701D01*
X145958420Y-124025805D01*
X145951371Y-123972227D01*
X145980411Y-123926654D01*
X146008050Y-123913025D01*
X146097351Y-123889096D01*
X146097361Y-123889092D01*
X146303982Y-123792744D01*
X146490753Y-123661966D01*
X146514791Y-123637927D01*
X145650001Y-122773137D01*
X145649999Y-122773137D01*
X144785208Y-123637927D01*
X144809253Y-123661972D01*
X144809256Y-123661974D01*
X144996014Y-123792743D01*
X145202638Y-123889092D01*
X145202648Y-123889096D01*
X145248797Y-123901462D01*
X145293063Y-123932458D01*
X145307049Y-123984655D01*
X145284211Y-124033632D01*
X145251284Y-124053368D01*
X145221622Y-124062366D01*
X145046157Y-124156153D01*
X144892366Y-124282366D01*
X144766154Y-124436156D01*
X144754617Y-124457741D01*
X144714379Y-124493812D01*
X144684945Y-124499500D01*
X143995622Y-124499500D01*
X143944842Y-124481018D01*
X143925951Y-124457742D01*
X143920701Y-124447921D01*
X143914265Y-124435880D01*
X143788279Y-124282366D01*
X143787988Y-124282011D01*
X143634121Y-124155735D01*
X143459439Y-124062366D01*
X143458573Y-124061903D01*
X143458572Y-124061902D01*
X143455151Y-124060074D01*
X143455842Y-124058779D01*
X143419972Y-124025897D01*
X143412929Y-123972318D01*
X143441974Y-123926748D01*
X143469604Y-123913126D01*
X143557526Y-123889568D01*
X143764240Y-123793176D01*
X143951074Y-123662353D01*
X144112353Y-123501074D01*
X144243176Y-123314240D01*
X144243178Y-123314236D01*
X144243180Y-123314233D01*
X144308678Y-123173771D01*
X144346889Y-123135559D01*
X144400722Y-123130849D01*
X144444989Y-123161844D01*
X144451874Y-123173771D01*
X144517254Y-123313982D01*
X144517256Y-123313985D01*
X144648025Y-123500743D01*
X144648027Y-123500746D01*
X144672071Y-123524791D01*
X144672072Y-123524791D01*
X145536863Y-122660000D01*
X145536863Y-122659999D01*
X144672072Y-121795208D01*
X144672071Y-121795208D01*
X144648031Y-121819247D01*
X144648030Y-121819249D01*
X144517256Y-122006015D01*
X144451874Y-122146229D01*
X144413663Y-122184440D01*
X144359829Y-122189150D01*
X144315563Y-122158155D01*
X144308678Y-122146229D01*
X144243178Y-122005764D01*
X144112358Y-121818933D01*
X144112351Y-121818924D01*
X143975497Y-121682070D01*
X144785208Y-121682070D01*
X144785208Y-121682072D01*
X145649999Y-122546863D01*
X145650001Y-122546863D01*
X146514791Y-121682072D01*
X146514791Y-121682071D01*
X146490746Y-121658027D01*
X146490743Y-121658025D01*
X146303985Y-121527256D01*
X146097361Y-121430907D01*
X146097351Y-121430903D01*
X145877131Y-121371894D01*
X145877119Y-121371892D01*
X145650005Y-121352023D01*
X145649995Y-121352023D01*
X145422880Y-121371892D01*
X145422868Y-121371894D01*
X145202648Y-121430903D01*
X145202638Y-121430907D01*
X144996015Y-121527256D01*
X144809249Y-121658030D01*
X144809247Y-121658031D01*
X144785208Y-121682070D01*
X143975497Y-121682070D01*
X143951075Y-121657648D01*
X143951066Y-121657641D01*
X143764236Y-121526821D01*
X143557529Y-121430433D01*
X143557526Y-121430432D01*
X143514314Y-121418853D01*
X143337218Y-121371400D01*
X143337206Y-121371398D01*
X143110004Y-121351521D01*
X143109996Y-121351521D01*
X142882793Y-121371398D01*
X142882781Y-121371400D01*
X142662470Y-121430433D01*
X142662469Y-121430433D01*
X142455764Y-121526821D01*
X142268933Y-121657641D01*
X142268924Y-121657648D01*
X142107648Y-121818924D01*
X142107641Y-121818933D01*
X141976821Y-122005764D01*
X141911598Y-122145637D01*
X141873387Y-122183848D01*
X141819553Y-122188558D01*
X141775287Y-122157563D01*
X141768402Y-122145637D01*
X141703178Y-122005764D01*
X141572358Y-121818933D01*
X141572351Y-121818924D01*
X141411075Y-121657648D01*
X141411066Y-121657641D01*
X141224236Y-121526821D01*
X141017529Y-121430433D01*
X141017526Y-121430432D01*
X140974314Y-121418853D01*
X140797218Y-121371400D01*
X140797206Y-121371398D01*
X140570004Y-121351521D01*
X140569996Y-121351521D01*
X140342793Y-121371398D01*
X140342781Y-121371400D01*
X140122470Y-121430433D01*
X140122469Y-121430433D01*
X139915764Y-121526821D01*
X139728933Y-121657641D01*
X139728924Y-121657648D01*
X139567648Y-121818924D01*
X139567641Y-121818933D01*
X139436821Y-122005764D01*
X139340433Y-122212469D01*
X139340433Y-122212470D01*
X139281400Y-122432781D01*
X139281398Y-122432793D01*
X139261521Y-122659995D01*
X139261521Y-122660004D01*
X139281398Y-122887206D01*
X139281400Y-122887218D01*
X139340433Y-123107529D01*
X139340433Y-123107530D01*
X139436821Y-123314236D01*
X139436824Y-123314240D01*
X139567647Y-123501074D01*
X139728926Y-123662353D01*
X139728931Y-123662357D01*
X139728933Y-123662358D01*
X139915763Y-123793178D01*
X140013819Y-123838902D01*
X140052030Y-123877113D01*
X140056740Y-123930946D01*
X140025745Y-123975213D01*
X139980432Y-123989500D01*
X139664194Y-123989500D01*
X139617376Y-123998812D01*
X139564285Y-124034285D01*
X139528812Y-124087376D01*
X139519500Y-124134194D01*
X139519500Y-124420500D01*
X139501018Y-124471280D01*
X139454218Y-124498300D01*
X139440500Y-124499500D01*
X136579500Y-124499500D01*
X136528720Y-124481018D01*
X136501700Y-124434218D01*
X136500500Y-124420500D01*
X136500500Y-118280000D01*
X142264250Y-118280000D01*
X142285140Y-118425301D01*
X142285141Y-118425304D01*
X142346123Y-118558836D01*
X142442256Y-118669778D01*
X142565750Y-118749143D01*
X142706601Y-118790500D01*
X142853400Y-118790500D01*
X142871725Y-118785119D01*
X142883392Y-118781693D01*
X142937323Y-118785119D01*
X142961512Y-118801631D01*
X143403764Y-119243884D01*
X143403765Y-119243885D01*
X143403766Y-119243885D01*
X143403767Y-119243886D01*
X143492161Y-119280500D01*
X143492162Y-119280500D01*
X143492163Y-119280500D01*
X145797837Y-119280500D01*
X145797839Y-119280500D01*
X145886233Y-119243886D01*
X146090118Y-119040000D01*
X150284250Y-119040000D01*
X150305140Y-119185301D01*
X150305141Y-119185304D01*
X150366123Y-119318836D01*
X150462256Y-119429778D01*
X150585750Y-119509143D01*
X150726601Y-119550500D01*
X150873398Y-119550500D01*
X150873399Y-119550500D01*
X151014250Y-119509143D01*
X151137744Y-119429778D01*
X151233877Y-119318836D01*
X151294859Y-119185304D01*
X151315750Y-119040000D01*
X151294859Y-118894696D01*
X151233877Y-118761164D01*
X151137744Y-118650222D01*
X151014250Y-118570857D01*
X150873399Y-118529500D01*
X150726601Y-118529500D01*
X150585750Y-118570857D01*
X150585749Y-118570857D01*
X150462255Y-118650222D01*
X150366123Y-118761163D01*
X150305141Y-118894695D01*
X150305140Y-118894698D01*
X150284250Y-119040000D01*
X146090118Y-119040000D01*
X146218488Y-118911630D01*
X146267462Y-118888793D01*
X146296602Y-118891691D01*
X146326601Y-118900500D01*
X146326602Y-118900500D01*
X146473398Y-118900500D01*
X146473399Y-118900500D01*
X146614250Y-118859143D01*
X146737744Y-118779778D01*
X146833877Y-118668836D01*
X146871406Y-118586657D01*
X146909313Y-118548144D01*
X146963107Y-118543007D01*
X147007618Y-118573650D01*
X147015128Y-118586657D01*
X147016123Y-118588836D01*
X147095984Y-118681000D01*
X147112256Y-118699778D01*
X147235750Y-118779143D01*
X147376601Y-118820500D01*
X147523398Y-118820500D01*
X147523399Y-118820500D01*
X147664250Y-118779143D01*
X147787744Y-118699778D01*
X147883877Y-118588836D01*
X147883878Y-118588832D01*
X147885192Y-118586790D01*
X147886536Y-118585766D01*
X147887577Y-118584566D01*
X147887828Y-118584783D01*
X147928194Y-118554063D01*
X147951651Y-118550500D01*
X148257837Y-118550500D01*
X148257839Y-118550500D01*
X148346233Y-118513886D01*
X149173886Y-117686233D01*
X149210500Y-117597839D01*
X149210500Y-117502162D01*
X149210500Y-116170000D01*
X150224250Y-116170000D01*
X150245140Y-116315301D01*
X150245141Y-116315304D01*
X150306123Y-116448836D01*
X150402256Y-116559778D01*
X150525750Y-116639143D01*
X150666601Y-116680500D01*
X150813398Y-116680500D01*
X150813399Y-116680500D01*
X150954250Y-116639143D01*
X151077744Y-116559778D01*
X151173877Y-116448836D01*
X151234859Y-116315304D01*
X151255750Y-116170000D01*
X151234859Y-116024696D01*
X151173877Y-115891164D01*
X151077744Y-115780222D01*
X150954250Y-115700857D01*
X150813399Y-115659500D01*
X150666601Y-115659500D01*
X150525750Y-115700857D01*
X150525749Y-115700857D01*
X150402255Y-115780222D01*
X150306123Y-115891163D01*
X150245141Y-116024695D01*
X150245140Y-116024698D01*
X150224250Y-116170000D01*
X149210500Y-116170000D01*
X149210500Y-115379703D01*
X149228982Y-115328923D01*
X149246788Y-115313244D01*
X149267744Y-115299778D01*
X149363877Y-115188836D01*
X149424859Y-115055304D01*
X149445750Y-114910000D01*
X149424859Y-114764696D01*
X149363877Y-114631164D01*
X149267744Y-114520222D01*
X149144250Y-114440857D01*
X149003399Y-114399500D01*
X148856601Y-114399500D01*
X148715750Y-114440857D01*
X148715749Y-114440857D01*
X148592255Y-114520222D01*
X148496123Y-114631163D01*
X148435141Y-114764695D01*
X148435140Y-114764698D01*
X148414250Y-114910000D01*
X148435140Y-115055301D01*
X148435141Y-115055304D01*
X148496123Y-115188836D01*
X148592252Y-115299774D01*
X148592256Y-115299778D01*
X148693210Y-115364657D01*
X148725937Y-115407659D01*
X148729500Y-115431116D01*
X148729500Y-117417659D01*
X148711018Y-117468439D01*
X148706361Y-117473520D01*
X148133520Y-118046361D01*
X148084544Y-118069199D01*
X148077659Y-118069500D01*
X147951651Y-118069500D01*
X147900871Y-118051018D01*
X147885192Y-118033210D01*
X147883877Y-118031164D01*
X147787744Y-117920222D01*
X147664250Y-117840857D01*
X147523399Y-117799500D01*
X147376601Y-117799500D01*
X147235750Y-117840857D01*
X147235749Y-117840857D01*
X147112255Y-117920222D01*
X147016123Y-118031163D01*
X146978593Y-118113342D01*
X146940685Y-118151855D01*
X146886891Y-118156992D01*
X146842380Y-118126348D01*
X146834869Y-118113337D01*
X146833877Y-118111164D01*
X146737744Y-118000222D01*
X146614250Y-117920857D01*
X146473399Y-117879500D01*
X146326601Y-117879500D01*
X146185750Y-117920857D01*
X146185749Y-117920857D01*
X146062255Y-118000222D01*
X145966123Y-118111163D01*
X145905141Y-118244695D01*
X145905140Y-118244698D01*
X145884250Y-118390000D01*
X145900699Y-118504413D01*
X145889631Y-118557306D01*
X145878365Y-118571516D01*
X145673519Y-118776361D01*
X145624544Y-118799199D01*
X145617659Y-118799500D01*
X145350460Y-118799500D01*
X145299680Y-118781018D01*
X145272660Y-118734218D01*
X145282044Y-118681000D01*
X145307749Y-118654041D01*
X145407744Y-118589778D01*
X145503877Y-118478836D01*
X145564859Y-118345304D01*
X145585750Y-118200000D01*
X145564859Y-118054696D01*
X145503877Y-117921164D01*
X145407744Y-117810222D01*
X145284250Y-117730857D01*
X145143399Y-117689500D01*
X144996601Y-117689500D01*
X144855750Y-117730857D01*
X144855749Y-117730857D01*
X144732255Y-117810222D01*
X144636123Y-117921163D01*
X144575141Y-118054695D01*
X144575140Y-118054698D01*
X144554250Y-118200000D01*
X144575140Y-118345301D01*
X144575141Y-118345304D01*
X144636123Y-118478836D01*
X144729551Y-118586657D01*
X144732256Y-118589778D01*
X144832251Y-118654041D01*
X144864977Y-118697044D01*
X144862406Y-118751022D01*
X144825740Y-118790718D01*
X144789540Y-118799500D01*
X143977140Y-118799500D01*
X143926360Y-118781018D01*
X143899340Y-118734218D01*
X143908724Y-118681000D01*
X143934427Y-118654042D01*
X143987744Y-118619778D01*
X144083877Y-118508836D01*
X144144859Y-118375304D01*
X144165750Y-118230000D01*
X144144859Y-118084696D01*
X144083877Y-117951164D01*
X143987744Y-117840222D01*
X143864250Y-117760857D01*
X143723399Y-117719500D01*
X143576601Y-117719500D01*
X143435750Y-117760857D01*
X143435749Y-117760857D01*
X143312256Y-117840221D01*
X143253041Y-117908559D01*
X143205818Y-117934832D01*
X143152756Y-117924604D01*
X143133634Y-117908559D01*
X143117745Y-117890223D01*
X143117744Y-117890222D01*
X142994250Y-117810857D01*
X142853399Y-117769500D01*
X142706601Y-117769500D01*
X142565750Y-117810857D01*
X142565749Y-117810857D01*
X142442255Y-117890222D01*
X142346123Y-118001163D01*
X142285141Y-118134695D01*
X142285140Y-118134698D01*
X142264250Y-118280000D01*
X136500500Y-118280000D01*
X136500500Y-115162194D01*
X145434250Y-115162194D01*
X145455140Y-115307495D01*
X145455141Y-115307498D01*
X145516123Y-115441030D01*
X145612256Y-115551972D01*
X145735750Y-115631337D01*
X145876601Y-115672694D01*
X146023398Y-115672694D01*
X146023399Y-115672694D01*
X146164250Y-115631337D01*
X146287744Y-115551972D01*
X146383877Y-115441030D01*
X146383878Y-115441026D01*
X146385192Y-115438984D01*
X146386536Y-115437960D01*
X146387577Y-115436760D01*
X146387828Y-115436977D01*
X146428194Y-115406257D01*
X146451651Y-115402694D01*
X147345643Y-115402694D01*
X147345645Y-115402694D01*
X147434039Y-115366080D01*
X147458487Y-115341630D01*
X147507460Y-115318793D01*
X147536602Y-115321691D01*
X147566601Y-115330500D01*
X147566602Y-115330500D01*
X147713398Y-115330500D01*
X147713399Y-115330500D01*
X147854250Y-115289143D01*
X147977744Y-115209778D01*
X148073877Y-115098836D01*
X148134859Y-114965304D01*
X148155750Y-114820000D01*
X148134859Y-114674696D01*
X148073877Y-114541164D01*
X147977744Y-114430222D01*
X147854250Y-114350857D01*
X147713399Y-114309500D01*
X147566601Y-114309500D01*
X147425750Y-114350857D01*
X147425749Y-114350857D01*
X147302255Y-114430222D01*
X147206123Y-114541163D01*
X147145141Y-114674695D01*
X147145140Y-114674698D01*
X147124250Y-114820000D01*
X147124250Y-114820003D01*
X147125896Y-114831454D01*
X147114827Y-114884347D01*
X147072348Y-114917750D01*
X147047700Y-114921694D01*
X146451651Y-114921694D01*
X146400871Y-114903212D01*
X146385192Y-114885404D01*
X146383877Y-114883358D01*
X146287744Y-114772416D01*
X146164250Y-114693051D01*
X146023399Y-114651694D01*
X145876601Y-114651694D01*
X145735750Y-114693051D01*
X145735749Y-114693051D01*
X145612255Y-114772416D01*
X145516123Y-114883357D01*
X145455141Y-115016889D01*
X145455140Y-115016892D01*
X145434250Y-115162194D01*
X136500500Y-115162194D01*
X136500500Y-109170000D01*
X143164250Y-109170000D01*
X143185140Y-109315301D01*
X143185141Y-109315304D01*
X143246123Y-109448836D01*
X143342256Y-109559778D01*
X143465750Y-109639143D01*
X143606601Y-109680500D01*
X143753398Y-109680500D01*
X143753399Y-109680500D01*
X143894250Y-109639143D01*
X144017744Y-109559778D01*
X144113877Y-109448836D01*
X144174859Y-109315304D01*
X144195750Y-109170000D01*
X144174859Y-109024696D01*
X144113877Y-108891164D01*
X144017744Y-108780222D01*
X143894250Y-108700857D01*
X143753399Y-108659500D01*
X143606601Y-108659500D01*
X143465750Y-108700857D01*
X143465749Y-108700857D01*
X143342255Y-108780222D01*
X143246123Y-108891163D01*
X143185141Y-109024695D01*
X143185140Y-109024698D01*
X143164250Y-109170000D01*
X136500500Y-109170000D01*
X136500500Y-107180000D01*
X143744250Y-107180000D01*
X143765140Y-107325301D01*
X143765141Y-107325304D01*
X143826123Y-107458836D01*
X143922256Y-107569778D01*
X144045750Y-107649143D01*
X144186601Y-107690500D01*
X144333398Y-107690500D01*
X144333399Y-107690500D01*
X144474250Y-107649143D01*
X144580272Y-107581006D01*
X144632980Y-107569101D01*
X144681012Y-107593863D01*
X144694841Y-107614648D01*
X144729482Y-107690500D01*
X144756123Y-107748836D01*
X144852256Y-107859778D01*
X144975750Y-107939143D01*
X145116601Y-107980500D01*
X145263398Y-107980500D01*
X145263399Y-107980500D01*
X145404250Y-107939143D01*
X145527744Y-107859778D01*
X145623877Y-107748836D01*
X145684859Y-107615304D01*
X145705750Y-107470000D01*
X145684859Y-107324696D01*
X145623877Y-107191164D01*
X145527744Y-107080222D01*
X145426788Y-107015341D01*
X145394063Y-106972339D01*
X145390500Y-106948883D01*
X145390500Y-106605410D01*
X145408982Y-106554630D01*
X145426787Y-106538952D01*
X145487744Y-106499778D01*
X145583877Y-106388836D01*
X145644859Y-106255304D01*
X145665750Y-106110000D01*
X145665749Y-106109996D01*
X145644859Y-105964698D01*
X145644859Y-105964696D01*
X145583877Y-105831164D01*
X145487744Y-105720222D01*
X145440766Y-105690031D01*
X145408041Y-105647030D01*
X145410612Y-105593052D01*
X145440765Y-105557116D01*
X145467744Y-105539778D01*
X145563877Y-105428836D01*
X145624859Y-105295304D01*
X145645750Y-105150000D01*
X145624859Y-105004696D01*
X145563877Y-104871164D01*
X145467744Y-104760222D01*
X145344250Y-104680857D01*
X145203399Y-104639500D01*
X145056601Y-104639500D01*
X144915750Y-104680857D01*
X144915749Y-104680857D01*
X144792255Y-104760222D01*
X144696123Y-104871163D01*
X144635141Y-105004695D01*
X144635140Y-105004698D01*
X144614250Y-105150000D01*
X144635140Y-105295301D01*
X144635142Y-105295307D01*
X144660964Y-105351851D01*
X144665246Y-105405721D01*
X144644964Y-105440529D01*
X144056114Y-106029379D01*
X144022723Y-106109996D01*
X144022721Y-106109999D01*
X144019500Y-106117774D01*
X144019500Y-106684589D01*
X144001018Y-106735369D01*
X143983211Y-106751048D01*
X143922255Y-106790222D01*
X143826123Y-106901163D01*
X143765141Y-107034695D01*
X143765140Y-107034698D01*
X143744250Y-107180000D01*
X136500500Y-107180000D01*
X136500500Y-101550000D01*
X150114250Y-101550000D01*
X150135140Y-101695301D01*
X150135141Y-101695304D01*
X150196123Y-101828836D01*
X150292256Y-101939778D01*
X150415750Y-102019143D01*
X150556601Y-102060500D01*
X150703398Y-102060500D01*
X150703399Y-102060500D01*
X150844250Y-102019143D01*
X150967744Y-101939778D01*
X151063877Y-101828836D01*
X151124859Y-101695304D01*
X151145750Y-101550000D01*
X151124859Y-101404696D01*
X151063877Y-101271164D01*
X150967744Y-101160222D01*
X150844250Y-101080857D01*
X150703399Y-101039500D01*
X150556601Y-101039500D01*
X150415750Y-101080857D01*
X150415749Y-101080857D01*
X150292255Y-101160222D01*
X150196123Y-101271163D01*
X150135141Y-101404695D01*
X150135140Y-101404698D01*
X150114250Y-101550000D01*
X136500500Y-101550000D01*
X136500500Y-98360000D01*
X142624250Y-98360000D01*
X142645140Y-98505301D01*
X142645141Y-98505304D01*
X142706123Y-98638836D01*
X142802256Y-98749778D01*
X142925750Y-98829143D01*
X143066601Y-98870500D01*
X143213398Y-98870500D01*
X143213399Y-98870500D01*
X143354250Y-98829143D01*
X143477744Y-98749778D01*
X143573877Y-98638836D01*
X143634859Y-98505304D01*
X143655750Y-98360000D01*
X143634859Y-98214696D01*
X143573877Y-98081164D01*
X143477744Y-97970222D01*
X143354250Y-97890857D01*
X143213399Y-97849500D01*
X143066601Y-97849500D01*
X142925750Y-97890857D01*
X142925749Y-97890857D01*
X142802255Y-97970222D01*
X142706123Y-98081163D01*
X142645141Y-98214695D01*
X142645140Y-98214698D01*
X142624250Y-98360000D01*
X136500500Y-98360000D01*
X136500500Y-93720000D01*
X144254250Y-93720000D01*
X144275140Y-93865301D01*
X144275141Y-93865304D01*
X144336123Y-93998836D01*
X144432256Y-94109778D01*
X144555750Y-94189143D01*
X144696601Y-94230500D01*
X144843400Y-94230500D01*
X144861725Y-94225119D01*
X144873392Y-94221693D01*
X144927323Y-94225119D01*
X144951509Y-94241628D01*
X145349467Y-94639586D01*
X145372305Y-94688561D01*
X145358319Y-94740758D01*
X145336318Y-94761904D01*
X145292256Y-94790221D01*
X145292255Y-94790222D01*
X145196123Y-94901163D01*
X145135141Y-95034695D01*
X145135140Y-95034698D01*
X145114250Y-95180000D01*
X145135140Y-95325301D01*
X145135141Y-95325304D01*
X145196123Y-95458836D01*
X145292256Y-95569778D01*
X145415750Y-95649143D01*
X145556601Y-95690500D01*
X145703398Y-95690500D01*
X145703399Y-95690500D01*
X145844250Y-95649143D01*
X145967744Y-95569778D01*
X146063877Y-95458836D01*
X146124859Y-95325304D01*
X146145750Y-95180000D01*
X146124859Y-95034696D01*
X146063877Y-94901164D01*
X145967744Y-94790222D01*
X145906788Y-94751047D01*
X145874062Y-94708045D01*
X145870500Y-94684589D01*
X145870500Y-94532163D01*
X145870500Y-94532162D01*
X145833886Y-94443768D01*
X145766232Y-94376114D01*
X145490119Y-94100000D01*
X147414250Y-94100000D01*
X147435140Y-94245301D01*
X147435141Y-94245304D01*
X147496123Y-94378836D01*
X147592256Y-94489778D01*
X147715750Y-94569143D01*
X147856601Y-94610500D01*
X148003398Y-94610500D01*
X148003399Y-94610500D01*
X148144250Y-94569143D01*
X148267744Y-94489778D01*
X148363877Y-94378836D01*
X148363878Y-94378832D01*
X148365192Y-94376790D01*
X148366536Y-94375766D01*
X148367577Y-94374566D01*
X148367828Y-94374783D01*
X148408194Y-94344063D01*
X148431651Y-94340500D01*
X151325877Y-94340500D01*
X151376657Y-94358982D01*
X151397738Y-94386682D01*
X151426123Y-94448836D01*
X151522256Y-94559778D01*
X151645750Y-94639143D01*
X151786601Y-94680500D01*
X151933397Y-94680500D01*
X151933399Y-94680500D01*
X151970496Y-94669607D01*
X152024423Y-94673034D01*
X152063534Y-94710324D01*
X152069524Y-94764030D01*
X152048612Y-94801268D01*
X151458520Y-95391361D01*
X151409544Y-95414199D01*
X151402659Y-95414500D01*
X150886651Y-95414500D01*
X150835871Y-95396018D01*
X150820192Y-95378210D01*
X150818877Y-95376164D01*
X150722744Y-95265222D01*
X150599250Y-95185857D01*
X150458399Y-95144500D01*
X150311601Y-95144500D01*
X150170750Y-95185857D01*
X150170749Y-95185857D01*
X150047255Y-95265222D01*
X149951123Y-95376163D01*
X149890141Y-95509695D01*
X149890140Y-95509698D01*
X149869250Y-95655000D01*
X149890140Y-95800301D01*
X149890141Y-95800304D01*
X149951123Y-95933836D01*
X150047256Y-96044778D01*
X150170750Y-96124143D01*
X150311601Y-96165500D01*
X150458398Y-96165500D01*
X150458399Y-96165500D01*
X150599250Y-96124143D01*
X150722744Y-96044778D01*
X150818877Y-95933836D01*
X150818878Y-95933832D01*
X150820192Y-95931790D01*
X150821536Y-95930766D01*
X150822577Y-95929566D01*
X150822828Y-95929783D01*
X150863194Y-95899063D01*
X150886651Y-95895500D01*
X151582837Y-95895500D01*
X151582839Y-95895500D01*
X151671233Y-95858886D01*
X153548487Y-93981630D01*
X153597462Y-93958793D01*
X153626603Y-93961691D01*
X153656601Y-93970500D01*
X153803398Y-93970500D01*
X153803399Y-93970500D01*
X153944250Y-93929143D01*
X154067744Y-93849778D01*
X154163877Y-93738836D01*
X154224859Y-93605304D01*
X154245750Y-93460000D01*
X154224859Y-93314696D01*
X154163877Y-93181164D01*
X154067744Y-93070222D01*
X153944250Y-92990857D01*
X153803399Y-92949500D01*
X153656601Y-92949500D01*
X153515750Y-92990857D01*
X153515749Y-92990857D01*
X153392255Y-93070222D01*
X153296123Y-93181163D01*
X153235141Y-93314695D01*
X153235140Y-93314698D01*
X153214250Y-93460000D01*
X153230699Y-93574413D01*
X153219631Y-93627306D01*
X153208364Y-93641516D01*
X152492516Y-94357364D01*
X152443540Y-94380202D01*
X152391342Y-94366216D01*
X152360347Y-94321950D01*
X152358459Y-94290263D01*
X152375750Y-94170000D01*
X152354859Y-94024696D01*
X152293877Y-93891164D01*
X152197744Y-93780222D01*
X152074250Y-93700857D01*
X151933399Y-93659500D01*
X151786601Y-93659500D01*
X151645750Y-93700857D01*
X151645749Y-93700857D01*
X151522254Y-93780223D01*
X151477185Y-93832235D01*
X151429963Y-93858508D01*
X151417482Y-93859500D01*
X148431651Y-93859500D01*
X148380871Y-93841018D01*
X148365192Y-93823210D01*
X148363877Y-93821164D01*
X148267744Y-93710222D01*
X148144250Y-93630857D01*
X148003399Y-93589500D01*
X147856601Y-93589500D01*
X147715750Y-93630857D01*
X147715749Y-93630857D01*
X147592255Y-93710222D01*
X147496123Y-93821163D01*
X147435141Y-93954695D01*
X147435140Y-93954698D01*
X147414250Y-94100000D01*
X145490119Y-94100000D01*
X145291633Y-93901514D01*
X145268796Y-93852540D01*
X145269298Y-93834424D01*
X145285750Y-93720000D01*
X145264859Y-93574696D01*
X145203877Y-93441164D01*
X145107744Y-93330222D01*
X144984250Y-93250857D01*
X144843399Y-93209500D01*
X144696601Y-93209500D01*
X144555750Y-93250857D01*
X144555749Y-93250857D01*
X144432255Y-93330222D01*
X144336123Y-93441163D01*
X144275141Y-93574695D01*
X144275140Y-93574698D01*
X144254250Y-93720000D01*
X136500500Y-93720000D01*
X136500500Y-91079000D01*
X136518982Y-91028220D01*
X136565782Y-91001200D01*
X136579500Y-91000000D01*
X157420500Y-91000000D01*
X157471280Y-91018482D01*
G37*
%TD.AperFunction*%
%TD*%
M02*
