%TF.GenerationSoftware,KiCad,Pcbnew,8.0.5*%
%TF.CreationDate,2024-11-01T22:20:15+01:00*%
%TF.ProjectId,C8W1B1V1.0,43385731-4231-4563-912e-302e6b696361,rev?*%
%TF.SameCoordinates,Original*%
%TF.FileFunction,Soldermask,Top*%
%TF.FilePolarity,Negative*%
%FSLAX46Y46*%
G04 Gerber Fmt 4.6, Leading zero omitted, Abs format (unit mm)*
G04 Created by KiCad (PCBNEW 8.0.5) date 2024-11-01 22:20:15*
%MOMM*%
%LPD*%
G01*
G04 APERTURE LIST*
G04 Aperture macros list*
%AMRoundRect*
0 Rectangle with rounded corners*
0 $1 Rounding radius*
0 $2 $3 $4 $5 $6 $7 $8 $9 X,Y pos of 4 corners*
0 Add a 4 corners polygon primitive as box body*
4,1,4,$2,$3,$4,$5,$6,$7,$8,$9,$2,$3,0*
0 Add four circle primitives for the rounded corners*
1,1,$1+$1,$2,$3*
1,1,$1+$1,$4,$5*
1,1,$1+$1,$6,$7*
1,1,$1+$1,$8,$9*
0 Add four rect primitives between the rounded corners*
20,1,$1+$1,$2,$3,$4,$5,0*
20,1,$1+$1,$4,$5,$6,$7,0*
20,1,$1+$1,$6,$7,$8,$9,0*
20,1,$1+$1,$8,$9,$2,$3,0*%
G04 Aperture macros list end*
%ADD10RoundRect,0.140000X0.170000X-0.140000X0.170000X0.140000X-0.170000X0.140000X-0.170000X-0.140000X0*%
%ADD11RoundRect,0.135000X0.135000X0.185000X-0.135000X0.185000X-0.135000X-0.185000X0.135000X-0.185000X0*%
%ADD12R,0.500000X0.600000*%
%ADD13RoundRect,0.135000X-0.135000X-0.185000X0.135000X-0.185000X0.135000X0.185000X-0.135000X0.185000X0*%
%ADD14R,1.100000X1.500000*%
%ADD15RoundRect,0.135000X0.185000X-0.135000X0.185000X0.135000X-0.185000X0.135000X-0.185000X-0.135000X0*%
%ADD16RoundRect,0.140000X-0.140000X-0.170000X0.140000X-0.170000X0.140000X0.170000X-0.140000X0.170000X0*%
%ADD17RoundRect,0.135000X-0.185000X0.135000X-0.185000X-0.135000X0.185000X-0.135000X0.185000X0.135000X0*%
%ADD18R,1.700000X1.700000*%
%ADD19O,1.700000X1.700000*%
%ADD20RoundRect,0.140000X-0.170000X0.140000X-0.170000X-0.140000X0.170000X-0.140000X0.170000X0.140000X0*%
%ADD21RoundRect,0.140000X0.140000X0.170000X-0.140000X0.170000X-0.140000X-0.170000X0.140000X-0.170000X0*%
%ADD22C,0.220000*%
%ADD23RoundRect,0.147500X0.172500X-0.147500X0.172500X0.147500X-0.172500X0.147500X-0.172500X-0.147500X0*%
%ADD24R,0.950000X0.300000*%
%ADD25R,0.250000X1.650000*%
%ADD26R,0.850000X0.300000*%
%ADD27R,1.500000X1.700000*%
%ADD28RoundRect,0.147500X-0.147500X-0.172500X0.147500X-0.172500X0.147500X0.172500X-0.147500X0.172500X0*%
%ADD29RoundRect,0.062500X-0.375000X-0.062500X0.375000X-0.062500X0.375000X0.062500X-0.375000X0.062500X0*%
%ADD30RoundRect,0.062500X-0.062500X-0.375000X0.062500X-0.375000X0.062500X0.375000X-0.062500X0.375000X0*%
%ADD31R,3.450000X3.450000*%
%ADD32RoundRect,0.218750X-0.218750X-0.381250X0.218750X-0.381250X0.218750X0.381250X-0.218750X0.381250X0*%
%ADD33R,0.800000X0.300000*%
%ADD34R,0.300000X0.800000*%
%ADD35R,2.800000X2.800000*%
G04 APERTURE END LIST*
D10*
%TO.C,C12*%
X154650000Y-97710000D03*
X154650000Y-96750000D03*
%TD*%
%TO.C,C3*%
X142820000Y-111900000D03*
X142820000Y-110940000D03*
%TD*%
D11*
%TO.C,R9*%
X152100000Y-112577500D03*
X151080000Y-112577500D03*
%TD*%
D12*
%TO.C,Y1*%
X153640000Y-97620000D03*
X153640000Y-96520000D03*
X152840000Y-96520000D03*
X152840000Y-97620000D03*
%TD*%
D13*
%TO.C,R4*%
X141860000Y-96090000D03*
X142880000Y-96090000D03*
%TD*%
D14*
%TO.C,LED1*%
X156230000Y-110580000D03*
X156230000Y-113580000D03*
X154730000Y-113580000D03*
X154730000Y-110580000D03*
%TD*%
D15*
%TO.C,R5*%
X144950000Y-120050000D03*
X144950000Y-119030000D03*
%TD*%
D16*
%TO.C,C1*%
X145810000Y-93190000D03*
X146770000Y-93190000D03*
%TD*%
D17*
%TO.C,R1*%
X143810000Y-110920000D03*
X143810000Y-111940000D03*
%TD*%
D10*
%TO.C,C7*%
X148900000Y-94100000D03*
X148900000Y-93140000D03*
%TD*%
%TO.C,C6*%
X147930000Y-94100000D03*
X147930000Y-93140000D03*
%TD*%
D18*
%TO.C,J1*%
X140530000Y-125000000D03*
D19*
X143070000Y-125000000D03*
X145610000Y-125000000D03*
X148150000Y-125000000D03*
X150690000Y-125000000D03*
X153230000Y-125000000D03*
X155770000Y-125000000D03*
%TD*%
D20*
%TO.C,C20*%
X151240000Y-116070000D03*
X151240000Y-117030000D03*
%TD*%
D21*
%TO.C,C2*%
X143840000Y-109970000D03*
X142880000Y-109970000D03*
%TD*%
D11*
%TO.C,R3*%
X150670000Y-107510000D03*
X149650000Y-107510000D03*
%TD*%
D22*
%TO.C,IC3*%
X144740000Y-96590000D03*
X143680000Y-96590000D03*
X144740000Y-96090000D03*
X143680000Y-96090000D03*
X144740000Y-94880000D03*
X143680000Y-94880000D03*
%TD*%
D21*
%TO.C,C13*%
X153800000Y-95420000D03*
X152840000Y-95420000D03*
%TD*%
D17*
%TO.C,R6*%
X150210000Y-119010000D03*
X150210000Y-120030000D03*
%TD*%
D10*
%TO.C,C8*%
X149870000Y-94100000D03*
X149870000Y-93140000D03*
%TD*%
D23*
%TO.C,L3*%
X139910000Y-96060000D03*
X139910000Y-95090000D03*
%TD*%
D16*
%TO.C,C14*%
X150890000Y-97620000D03*
X151850000Y-97620000D03*
%TD*%
D17*
%TO.C,R8*%
X150270000Y-116070000D03*
X150270000Y-117090000D03*
%TD*%
D24*
%TO.C,IC1*%
X146200000Y-119040000D03*
X146200000Y-119540000D03*
X146200000Y-120040000D03*
X146200000Y-120540000D03*
X149000000Y-120540000D03*
X149000000Y-120040000D03*
X149000000Y-119540000D03*
X149000000Y-119040000D03*
D25*
X147600000Y-119790000D03*
%TD*%
D26*
%TO.C,IC4*%
X146160000Y-116170000D03*
X146160000Y-116670000D03*
X146160000Y-117170000D03*
X146160000Y-117670000D03*
X149060000Y-117670000D03*
X149060000Y-117170000D03*
X149060000Y-116670000D03*
X149060000Y-116170000D03*
D27*
X147610000Y-116920000D03*
%TD*%
D10*
%TO.C,C9*%
X150840000Y-94100000D03*
X150840000Y-93140000D03*
%TD*%
%TO.C,C19*%
X151200000Y-119990000D03*
X151200000Y-119030000D03*
%TD*%
D21*
%TO.C,C4*%
X146970000Y-94170000D03*
X146010000Y-94170000D03*
%TD*%
D16*
%TO.C,C18*%
X140880000Y-95090000D03*
X141840000Y-95090000D03*
%TD*%
D20*
%TO.C,C11*%
X140900000Y-96060000D03*
X140900000Y-97020000D03*
%TD*%
D11*
%TO.C,R2*%
X151890000Y-95170000D03*
X150870000Y-95170000D03*
%TD*%
D20*
%TO.C,C16*%
X149640000Y-100480000D03*
X149640000Y-101440000D03*
%TD*%
D11*
%TO.C,R10*%
X152100000Y-111577500D03*
X151080000Y-111577500D03*
%TD*%
D28*
%TO.C,L1*%
X146915000Y-92190000D03*
X147885000Y-92190000D03*
%TD*%
D20*
%TO.C,C15*%
X150920000Y-99210000D03*
X150920000Y-100170000D03*
%TD*%
D21*
%TO.C,C17*%
X144590000Y-97370000D03*
X143630000Y-97370000D03*
%TD*%
D20*
%TO.C,C5*%
X155540000Y-98630000D03*
X155540000Y-99590000D03*
%TD*%
D29*
%TO.C,U1*%
X145032500Y-109420000D03*
X145032500Y-109920000D03*
X145032500Y-110420000D03*
X145032500Y-110920000D03*
X145032500Y-111420000D03*
X145032500Y-111920000D03*
X145032500Y-112420000D03*
X145032500Y-112920000D03*
D30*
X145720000Y-113607500D03*
X146220000Y-113607500D03*
X146720000Y-113607500D03*
X147220000Y-113607500D03*
X147720000Y-113607500D03*
X148220000Y-113607500D03*
X148720000Y-113607500D03*
X149220000Y-113607500D03*
D29*
X149907500Y-112920000D03*
X149907500Y-112420000D03*
X149907500Y-111920000D03*
X149907500Y-111420000D03*
X149907500Y-110920000D03*
X149907500Y-110420000D03*
X149907500Y-109920000D03*
X149907500Y-109420000D03*
D30*
X149220000Y-108732500D03*
X148720000Y-108732500D03*
X148220000Y-108732500D03*
X147720000Y-108732500D03*
X147220000Y-108732500D03*
X146720000Y-108732500D03*
X146220000Y-108732500D03*
X145720000Y-108732500D03*
D31*
X147470000Y-111170000D03*
%TD*%
D16*
%TO.C,C10*%
X150880000Y-96160000D03*
X151840000Y-96160000D03*
%TD*%
D32*
%TO.C,L2*%
X152217500Y-99070000D03*
X154342500Y-99070000D03*
%TD*%
D11*
%TO.C,R7*%
X144980000Y-117180000D03*
X143960000Y-117180000D03*
%TD*%
D33*
%TO.C,IC2*%
X149740000Y-98590000D03*
X149740000Y-98090000D03*
X149740000Y-97590000D03*
X149740000Y-97090000D03*
X149740000Y-96590000D03*
X149740000Y-96090000D03*
D34*
X148990000Y-95340000D03*
X148490000Y-95340000D03*
X147990000Y-95340000D03*
X147490000Y-95340000D03*
X146990000Y-95340000D03*
X146490000Y-95340000D03*
D33*
X145740000Y-96090000D03*
X145740000Y-96590000D03*
X145740000Y-97090000D03*
X145740000Y-97590000D03*
X145740000Y-98090000D03*
X145740000Y-98590000D03*
D34*
X146490000Y-99340000D03*
X146990000Y-99340000D03*
X147490000Y-99340000D03*
X147990000Y-99340000D03*
X148490000Y-99340000D03*
X148990000Y-99340000D03*
D35*
X147740000Y-97340000D03*
%TD*%
M02*
